<svg xmlns="http://www.w3.org/2000/svg" viewBox="0 0 123.23 32.2"><defs><style>.cls-1{fill:#fff;}</style></defs><title>vcAsset 1ReplytoStory</title><g id="Layer_2" data-name="Layer 2"><g id="Layer_1-2" data-name="Layer 1"><path class="cls-1" d="M27.67,23.62a23.16,23.16,0,0,1-2.09,3.91c-1.36,2.07-3.27,4.64-5.65,4.67-2.11,0-2.65-1.37-5.51-1.36S11,32.22,8.85,32.2c-2.37,0-4.19-2.35-5.55-4.42C-.49,22-.89,15.21,1.45,11.6A8.41,8.41,0,0,1,8.22,7.54c2.51,0,4.1,1.38,6.17,1.38s3.25-1.38,6.15-1.38a8.2,8.2,0,0,1,6.19,3.27A7.08,7.08,0,0,0,27.67,23.62Z"/><path class="cls-1" d="M18.34,5.23A7.06,7.06,0,0,0,19.91,0,7.63,7.63,0,0,0,15,2.65a6.55,6.55,0,0,0-1.61,5.1A6.44,6.44,0,0,0,18.34,5.23Z"/><path class="cls-1" d="M40.53,14.15c.18.72.38,1.46.64,2.26l1.47,4.25H38.46l1.45-4.27C40.13,15.69,40.34,14.94,40.53,14.15Zm-1.29-2.63-5.44,16h2.49l1.62-4.92h5.27l1.67,4.92h2.56L42,11.52Z"/><path class="cls-1" d="M53.86,17.68c2.16,0,3.13,2,3.13,4,0,2.56-1.23,4.15-3.22,4.15a2.94,2.94,0,0,1-2.86-2.25,3.09,3.09,0,0,1-.09-.78V20.83a3.65,3.65,0,0,1,.08-.6c0-.07,0-.13,0-.2A3.07,3.07,0,0,1,53.86,17.68Zm.6-2a4.53,4.53,0,0,0-3.85,1.85l-.1-1.59H48.29v.2c.07,1,.09,2.08.09,3.65V32.13h2.42V26.37a4.26,4.26,0,0,0,3.31,1.42,5,5,0,0,0,3.67-1.56,6.62,6.62,0,0,0,1.62-4.66A6.45,6.45,0,0,0,58,17.31,4.61,4.61,0,0,0,54.46,15.67Z"/><path class="cls-1" d="M66.34,17.68c2.16,0,3.13,2,3.13,4,0,2.56-1.23,4.15-3.22,4.15a2.94,2.94,0,0,1-2.86-2.25,3.09,3.09,0,0,1-.09-.78V20.83a3.6,3.6,0,0,1,.08-.6l0-.19A3.07,3.07,0,0,1,66.34,17.68Zm.6-2a4.54,4.54,0,0,0-3.85,1.85L63,15.93H60.77v.2c.07,1,.09,2.08.09,3.65V32.13H63.3V26.37a4.25,4.25,0,0,0,3.31,1.42,5,5,0,0,0,3.67-1.56,6.63,6.63,0,0,0,1.62-4.66,6.45,6.45,0,0,0-1.41-4.26A4.61,4.61,0,0,0,66.94,15.67Z"/><path class="cls-1" d="M82.57,18.3c-2.26-.88-3-1.56-3-2.84,0-1.07.85-2.15,2.75-2.15a5.51,5.51,0,0,1,2.85.71l.21.13.68-2-.14-.08a7,7,0,0,0-3.53-.79c-3.09,0-5.25,1.82-5.25,4.44,0,2.11,1.35,3.58,4.25,4.63,2.06.77,2.82,1.56,2.82,2.91,0,1.53-1.18,2.48-3.08,2.48a6.63,6.63,0,0,1-3.49-1l-.21-.13-.65,2.07.12.08A8.3,8.3,0,0,0,81,27.79c4.17,0,5.64-2.54,5.64-4.71S85.48,19.45,82.57,18.3Z"/><path class="cls-1" d="M91,13.17l-2.38.75v2H86.91v1.94h1.74V23.8a4.53,4.53,0,0,0,.84,3.07,3.11,3.11,0,0,0,2.34.92,5.7,5.7,0,0,0,1.87-.29l.14,0-.12-1.94-.23.07a3.66,3.66,0,0,1-1.13.13c-.94,0-1.34-.59-1.34-2V17.86h2.92V15.93H91Z"/><path class="cls-1" d="M99.88,17.58c2.18,0,3.17,2.13,3.17,4.1,0,2.43-1.35,4.19-3.22,4.19h0c-1.84,0-3.17-1.73-3.17-4.12C96.64,19.68,97.65,17.58,99.88,17.58Zm.07-1.91c-3.39,0-5.76,2.53-5.76,6.15s2.29,6,5.57,6h0c2.77,0,5.76-1.93,5.76-6.18A6.12,6.12,0,0,0,104,17.33,5.39,5.39,0,0,0,100,15.67Z"/><path class="cls-1" d="M113,15.78l-.15,0a2.33,2.33,0,0,0-.6-.08,3.46,3.46,0,0,0-3,2l-.07-1.7h-2.17v.2c.06,1,.09,2,.09,3.49l0,7.92h2.42V21.36a6.25,6.25,0,0,1,.07-.94A2.68,2.68,0,0,1,112.06,18a6.14,6.14,0,0,1,.65,0l.26,0Z"/><path class="cls-1" d="M118.26,17.49a2.39,2.39,0,0,1,1.78.68,3.45,3.45,0,0,1,.83,2.26h-5.53C115.57,19,116.45,17.49,118.26,17.49Zm.16-1.84c-3.23,0-5.48,2.58-5.48,6.27s2.24,5.85,5.71,5.85a9.3,9.3,0,0,0,3.84-.74l.15-.07-.47-1.81-.2.08a7.51,7.51,0,0,1-3,.54,3.37,3.37,0,0,1-3.63-3.51l7.82,0,0-.15a5.39,5.39,0,0,0,.07-1C123.23,18.6,122,15.65,118.42,15.65Z"/><path class="cls-1" d="M34.9,7.29a7.76,7.76,0,0,0,1.1,0c2.32,0,3.59-1.17,3.59-3.22,0-1.81-1.11-2.92-3.41-2.92a7,7,0,0,0-1.27.1ZM33.8.57A17.66,17.66,0,0,1,36.12.42a5.19,5.19,0,0,1,3.41.93,3.32,3.32,0,0,1,1.2,2.73A3.84,3.84,0,0,1,39.52,7a5.62,5.62,0,0,1-3.74,1.09,16.81,16.81,0,0,1-2-.09Z"/><path class="cls-1" d="M44.67,7.44a1.94,1.94,0,0,0,1.84-2.13,1.85,1.85,0,1,0-3.66,0,1.91,1.91,0,0,0,1.81,2.09Zm0,.74a2.73,2.73,0,0,1-2.9-2.8,2.81,2.81,0,0,1,3-2.89,2.71,2.71,0,0,1,2.91,2.79,2.82,2.82,0,0,1-3,2.9Z"/><path class="cls-1" d="M49.39,2.61l.81,2.76c.16.61.33,1.18.44,1.74h0c.14-.55.34-1.14.54-1.73l1-2.77h.93l.94,2.72c.22.64.4,1.23.54,1.78h0a15.06,15.06,0,0,1,.46-1.77L56,2.61H57L55.1,8.05h-1l-.92-2.6a17.83,17.83,0,0,1-.54-1.8h0a15,15,0,0,1-.55,1.81l-1,2.59h-1L48.26,2.61Z"/><path class="cls-1" d="M58.15,4.08c0-.57,0-1-.05-1.47h1l.06.89h0a2.29,2.29,0,0,1,2-1A2.07,2.07,0,0,1,63.3,4.8V8.06H62.2V4.92c0-.88-.36-1.62-1.4-1.62a1.57,1.57,0,0,0-1.47,1,1.33,1.33,0,0,0-.08.46V8.06h-1.1Z"/><rect class="cls-1" x="65.09" y="0.07" width="1.1" height="7.99"/><path class="cls-1" d="M70.51,7.44a1.94,1.94,0,0,0,1.84-2.13,1.85,1.85,0,1,0-3.66,0A1.91,1.91,0,0,0,70.5,7.44Zm0,.74a2.73,2.73,0,0,1-2.9-2.8,2.81,2.81,0,0,1,3-2.89,2.71,2.71,0,0,1,2.91,2.79,2.82,2.82,0,0,1-3,2.9Z"/><path class="cls-1" d="M78.06,5.28c-1.2,0-2.56.17-2.56,1.23a.92.92,0,0,0,1,.94A1.53,1.53,0,0,0,78,6.54a.91.91,0,0,0,.05-.31Zm1.07,1.47a8.21,8.21,0,0,0,.09,1.3h-1l-.1-.69h0a2.33,2.33,0,0,1-1.85.81A1.65,1.65,0,0,1,74.4,6.62c0-1.32,1.3-2,3.64-2V4.48c0-.45-.14-1.27-1.37-1.26a3.16,3.16,0,0,0-1.59.4L74.82,3a4.26,4.26,0,0,1,2-.47,2,2,0,0,1,2.31,2.23Z"/><path class="cls-1" d="M85,4.83A1.65,1.65,0,0,0,85,4.4a1.59,1.59,0,0,0-1.59-1.14,1.86,1.86,0,0,0-1.81,2.09,1.81,1.81,0,0,0,1.79,2A1.64,1.64,0,0,0,85,6.2,1.54,1.54,0,0,0,85,5.77ZM86.12.07V6.65c0,.48,0,1,.05,1.41h-1l0-.94h0a2.26,2.26,0,0,1-2,1.07,2.6,2.6,0,0,1-2.6-2.77,2.71,2.71,0,0,1,2.71-2.92A2.08,2.08,0,0,1,85,3.31h0V.07Z"/><path class="cls-1" d="M93.1,7.44a1.94,1.94,0,0,0,1.84-2.13,1.85,1.85,0,1,0-3.66,0,1.91,1.91,0,0,0,1.81,2.09Zm0,.74a2.73,2.73,0,0,1-2.9-2.8,2.81,2.81,0,0,1,3-2.89,2.71,2.71,0,0,1,2.91,2.79,2.82,2.82,0,0,1-3,2.9Z"/><path class="cls-1" d="M97.46,4.08c0-.57,0-1-.05-1.47h1l.06.89h0a2.29,2.29,0,0,1,2-1,2.07,2.07,0,0,1,2.14,2.32V8.06h-1.1V4.92c0-.88-.36-1.62-1.4-1.62a1.57,1.57,0,0,0-1.47,1,1.34,1.34,0,0,0-.07.46V8.06h-1.1Z"/><path class="cls-1" d="M108.37,1.31v1.3h1.57v.75h-1.57V6.3c0,.67.21,1.06.82,1.06a2.25,2.25,0,0,0,.64-.07l0,.75a3.3,3.3,0,0,1-1,.14,1.66,1.66,0,0,1-1.19-.42,2,2,0,0,1-.42-1.43v-3h-.94V2.61h.94v-1Z"/><path class="cls-1" d="M111.18.07h1.1v3.4h0a1.87,1.87,0,0,1,.79-.7,2.32,2.32,0,0,1,1.12-.28,2.07,2.07,0,0,1,2.11,2.33V8.05h-1.1V4.93c0-.89-.36-1.62-1.4-1.62a1.58,1.58,0,0,0-1.47,1,1.09,1.09,0,0,0-.08.47V8.05h-1.1Z"/><path class="cls-1" d="M122,4.79a1.46,1.46,0,0,0-1.51-1.61,1.71,1.71,0,0,0-1.69,1.61Zm-3.21.71a1.84,1.84,0,0,0,2.06,1.89,4.58,4.58,0,0,0,1.68-.27l.2.7a5.4,5.4,0,0,1-2,.35,2.68,2.68,0,0,1-3-2.74,2.77,2.77,0,0,1,2.85-2.95A2.38,2.38,0,0,1,123,5a2.28,2.28,0,0,1,0,.47Z"/></g></g></svg>