<?xml version="1.0" encoding="UTF-8"?>
<svg width="18px" height="20px" viewBox="0 0 18 20" version="1.1" xmlns="http://www.w3.org/2000/svg" xmlns:xlink="http://www.w3.org/1999/xlink">
    <!-- Generator: Sketch 60.1 (88133) - https://sketch.com -->
    <title>assignment_turned</title>
    <desc>Created with Sketch.</desc>
    <g id="Page-1" stroke="none" stroke-width="1" fill="none" fill-rule="evenodd">
        <g id="assignment_turned" fill="#00ACE9" fill-rule="nonzero">
            <path d="M16,2 L11.82,2 C11.3893749,0.813546561 10.2621845,0.0235233266 9,0.0235233266 C7.73781549,0.0235233266 6.6106251,0.813546561 6.18,2 L2,2 C0.8954305,2 0,2.8954305 0,4 L0,18 C0,19.1045695 0.8954305,20 2,20 L16,20 C17.1045695,20 18,19.1045695 18,18 L18,4 C18,2.8954305 17.1045695,2 16,2 Z M9,2 C9.55228475,2 10,2.44771525 10,3 C10,3.55228475 9.55228475,4 9,4 C8.44771525,4 8,3.55228475 8,3 C8,2.44771525 8.44771525,2 9,2 Z M7,16 L3,12 L4.41,10.59 L7,13.17 L13.59,6.58 L15,8 L7,16 Z" id="Shape"></path>
        </g>
    </g>
</svg>