<?xml version="1.0" encoding="UTF-8"?>
<svg width="535px" height="528px" viewBox="0 0 535 528" version="1.1" xmlns="http://www.w3.org/2000/svg" xmlns:xlink="http://www.w3.org/1999/xlink">
    <!-- Generator: Sketch 60.1 (88133) - https://sketch.com -->
    <title>girl-calendar</title>
    <desc>Created with Sketch.</desc>
    <g id="Page-1" stroke="none" stroke-width="1" fill="none" fill-rule="evenodd">
        <g id="girl-calendar">
            <path d="M505.7,220.6 C476.6,106.2 376.1,23.6 258.1,20.3 C195.7,18.5 130.1,39.2 82.3,111.6 C-3.1,241 87.5,330.4 150.8,372.9 C181.3,393.5 208.9,418.2 232.6,446.4 C275.3,497.1 357.4,560 455.3,461.4 C526.1,389.9 525,296.8 505.7,220.6 Z" id="Path" fill="#5CB892" fill-rule="nonzero" opacity="0.2275"></path>
            <path d="M139.5,527.7 C159.9,522.4 179.6,517.9 198.4,514.1 L191.2,489.9 C193.7,488.5 204.6,502.5 204.6,502.5 L195.4,432.4 C208,435.2 213.8,506.7 213.8,506.7 L228.1,482.9 L221.1,509.9 C278.8,499.8 328.6,496.7 370.4,497.4 L364.2,476.7 C366.7,475.3 377.6,489.3 377.6,489.3 L368.4,419.2 C381,422 386.8,493.5 386.8,493.5 L401.1,469.7 L393.6,498.3 C428.7,500.2 457.2,504.8 479.3,509.9 C473.1,477.7 451.5,446.7 451.5,446.7 C468.1,455.3 476.8,469.4 481.3,482.5 C482,442.9 480.2,369.4 463.4,287.7 C463.4,287.7 496.9,413.8 491.8,497.9 L491.2,512.8 C520.4,520.4 535.1,528 535.1,528 L139.5,527.7 Z" id="Path" fill="#5CB892" fill-rule="nonzero"></path>
            <path d="M266.1,508.3 C266,508.1 262.6,502.5 261.4,490.8 C260.3,480.1 261,462.2 270.3,437.1 C288,389.6 266.2,351.3 266,350.9 L267.1,350.3 C267.2,350.4 272.8,360.2 276.1,375.7 C280.5,396.3 278.9,417.8 271.5,437.5 C253.9,484.9 267,507.4 267.1,507.6 L266.1,508.3 Z" id="Path" fill="#3F3D56" fill-rule="nonzero"></path>
            <path d="M259.2,332 C259.7,332 260.3,332.1 260.8,332.2 C261.3,332.3 261.8,332.5 262.3,332.7 C262.8,332.9 263.3,333.2 263.7,333.4 C264.1,333.6 264.5,334 264.9,334.4 C265.3,334.8 265.6,335.2 265.9,335.6 C266.2,336 266.4,336.5 266.6,337 C266.8,337.5 267,338 267.1,338.5 C267.2,339 267.3,339.5 267.3,340.1 C267.3,340.7 267.2,341.2 267.1,341.7 C267,342.2 266.8,342.7 266.6,343.2 C266.4,343.7 266.1,344.2 265.9,344.6 C265.6,345 265.3,345.4 264.9,345.8 C264.5,346.2 264.1,346.5 263.7,346.8 C263.3,347.1 262.8,347.3 262.3,347.5 C261.8,347.7 261.3,347.9 260.8,348 C260.3,348.1 259.8,348.2 259.2,348.2 C258.6,348.2 258.1,348.1 257.6,348 C257.1,347.9 256.6,347.7 256.1,347.5 C255.6,347.3 255.1,347 254.7,346.8 C254.3,346.5 253.9,346.2 253.5,345.8 C253.1,345.4 252.8,345 252.5,344.6 C252.2,344.2 252,343.7 251.8,343.2 C251.6,342.7 251.4,342.2 251.3,341.7 C251.2,341.2 251.1,340.7 251.1,340.1 C251.1,339.5 251.2,339 251.3,338.5 C251.4,338 251.6,337.5 251.8,337 C252,336.5 252.3,336 252.5,335.6 C252.7,335.2 253.1,334.8 253.5,334.4 C253.9,334 254.3,333.7 254.7,333.4 C255.1,333.1 255.6,332.9 256.1,332.7 C256.6,332.5 257.1,332.3 257.6,332.2 C258.2,332.1 258.7,332 259.2,332 Z" id="Path" fill="#5CB892" fill-rule="nonzero"></path>
            <path d="M284.6,361.8 C285.1,361.8 285.7,361.9 286.2,362 C286.7,362.1 287.2,362.3 287.7,362.5 C288.2,362.7 288.7,363 289.1,363.2 C289.5,363.4 289.9,363.8 290.3,364.2 C290.7,364.6 291,365 291.3,365.4 C291.6,365.8 291.8,366.3 292,366.8 C292.2,367.3 292.4,367.8 292.5,368.3 C292.6,368.8 292.7,369.3 292.7,369.9 C292.7,370.5 292.6,371 292.5,371.5 C292.4,372 292.2,372.5 292,373 C291.8,373.5 291.5,374 291.3,374.4 C291,374.8 290.7,375.2 290.3,375.6 C289.9,376 289.5,376.3 289.1,376.6 C288.7,376.9 288.2,377.1 287.7,377.3 C287.2,377.5 286.7,377.7 286.2,377.8 C285.7,377.9 285.2,378 284.6,378 C284,378 283.5,377.9 283,377.8 C282.5,377.7 282,377.5 281.5,377.3 C281,377.1 280.5,376.8 280.1,376.6 C279.7,376.3 279.3,376 278.9,375.6 C278.5,375.2 278.2,374.8 277.9,374.4 C277.6,374 277.4,373.5 277.2,373 C277,372.5 276.8,372 276.7,371.5 C276.6,371 276.5,370.5 276.5,369.9 C276.5,369.3 276.6,368.8 276.7,368.3 C276.8,367.8 277,367.3 277.2,366.8 C277.4,366.3 277.7,365.8 277.9,365.4 C278.1,365 278.5,364.6 278.9,364.2 C279.3,363.8 279.7,363.5 280.1,363.2 C280.5,362.9 281,362.7 281.5,362.5 C282,362.3 282.5,362.1 283,362 C283.6,361.8 284.1,361.8 284.6,361.8 Z" id="Path" fill="#3F3D56" fill-rule="nonzero"></path>
            <path d="M267.3,381.6 C267.8,381.6 268.4,381.7 268.9,381.8 C269.4,381.9 269.9,382.1 270.4,382.3 C270.9,382.5 271.4,382.8 271.8,383 C272.2,383.2 272.6,383.6 273,384 C273.4,384.4 273.7,384.8 274,385.2 C274.3,385.6 274.5,386.1 274.7,386.6 C274.9,387.1 275.1,387.6 275.2,388.1 C275.3,388.6 275.4,389.1 275.4,389.7 C275.4,390.3 275.3,390.8 275.2,391.3 C275.1,391.8 274.9,392.3 274.7,392.8 C274.5,393.3 274.2,393.8 274,394.2 C273.7,394.6 273.4,395 273,395.4 C272.6,395.8 272.2,396.1 271.8,396.4 C271.4,396.7 270.9,396.9 270.4,397.1 C269.9,397.3 269.4,397.5 268.9,397.6 C268.4,397.7 267.9,397.8 267.3,397.8 C266.7,397.8 266.2,397.7 265.7,397.6 C265.2,397.5 264.7,397.3 264.2,397.1 C263.7,396.9 263.2,396.6 262.8,396.4 C262.4,396.1 262,395.8 261.6,395.4 C261.2,395 260.9,394.6 260.6,394.2 C260.3,393.8 260.1,393.3 259.9,392.8 C259.7,392.3 259.5,391.8 259.4,391.3 C259.3,390.8 259.2,390.3 259.2,389.7 C259.2,389.1 259.3,388.6 259.4,388.1 C259.5,387.6 259.7,387.1 259.9,386.6 C260.1,386.1 260.4,385.6 260.6,385.2 C260.8,384.8 261.2,384.4 261.6,384 C262,383.6 262.4,383.3 262.8,383 C263.2,382.7 263.7,382.5 264.2,382.3 C264.7,382.1 265.2,381.9 265.7,381.8 C266.2,381.6 266.7,381.6 267.3,381.6 Z" id="Path" fill="#5CB892" fill-rule="nonzero"></path>
            <path d="M288.3,398.3 C288.8,398.3 289.4,398.4 289.9,398.5 C290.4,398.6 290.9,398.8 291.4,399 C291.9,399.2 292.4,399.5 292.8,399.7 C293.2,399.9 293.6,400.3 294,400.7 C294.4,401.1 294.7,401.5 295,401.9 C295.3,402.3 295.5,402.8 295.7,403.3 C295.9,403.8 296.1,404.3 296.2,404.8 C296.3,405.3 296.4,405.8 296.4,406.4 C296.4,407 296.3,407.5 296.2,408 C296.1,408.5 295.9,409 295.7,409.5 C295.5,410 295.2,410.5 295,410.9 C294.7,411.3 294.4,411.7 294,412.1 C293.6,412.5 293.2,412.8 292.8,413.1 C292.4,413.4 291.9,413.6 291.4,413.8 C290.9,414 290.4,414.2 289.9,414.3 C289.4,414.4 288.9,414.5 288.3,414.5 C287.7,414.5 287.2,414.4 286.7,414.3 C286.2,414.2 285.7,414 285.2,413.8 C284.7,413.6 284.2,413.3 283.8,413.1 C283.4,412.8 283,412.5 282.6,412.1 C282.2,411.7 281.9,411.3 281.6,410.9 C281.3,410.5 281.1,410 280.9,409.5 C280.7,409 280.5,408.5 280.4,408 C280.3,407.5 280.2,407 280.2,406.4 C280.2,405.8 280.3,405.3 280.4,404.8 C280.5,404.3 280.7,403.8 280.9,403.3 C281.1,402.8 281.4,402.3 281.6,401.9 C281.8,401.5 282.2,401.1 282.6,400.7 C283,400.3 283.4,400 283.8,399.7 C284.2,399.4 284.7,399.2 285.2,399 C285.7,398.8 286.2,398.6 286.7,398.5 C287.3,398.4 287.8,398.3 288.3,398.3 Z" id="Path" fill="#5CB892" fill-rule="nonzero"></path>
            <path d="M261.1,424.3 C261.6,424.3 262.2,424.4 262.7,424.5 C263.2,424.6 263.7,424.8 264.2,425 C264.7,425.2 265.2,425.5 265.6,425.7 C266,425.9 266.4,426.3 266.8,426.7 C267.2,427.1 267.5,427.5 267.8,427.9 C268.1,428.3 268.3,428.8 268.5,429.3 C268.7,429.8 268.9,430.3 269,430.8 C269.1,431.3 269.2,431.8 269.2,432.4 C269.2,433 269.1,433.5 269,434 C268.9,434.5 268.7,435 268.5,435.5 C268.3,436 268,436.5 267.8,436.9 C267.5,437.3 267.2,437.7 266.8,438.1 C266.4,438.5 266,438.8 265.6,439.1 C265.2,439.4 264.7,439.6 264.2,439.8 C263.7,440 263.2,440.2 262.7,440.3 C262.2,440.4 261.7,440.5 261.1,440.5 C260.5,440.5 260,440.4 259.5,440.3 C259,440.2 258.5,440 258,439.8 C257.5,439.6 257,439.3 256.6,439.1 C256.2,438.8 255.8,438.5 255.4,438.1 C255,437.7 254.7,437.3 254.4,436.9 C254.1,436.5 253.9,436 253.7,435.5 C253.5,435 253.3,434.5 253.2,434 C253.1,433.5 253,433 253,432.4 C253,431.8 253.1,431.3 253.2,430.8 C253.3,430.3 253.5,429.8 253.7,429.3 C253.9,428.8 254.2,428.3 254.4,427.9 C254.6,427.5 255,427.1 255.4,426.7 C255.8,426.3 256.2,426 256.6,425.7 C257,425.4 257.5,425.2 258,425 C258.5,424.8 259,424.6 259.5,424.5 C260,424.4 260.5,424.3 261.1,424.3 Z" id="Path" fill="#3F3D56" fill-rule="nonzero"></path>
            <path d="M271,508.6 C271,508.6 262.9,488.8 287.1,473.9 L271,508.6 Z" id="Path" fill="#5CB892" fill-rule="nonzero"></path>
            <path d="M261.1,508.2 C261.1,508.2 257.4,487.1 229.1,487.3 L261.1,508.2 Z" id="Path" fill="#5CB892" fill-rule="nonzero"></path>
            <path d="M384.4,174.3 C369,174.3 356.5,188.1 356.5,205.2 L356.5,226.9 L363.2,226.9 L367.1,218.9 L366.1,226.9 L409,226.9 L412.5,219.6 L411.6,226.9 L416.400518,226.9 L416.400518,209.9 C416.5,190.2 402.1,174.3 384.4,174.3 Z" id="Path" fill="#2F2E41" fill-rule="nonzero"></path>
            <path d="M358.2,274.6 L353.6,292.3 L396.8,290.8 L396,276.1 C396,276.1 363.6,267.6 358.2,274.6 Z" id="Path" fill="#A0616A" fill-rule="nonzero"></path>
            <polygon id="Path" fill="#A0616A" fill-rule="nonzero" points="316.6 345.6 330.5 376.4 343.6 360.2 332.8 338.6"></polygon>
            <polygon id="Path" fill="#A0616A" fill-rule="nonzero" points="351.3 458.9 352.8 494.4 369.8 494.4 367.5 458.9"></polygon>
            <path d="M331.2,313.2 L338.9,338.7 L350.5,462.1 C350.5,462.1 361.3,465.2 369,461.3 L370.5,444.3 L373.6,347.1 C373.6,347.1 388.3,339.4 386.7,328.6 C385.2,317.8 381.3,303.1 381.3,303.1 L331.2,313.2 Z" id="Path" fill="#2F2E41" fill-rule="nonzero"></path>
            <path d="M355.2,485.9 L350.6,485.9 C350.6,485.9 337.5,499.8 332.9,501.3 C328.3,502.8 304.4,516 323.6,518.3 C342.9,520.6 355.2,510.6 355.2,510.6 C355.2,510.6 361.4,514.5 369.9,511.4 C378.4,508.3 373.8,499.1 373.8,499.1 C373.8,499.1 369.5,485 369.3,485.1 C369,485.2 364.4,492.1 355.2,485.9 Z" id="Path" fill="#2F2E41" fill-rule="nonzero"></path>
            <path d="M379.1,186.7 C379.7,186.7 380.3,186.7 380.8,186.8 C381.4,186.9 382,186.9 382.5,187.1 C383.1,187.2 383.6,187.4 384.2,187.5 C384.8,187.7 385.3,187.9 385.8,188.1 C386.3,188.3 386.9,188.6 387.4,188.8 C387.9,189 388.4,189.4 388.9,189.7 C389.4,190 389.8,190.4 390.3,190.7 C390.8,191 391.2,191.5 391.6,191.9 C392,192.3 392.4,192.7 392.8,193.2 C393.2,193.6 393.5,194.1 393.8,194.6 C394.1,195.1 394.4,195.6 394.7,196.1 C395,196.6 395.2,197.1 395.4,197.7 C395.6,198.2 395.8,198.8 396,199.3 C396.2,199.9 396.3,200.4 396.4,201 C396.5,201.6 396.6,202.1 396.7,202.7 C396.8,203.3 396.8,203.9 396.8,204.4 C396.8,205 396.8,205.6 396.7,206.1 C396.6,206.7 396.6,207.3 396.4,207.8 C396.3,208.4 396.1,208.9 396,209.5 C395.8,210.1 395.6,210.6 395.4,211.1 C395.2,211.6 394.9,212.2 394.7,212.7 C394.4,213.2 394.1,213.7 393.8,214.2 C393.5,214.7 393.1,215.1 392.8,215.6 C392.4,216 392,216.5 391.6,216.9 C391.2,217.3 390.8,217.7 390.3,218.1 C389.8,218.5 389.4,218.8 388.9,219.1 C388.4,219.4 387.9,219.7 387.4,220 C386.9,220.3 386.4,220.5 385.8,220.7 C385.3,220.9 384.7,221.1 384.2,221.3 C383.7,221.5 383.1,221.6 382.5,221.7 C381.9,221.8 381.4,221.9 380.8,222 C380.2,222.1 379.6,222.1 379.1,222.1 C378.6,222.1 377.9,222.1 377.4,222 C376.8,221.9 376.2,221.9 375.7,221.7 C375.1,221.6 374.6,221.4 374,221.3 C373.4,221.1 372.9,220.9 372.4,220.7 C371.9,220.5 371.3,220.2 370.8,220 C370.3,219.7 369.8,219.4 369.3,219.1 C368.8,218.8 368.4,218.4 367.9,218.1 C367.4,217.8 367,217.3 366.6,216.9 C366.2,216.5 365.8,216.1 365.4,215.6 C365,215.2 364.7,214.7 364.4,214.2 C364.1,213.7 363.8,213.2 363.5,212.7 C363.2,212.2 363,211.7 362.8,211.1 C362.6,210.6 362.4,210 362.2,209.5 C362,208.9 361.9,208.4 361.8,207.8 C361.7,207.2 361.6,206.7 361.5,206.1 C361.4,205.5 361.4,204.9 361.4,204.4 C361.4,203.8 361.4,203.2 361.5,202.7 C361.6,202.1 361.6,201.5 361.8,201 C362,200.5 362.1,199.9 362.2,199.3 C362.3,198.7 362.6,198.2 362.8,197.7 C363,197.2 363.3,196.6 363.5,196.1 C363.8,195.6 364.1,195.1 364.4,194.6 C364.7,194.1 365.1,193.7 365.4,193.2 C365.8,192.8 366.2,192.3 366.6,191.9 C367,191.5 367.4,191.1 367.9,190.7 C368.4,190.3 368.8,190 369.3,189.7 C369.8,189.4 370.3,189.1 370.8,188.8 C371.3,188.5 371.8,188.3 372.4,188.1 C373,187.9 373.5,187.7 374,187.5 C374.6,187.3 375.1,187.2 375.7,187.1 C376.3,187 376.8,186.9 377.4,186.8 C378,186.7 378.5,186.7 379.1,186.7 Z" id="Path" fill="#A0616A" fill-rule="nonzero"></path>
            <path d="M405.3,227.5 L397.1,234.3 L396,235.2 L395.2,244.5 L365.1,244.5 C365.1,244.5 369.2,240.9 373,237.3 C373.1,237.2 373.2,237.1 373.3,237 C373.8,236.5 374.3,236 374.7,235.6 C374.9,235.4 375.1,235.2 375.3,235 C375.6,234.7 375.9,234.4 376.2,234 C376.2,234 376.2,234 376.2,234 C377,233.2 377.7,232.3 378.4,231.4 L378.4,231.4 C378.6,231.2 378.8,230.9 378.9,230.6 C381.2,226.7 375.8,219 375.8,219 L392.8,210.5 C393.4,218.9 400.5,224.4 403.6,226.5 C404.7,227.2 405.3,227.5 405.3,227.5 Z" id="Path" fill="#A0616A" fill-rule="nonzero"></path>
            <path d="M447,357.1 C435.4,360.2 434.7,337 434.7,337 L418.9,305.4 C415.6,298.7 413.3,291.6 412.1,284.2 L408.5,261.4 L407.4,262.7 L407.4,262.7 L405.4,263.7 L393.4,244.4 L390,239 L390,232.8 L401.6,227.4 L406.2,227.4 C406.2,227.4 406.3,227.4 406.5,227.4 C408.6,227.2 422.5,226.3 423.2,239.8 C423.5,245.1 423.5,249.5 423.3,253 C422.9,262.5 423.8,272.1 426,281.4 C426.8,284.8 427.7,287.7 428.6,289.2 C431.7,294.6 442.5,337 442.5,337 C442.5,337 458.5,354 447,357.1 Z" id="Path" fill="#A0616A" fill-rule="nonzero"></path>
            <path d="M376,236 L373.1,241.3 L371.4,244.5 L362.9,259.9 C362.9,259.9 360.5,261.9 356.6,264.4 C350.1,268.6 339.5,274.4 328.9,275.3 C311.9,276.8 328.1,222.1 328.1,222.1 C328.1,222.1 333.5,200.5 341.2,202.8 C348.9,205.1 342.7,212.8 337.3,227.5 C331.9,242.2 336.5,258.4 336.5,258.4 C336.5,258.4 352.7,248.4 361.2,240.7 C365.6,236.7 369.4,235.6 372,235.5 L372,235.5 C372.9,235.5 373.7,235.5 374.6,235.7 C375.2,235.7 375.6,235.8 376,236 Z" id="Path" fill="#A0616A" fill-rule="nonzero"></path>
            <path d="M378.5,231.4 C378.5,231.5 378.1,232.2 375.3,235 C376.5,233.9 377.6,232.7 378.5,231.4 Z" id="Path" fill="#D0CDE1" fill-rule="nonzero"></path>
            <path d="M408,261.9 L407.3,262.8 L396.1,282.3 C396.1,282.3 381.4,276.9 370.6,275.4 C364.5,274.4 358.4,277.1 355.2,282.3 L358.3,270 L356.6,264.5 C356.4,263.9 356.2,263.1 355.9,262.3 C353.6,254.6 362.1,246.1 362.1,246.1 L372.2,235.5 L372.2,235.5 C373.1,235.5 373.9,235.5 374.8,235.7 C374.4,236.1 373.9,236.6 373.4,237.1 C373.3,237.2 373.2,237.3 373.1,237.4 C370.1,240.4 371.7,241.3 373.1,241.5 C373.6,241.6 374,241.6 374.5,241.6 C377.7,242.1 384.8,239.2 389.9,236.9 C393.4,235.3 396.1,233.9 396.1,233.9 L402.8,227.7 L403.8,226.8 C404.7,227.4 405.3,227.7 405.3,227.7 L406.1,227.7 C406.1,227.7 406.2,227.7 406.4,227.7 L402.9,230.3 C399.3,232.9 397.4,237.2 397.6,241.6 L408,261.9 Z" id="Path" fill="#D0CDE1" fill-rule="nonzero"></path>
            <path d="M366,283.8 L354.7,288.2 C354.7,288.2 293.5,264.5 284.2,283.8 C274.9,303.1 316.6,349.4 316.6,349.4 L335.1,340.9 L327.4,317.8 C327.4,317.8 372.1,355.6 390.7,334.8 C409.2,314 396.9,284.5 396.9,284.5 C396.9,284.5 385.2,275.4 366,283.8 Z" id="Path" fill="#2F2E41" fill-rule="nonzero"></path>
            <path d="M333.6,367.9 L326.7,373.3 C326.7,373.3 332.9,398 330.6,401.8 C328.3,405.7 323.7,416.5 332.1,415.7 C340.6,414.9 349.8,401.8 350.6,397.2 C351.4,392.6 356.8,378.7 356.8,378.7 C356.8,378.7 366.1,357.1 359.1,356.3 C352.2,355.5 341.1,355 341.1,355 L333.6,367.9 Z" id="Path" fill="#2F2E41" fill-rule="nonzero"></path>
            <path d="M392.3,182.8 C389.6,179.2 385.3,177 380.8,176.9 L380.3,176.9 C369.8,176.9 361.2,186.4 361.2,198.2 L364.7,198.2 L365.3,193.9 L366.1,198.2 L387.1,198.2 L388.9,194.5 L388.5,198.2 L392.6,198.2 C394.5,207.8 391.8,217.3 384.3,226.9 L391.3,226.9 L394.8,219.5 L393.9,226.9 L407.3,226.9 L409.9,210 C409.9,197.3 402.5,186.6 392.3,182.8 Z" id="Path" fill="#2F2E41" fill-rule="nonzero"></path>
            <path d="M260,75.1 C251.1,75.1 243.6,68.7 242.1,59.9 C240.6,51.1 245.8,42.6 254.2,39.8 L254.2,66 L265.8,66 L265.8,39.8 C274.2,42.6 279.3,51.2 277.9,59.9 C276.5,68.6 268.9,75.1 260,75.1 L260,75.1 Z M76.9,75.1 C68,75.1 60.5,68.7 59,59.9 C57.6,51.2 62.7,42.6 71.1,39.8 L71.1,66 L82.7,66 L82.7,39.8 C91.1,42.6 96.2,51.2 94.8,59.9 C93.4,68.6 85.8,75.1 76.9,75.1 L76.9,75.1 Z M265.9,33 L265.9,0 L254.3,0 L254.3,33 L82.8,33 L82.8,0 L71.2,0 L71.2,33 L4.54747351e-13,33 L4.54747351e-13,212.9 L337,212.9 L337,33 L265.9,33 Z" id="Shape" fill="#5CB892" fill-rule="nonzero"></path>
            <rect id="Rectangle" fill="#FFFFFF" fill-rule="nonzero" x="16.1" y="93.5" width="58.2" height="44"></rect>
            <rect id="Rectangle" fill="#FFFFFF" fill-rule="nonzero" x="98.3" y="93.5" width="58.2" height="44"></rect>
            <rect id="Rectangle" fill="#FFFFFF" fill-rule="nonzero" x="180.5" y="93.5" width="58.2" height="44"></rect>
            <rect id="Rectangle" fill="#FFFFFF" fill-rule="nonzero" x="16.1" y="150.4" width="58.2" height="44"></rect>
            <rect id="Rectangle" fill="#FFFFFF" fill-rule="nonzero" x="98.3" y="150.4" width="58.2" height="44"></rect>
            <rect id="Rectangle" fill="#FFFFFF" fill-rule="nonzero" x="180.5" y="150.4" width="58.2" height="44"></rect>
            <rect id="Rectangle" fill="#FFFFFF" fill-rule="nonzero" x="262.6" y="150.4" width="58.2" height="44"></rect>
            <polygon id="Path" fill="#5CB892" fill-rule="nonzero" points="203.5 125.4 198.1 118 199.6 116.9 203.7 122.6 219.4 106.4 220.7 107.7"></polygon>
            <polygon id="Path" stroke="#5CB892" points="203.5 125.4 198.1 118 199.6 116.9 203.7 122.6 219.4 106.4 220.7 107.7"></polygon>
            <polygon id="Path" fill="#F2F2F2" fill-rule="nonzero" points="42.9 446.6 29.6 441.4 16.3 436.1 27.5 427.2 38.7 418.3 40.8 432.4"></polygon>
            <polygon id="Path" fill="#F2F2F2" fill-rule="nonzero" points="110.7 390.5 98.1 397.4 85.5 404.2 85.9 389.9 86.2 375.6 98.5 383.1"></polygon>
            <polygon id="Path" fill="#5CB892" fill-rule="nonzero" points="121.5 182.4 116.1 175 117.6 173.9 121.7 179.6 137.4 163.4 138.7 164.7"></polygon>
            <polygon id="Path" stroke="#5CB892" points="121.5 182.4 116.1 175 117.6 173.9 121.7 179.6 137.4 163.4 138.7 164.7"></polygon>
        </g>
    </g>
</svg>