<svg id="Group_94" data-name="Group 94" xmlns="http://www.w3.org/2000/svg" width="330.107" height="122" viewBox="0 0 330.107 122">
  <g id="Group_93" data-name="Group 93">
    <rect id="Rectangle_83" data-name="Rectangle 83" width="122" height="122" fill="#fff"/>
    <g id="Group_2" data-name="Group 2" transform="translate(29 29)">
      <path id="Path_1" data-name="Path 1" d="M399.959,195.15l-41.417-41.417-11.024,11.024,30.393,30.393Z" transform="translate(-335.979 -131.167)" fill="#5cb892"/>
      <g id="Group_1" data-name="Group 1" transform="translate(0)">
        <path id="Path_2" data-name="Path 2" d="M322.811,124.966v-23.46h23.46" transform="translate(-322.811 -101.507)" fill="#5cb892"/>
        <path id="Path_3" data-name="Path 3" d="M364.111,101.507l-41.3,41.3v22.7l64-64Z" transform="translate(-322.811 -101.507)" fill="#5cb892"/>
      </g>
    </g>
  </g>
  <g id="Group_87" data-name="Group 87" transform="translate(151.099 33)">
    <path id="Path_479" data-name="Path 479" d="M533.607,590.3h10.549V624l11.673-14.007h12.94L555.2,625.972l13.924,19.479H555.829L544.3,627.5h-.141v17.947H533.607Z" transform="translate(-533.607 -590.296)" fill="#fff"/>
    <path id="Path_480" data-name="Path 480" d="M615.507,601.152a6.246,6.246,0,0,1,1.793-4.493,5.951,5.951,0,0,1,8.65,0,6.526,6.526,0,0,1,0,8.987,5.95,5.95,0,0,1-8.65,0A6.246,6.246,0,0,1,615.507,601.152Zm.844,11.18H626.9v35.51H616.351Z" transform="translate(-575.586 -592.686)" fill="#fff"/>
    <path id="Path_481" data-name="Path 481" d="M658.106,590.3h10.549v23.479h.141a9.884,9.884,0,0,1,4.677-3.609,17.551,17.551,0,0,1,6.153-1.057,13.484,13.484,0,0,1,6.54,1.567,15.283,15.283,0,0,1,4.888,4.193,19.831,19.831,0,0,1,3.094,6.016,23.088,23.088,0,0,1,1.09,7.109,21.808,21.808,0,0,1-1.2,7.365,17.039,17.039,0,0,1-3.411,5.8,15.358,15.358,0,0,1-5.31,3.791,17.07,17.07,0,0,1-6.892,1.349,11.4,11.4,0,0,1-3.446-.511A14.547,14.547,0,0,1,672,644.473a12.484,12.484,0,0,1-2.391-1.787,11.913,11.913,0,0,1-1.653-1.932h-.141v4.667h-9.7Zm9.7,37.406a9.37,9.37,0,0,0,2.215,6.489,9.052,9.052,0,0,0,12.448,0,10.613,10.613,0,0,0,0-12.979,9.052,9.052,0,0,0-12.448,0A9.376,9.376,0,0,0,667.811,627.7Z" transform="translate(-596.996 -590.296)" fill="#fff"/>
    <path id="Path_482" data-name="Path 482" d="M749,601.152a6.246,6.246,0,0,1,1.793-4.493,5.951,5.951,0,0,1,8.65,0,6.526,6.526,0,0,1,0,8.987,5.95,5.95,0,0,1-8.65,0A6.246,6.246,0,0,1,749,601.152Zm.844,11.18H760.4v35.51H749.848Z" transform="translate(-644.013 -592.686)" fill="#fff"/>
    <path id="Path_483" data-name="Path 483" d="M789.5,629.84h10.549v5.485h.141a12.966,12.966,0,0,1,4.009-4.747A10.131,10.131,0,0,1,810.038,629q.914,0,1.829.07a9.03,9.03,0,0,1,1.688.281v9.635a16.087,16.087,0,0,0-2.215-.527,14.4,14.4,0,0,0-2.286-.176,11.215,11.215,0,0,0-4.782.843,6.351,6.351,0,0,0-2.707,2.356,8.94,8.94,0,0,0-1.231,3.621,35.28,35.28,0,0,0-.281,4.642v14.275H789.5Z" transform="translate(-664.393 -608.862)" fill="#fff"/>
    <path id="Path_484" data-name="Path 484" d="M850.553,629.84H861.1v5.485h.141a12.965,12.965,0,0,1,4.009-4.747A10.13,10.13,0,0,1,871.088,629q.914,0,1.828.07a9.036,9.036,0,0,1,1.688.281v9.635a16.1,16.1,0,0,0-2.215-.527,14.4,14.4,0,0,0-2.286-.176,11.215,11.215,0,0,0-4.782.843,6.351,6.351,0,0,0-2.707,2.356,8.94,8.94,0,0,0-1.231,3.621,35.2,35.2,0,0,0-.281,4.642v14.275H850.553Z" transform="translate(-695.595 -608.862)" fill="#fff"/>
  </g>
</svg>
