<?xml version="1.0" encoding="UTF-8"?>
<svg width="850px" height="607px" viewBox="0 0 850 607" version="1.1" xmlns="http://www.w3.org/2000/svg" xmlns:xlink="http://www.w3.org/1999/xlink">
    <!-- Generator: Sketch 60.1 (88133) - https://sketch.com -->
    <title>home-slider</title>
    <desc>Created with Sketch.</desc>
    <g id="Page-1" stroke="none" stroke-width="1" fill="none" fill-rule="evenodd">
        <g id="home-slider" transform="translate(-1.000000, 0.000000)">
            <g id="Group">
                <path d="M684.16,257.56 C684.16,257.56 685.84,263.16 676.33,268.19 C666.82,273.22 664.02,292.25 675.21,297.85 C686.4,303.45 689.76,310.72 684.21,315.76 C678.66,320.8 668.54,334.23 681.97,337.58 C695.4,340.93 697.08,347.65 693.16,350.45 C689.24,353.25 702.16,345.45 702.16,345.45 C702.16,345.45 704.4,358.88 716.16,355.52 C727.92,352.16 760.93,288.37 744.16,279.42 C727.39,270.47 684.16,257.56 684.16,257.56 Z" id="Path" fill="#2F2E41" fill-rule="nonzero"></path>
                <path d="M704.45,311.59 C704.45,311.59 710.25,331.91 700.1,333.36 C693.797139,334.344226 687.824808,336.834699 682.69,340.62 L701.55,365.24 L736.38,365.24 L758.16,343.51 C758.16,343.51 729.16,321.74 734.94,308.68 C740.72,295.62 704.45,311.59 704.45,311.59 Z" id="Path" fill="#FFB9B9" fill-rule="nonzero"></path>
                <path d="M704.45,311.59 C704.45,311.59 710.25,331.91 700.1,333.36 C693.797139,334.344226 687.824808,336.834699 682.69,340.62 L701.55,365.24 L736.38,365.24 L758.16,343.51 C758.16,343.51 729.16,321.74 734.94,308.68 C740.72,295.62 704.45,311.59 704.45,311.59 Z" id="Path" fill="#000000" fill-rule="nonzero" opacity="0.1"></path>
                <polygon id="Path" fill="#FFB9B9" fill-rule="nonzero" points="713.16 564.08 746.54 575.69 769.75 577.14 768.3 556.82 720.42 542.66"></polygon>
                <path d="M755.97,559.73 C755.97,559.73 755.97,580.05 758.87,580.05 C761.77,580.05 800.95,575.7 812.56,580.05 C824.17,584.4 841.56,568.44 832.88,559.73 C824.2,551.02 809.97,537.96 801.11,540.87 C792.25,543.78 755.97,551.03 755.97,551.03 L755.97,559.73 Z" id="Path" fill="#575A89" fill-rule="nonzero"></path>
                <path d="M649.31,540.86 C649.31,540.86 631.9,575.69 643.51,578.59 C655.12,581.49 668.18,577.14 669.63,575.69 C671.08,574.24 691.4,568.43 694.3,571.34 C697.2,574.25 697.2,559.73 697.2,559.73 L649.31,540.86 Z" id="Path" fill="#575A89" fill-rule="nonzero"></path>
                <path d="M663.82,492.979994 C663.82,492.979994 636.25,530.71 656.56,540.87 C676.87,551.03 774.1,551.03 781.36,540.87 C788.62,530.71 791.52,498.79 781.36,495.87 C771.2,492.95 663.82,492.979994 663.82,492.979994 Z" id="Path" fill="#2F2E41" fill-rule="nonzero"></path>
                <path d="M663.82,492.979994 C663.82,492.979994 636.25,530.71 656.56,540.87 C676.87,551.03 774.1,551.03 781.36,540.87 C788.62,530.71 791.52,498.79 781.36,495.87 C771.2,492.95 663.82,492.979994 663.82,492.979994 Z" id="Path" fill="#000000" fill-rule="nonzero" opacity="0.2"></path>
                <path d="M716.06,254.99 C717.153333,254.99 718.243333,255.043333 719.33,255.15 C720.416667,255.256667 721.496667,255.416667 722.57,255.63 C723.643333,255.843333 724.703333,256.11 725.75,256.43 C726.796667,256.75 727.823333,257.116667 728.83,257.53 C729.836667,257.95 730.836667,258.416667 731.83,258.93 C732.823333,259.443333 733.76,260.003333 734.64,260.61 C735.546667,261.216667 736.423333,261.883333 737.27,262.61 C738.116667,263.336667 738.926667,264.07 739.7,264.81 C740.473333,265.583333 741.206667,266.393333 741.9,267.24 C742.593333,268.086667 743.26,268.963333 743.9,269.87 C744.506667,270.776667 745.066667,271.713333 745.58,272.68 C746.093333,273.646667 746.56,274.646667 746.98,275.68 C747.4,276.686667 747.766667,277.713333 748.08,278.76 C748.393333,279.806667 748.66,280.866667 748.88,281.94 C749.093333,283.013333 749.253333,284.093333 749.36,285.18 C749.466667,286.266667 749.52,287.356667 749.52,288.45 C749.52,289.543333 749.466667,290.633333 749.36,291.72 C749.253333,292.806667 749.093333,293.886667 748.88,294.96 C748.666667,296.033333 748.4,297.093333 748.08,298.14 C747.76,299.186667 747.393333,300.213333 746.98,301.22 C746.56,302.226667 746.093333,303.226667 745.58,304.22 C745.066667,305.213333 744.506667,306.15 743.9,307.03 C743.293333,307.936667 742.626667,308.813333 741.9,309.66 C741.173333,310.506667 740.44,311.316667 739.7,312.09 C738.926667,312.863333 738.116667,313.596667 737.27,314.29 C736.423333,314.983333 735.546667,315.65 734.64,316.29 C733.733333,316.896667 732.796667,317.456667 731.83,317.97 C730.863333,318.483333 729.863333,318.95 728.83,319.37 C727.823333,319.79 726.796667,320.156667 725.75,320.47 C724.703333,320.783333 723.643333,321.05 722.57,321.27 C721.496667,321.483333 720.416667,321.643333 719.33,321.75 C718.243333,321.856667 717.153333,321.91 716.06,321.91 C714.966667,321.91 713.876667,321.856667 712.79,321.75 C711.703333,321.643333 710.623333,321.483333 709.55,321.27 C708.476667,321.056667 707.416667,320.79 706.37,320.47 C705.323333,320.15 704.296667,319.783333 703.29,319.37 C702.283333,318.95 701.283333,318.483333 700.29,317.97 C699.296667,317.456667 698.36,316.896667 697.48,316.29 C696.573333,315.683333 695.696667,315.016667 694.85,314.29 C694.003333,313.563333 693.193333,312.83 692.42,312.09 C691.646667,311.316667 690.913333,310.506667 690.22,309.66 C689.526667,308.813333 688.86,307.936667 688.22,307.03 C687.613333,306.123333 687.053333,305.186667 686.54,304.22 C686.026667,303.253333 685.56,302.253333 685.14,301.22 C684.72,300.213333 684.353333,299.186667 684.04,298.14 C683.726667,297.093333 683.46,296.033333 683.24,294.96 C683.026667,293.886667 682.866667,292.806667 682.76,291.72 C682.653333,290.633333 682.6,289.543333 682.6,288.45 C682.6,287.356667 682.653333,286.266667 682.76,285.18 C682.866667,284.093333 683.026667,283.013333 683.24,281.94 C683.453333,280.866667 683.72,279.806667 684.04,278.76 C684.36,277.713333 684.726667,276.686667 685.14,275.68 C685.56,274.673333 686.026667,273.673333 686.54,272.68 C687.053333,271.686667 687.613333,270.75 688.22,269.87 C688.826667,268.963333 689.493333,268.086667 690.22,267.24 C690.946667,266.393333 691.68,265.583333 692.42,264.81 C693.193333,264.036667 694.003333,263.303333 694.85,262.61 C695.696667,261.916667 696.573333,261.25 697.48,260.61 C698.386667,260.003333 699.323333,259.443333 700.29,258.93 C701.256667,258.416667 702.256667,257.95 703.29,257.53 C704.296667,257.11 705.323333,256.743333 706.37,256.43 C707.416667,256.116667 708.476667,255.85 709.55,255.63 C710.623333,255.416667 711.703333,255.256667 712.79,255.15 C713.876667,255.043333 714.966667,254.99 716.06,254.99 Z" id="Path" fill="#FFB9B9" fill-rule="nonzero"></path>
                <path d="M663.82,340.61 L692.82,334.81 C692.82,334.81 700.08,358.03 723.29,353.67 C746.5,349.31 752.29,334.81 752.29,334.81 C752.29,334.81 769.7,342.07 771.15,342.07 C772.6,342.07 791.47,349.33 791.47,353.68 C791.47,358.03 769.7,401.57 769.7,401.57 L772.6,479.93 L665.22,477.03 L672.48,400.12 L663.82,340.61 Z" id="Path" fill="#8D8D8D" fill-rule="nonzero"></path>
                <path d="M647.86,378.34 C647.86,378.34 639.15,455.25 644.96,461.05 C650.77,466.85 673.96,482.82 673.96,482.82 L673.96,465.41 L662.35,443.64 L673.96,392.85 L647.86,378.34 Z" id="Path" fill="#FFB9B9" fill-rule="nonzero"></path>
                <path d="M798.05,376.16 C798.05,376.16 792.97,455.25 792.97,458.16 C792.97,461.07 779.91,471.24 775.56,471.24 C771.21,471.24 768.3,463.98 768.3,463.98 L778.46,452.37 L771.2,392.87 L798.05,376.16 Z" id="Path" fill="#FFB9B9" fill-rule="nonzero"></path>
                <path d="M784.26,487.17 C784.26,487.17 849.56,450.89 851.01,487.17 C852.46,523.45 817.63,537.96 817.63,537.96 C817.63,537.96 727.63,564.96 724.03,555.08 C720.43,545.2 713.16,529.24 718.97,527.8 C724.78,526.36 732.03,523.45 734.97,526.35 C737.91,529.25 774.15,504.58 774.15,504.58 L784.26,487.17 Z" id="Path" fill="#2F2E41" fill-rule="nonzero"></path>
                <path d="M814.74,482.82 C814.74,482.82 801.68,488.62 797.33,492.98 C792.98,497.34 774.11,504.59 774.11,504.59" id="Path" stroke="#000000" stroke-width="2" opacity="0.2"></path>
                <path d="M672.53,343.51 L663.82,340.61 C663.82,340.61 631.9,373.99 642.05,382.69 C652.2,391.39 658.05,394.3 660.91,397.2 C663.77,400.1 678.32,401.55 678.32,401.55 L672.53,343.51 Z" id="Path" fill="#2F2D41" fill-rule="nonzero"></path>
                <path d="M778.46,350.77 L791.52,353.67 C791.52,353.67 801.68,375.44 804.58,378.34 C807.48,381.24 800.23,379.79 795.87,385.6 C791.51,391.41 787.16,401.6 778.46,401.6 C769.76,401.6 758.16,387.04 758.16,387.04 L778.46,350.77 Z" id="Path" fill="#2F2D41" fill-rule="nonzero"></path>
                <path d="M666.73,500.24 C666.73,500.24 611.59,461.06 592.73,490.08 C573.87,519.1 673.99,558.28 688.5,564.08 C703.01,569.88 716.07,575.69 716.07,575.69 C716.07,575.69 729.16,543.76 729.16,537.96 C729.16,532.16 719,532.16 716.1,532.16 C713.2,532.16 700.1,529.26 697.24,524.9 C694.38,520.54 666.73,500.24 666.73,500.24 Z" id="Path" fill="#2F2E41" fill-rule="nonzero"></path>
                <path d="M636.25,490.07 C636.25,490.07 650.76,501.68 663.82,504.58 C676.88,507.48 681.23,514.74 681.23,514.74" id="Path" stroke="#000000" stroke-width="2" opacity="0.2"></path>
                <path d="M656.72,435.51 L657.88,496.95 C657.95668,501.177564 661.432039,504.550181 665.66,504.500553 L779.99,503.24 C784.032365,503.194038 787.348954,500.026019 787.58,495.99 L791.05,435.83 C791.171092,433.717114 790.416062,431.647718 788.962757,430.109259 C787.509453,428.5708 785.486353,427.7 783.37,427.7 L664.37,427.7 C662.304228,427.7 660.325166,428.530359 658.878621,430.005121 C657.432076,431.479882 656.639705,433.474621 656.68,435.54 L656.72,435.51 Z" id="Path" fill="#575A89" fill-rule="nonzero"></path>
                <path d="M717.85,246.44 C717.85,246.44 719.71,252.64 709.17,258.22 C698.63,263.8 695.53,284.88 707.93,291.07 C720.33,297.26 724.05,305.33 717.85,310.91 C711.65,316.49 700.49,331.37 715.37,335.09 C730.25,338.81 732.11,346.25 727.77,349.35 C723.43,352.45 737.69,343.77 737.69,343.77 C737.69,343.77 740.17,358.65 753.19,354.93 C766.21,351.21 779.19,283.6 764.69,266.19 C751.16,249.99 717.85,246.44 717.85,246.44 Z" id="Path" fill="#2F2E41" fill-rule="nonzero"></path>
                <path d="M713.89,240.06 C713.89,230.98 741.06,237.5 752.71,250.18 C760.78,258.96 773.03,272.18 762.76,281.48 C752.49,290.78 780.36,303 787.83,306.7 C795.3,310.4 810.06,321.7 796.74,329.31 C783.42,336.92 783.63,344.57 788.65,346.38 C793.67,348.19 777.59,343.68 777.59,343.68 C777.59,343.68 779.21,358.68 765.68,358.600319 C752.15,358.52 713.3,284.12 722.58,263.44 C731.16,244.24 713.89,240.06 713.89,240.06 Z" id="Path" fill="#2F2E41" fill-rule="nonzero"></path>
                <path d="M719.77,238.07 C683.44,235.88 679.77,263.23 679.77,263.23 C680.02,279.06 705.16,271.35 712.14,273.71 C720.56,267.65 736.8,256.19 748.41,248.01 C739.985256,242.074735 730.060285,238.630105 719.77,238.07 Z" id="Path" fill="#2F2E41" fill-rule="nonzero"></path>
                <path d="M709.42,412.6 C709.42,412.6 676.83,259.85 472.83,149.05" id="Path" stroke="#FFFFFF" stroke-width="2"></path>
                <polygon id="Path" fill="#3F3D56" fill-rule="nonzero" points="481.24 145.71 481.64 147.39 473.39 149.39 475.99 157.47 474.35 158 471.19 148.15"></polygon>
                <path d="M11.21,591.81 L20.61,578.68 L11.16,593.24 L11.16,594.75 C10.5,594.75 9.85,594.75 9.16,594.66 L10.16,575.3 L10.16,575.15 L10.16,575.15 L10.26,573.32 L0.82,558.71 L10.29,571.94 L10.29,572.33 L11.06,557.71 L2.98,542.62 L11.16,555.15 L11.96,524.83 L11.96,524.83 L11.83,548.74 L19.83,539.26 L11.75,550.8 L11.54,563.89 L19.16,551.31 L11.61,565.8 L11.49,573.08 L22.4,555.59 L11.45,575.59 L11.21,591.81 Z" id="Path" fill="#FFFFFF" fill-rule="nonzero"></path>
                <path d="M160.36,563.66 L165.85,559.58 C165.85,559.58 169.49,579.9 165.43,582.94 C161.37,585.98 146.15,591.06 146.15,597.15 C146.15,603.24 111.65,611.36 110.64,602.22 C109.63,593.08 113.64,588.01 113.64,588.01 C113.64,588.01 129.88,571.77 131.9,568.73 C133.92,565.69 139,559.6 139,559.6 L160.36,563.66 Z" id="Path" fill="#2F2E41" fill-rule="nonzero"></path>
                <path d="M79.16,311 C79.16,311 79.31,311.89 79.58,313.53 C79.82,314.98 80.16,317.03 80.58,319.53 C84.84,345.53 97.27,422.1 96.43,424.62 C95.43,427.62 88.31,438.83 96.43,441.87 C97.532037,442.509711 98.4141837,443.468566 98.96,444.62 C100.702368,447.85569 102.138609,451.247095 103.25,454.75 C108.09,468.75 113.25,491.27 116.25,506.83 C117.56,513.67 118.45,519.17 118.72,522.05 C118.800909,522.714212 118.800909,523.385788 118.72,524.05 C117.72,528.11 124.81,542.31 127.85,546.37 C130.89,550.43 135.97,554.49 134.95,558.55 C133.93,562.61 160.32,573.77 163.36,566.67 C166.4,559.57 166.36,555.51 167.42,553.48 C168.48,551.45 169.42,537.25 164.42,535.22 C159.42,533.19 162.42,497.68 157.32,490.57 C155.63,488.21 153.04,480.2 150.32,470.57 C149.25,466.8 148.18,462.78 147.12,458.75 C142.84,442.24 139.04,425.63 139.04,425.63 L140.04,306.91 L84.23,299.81 L82.8,302.97 L79.95,309.23 L79.16,311 Z" id="Path" fill="#2F2E41" fill-rule="nonzero"></path>
                <path d="M76.16,505.82 C76.16,505.82 68.04,497.7 63.98,505.82 C59.92,513.94 55.86,545.39 48.76,552.5 C41.66,559.61 32.52,595.12 42.67,597.15 C52.82,599.18 63.98,594.15 64.99,588.02 C66,581.89 87.31,550.48 87.31,547.43 C87.31,544.38 73.1,533.24 73.1,533.24 L76.16,505.82 Z" id="Path" fill="#2F2E41" fill-rule="nonzero"></path>
                <path d="M200.95,255.24 C200.95,255.24 187.76,373.96 184.71,385.12 C181.66,396.28 165.43,438.9 160.36,446 C155.29,453.1 122.82,510.94 118.76,514 C114.7,517.06 106.58,525.16 106.58,525.16 C106.58,525.16 91.36,540.38 89.33,543.42 C87.3,546.46 70.05,537.33 69.04,531.24 C68.03,525.15 70.04,515 71.04,510.95 C72.04,506.9 69.04,500.8 72.04,497.76 C75.04,494.72 90.3,479.5 90.3,472.39 C90.3,465.28 116.68,423.68 126.83,414.55 C136.98,405.42 134.95,390.2 134.95,390.2 L134.95,328.24 L79.16,311 C79.16,311 82.16,262.29 89.31,262.29 C96.46,262.29 189.79,246.06 200.95,255.24 Z" id="Path" fill="#2F2E41" fill-rule="nonzero"></path>
                <path d="M118.76,18.76 C119.86,18.76 120.953333,18.8133333 122.04,18.92 C123.126667,19.0266667 124.21,19.1866667 125.29,19.4 C126.363333,19.6133333 127.426667,19.88 128.48,20.2 C129.533333,20.52 130.563333,20.89 131.57,21.31 C132.583333,21.73 133.583333,22.1966667 134.57,22.71 C135.556667,23.2233333 136.496667,23.7866667 137.39,24.4 C138.303333,25.0066667 139.183333,25.6733333 140.03,26.4 C140.876667,27.1266667 141.686667,27.8633333 142.46,28.61 C143.233333,29.3833333 143.97,30.1966667 144.67,31.05 C145.37,31.9033333 146.036667,32.7833333 146.67,33.69 C147.276667,34.6033333 147.84,35.5433333 148.36,36.51 C148.88,37.4766667 149.346667,38.4766667 149.76,39.51 C150.18,40.5233333 150.55,41.5533333 150.87,42.6 C151.19,43.6466667 151.456667,44.71 151.67,45.79 C151.883333,46.8633333 152.043333,47.9466667 152.15,49.04 C152.256667,50.1333333 152.31,51.2266667 152.31,52.32 C152.31,53.42 152.256667,54.5133333 152.15,55.6 C152.043333,56.6866667 151.883333,57.77 151.67,58.85 C151.456667,59.9233333 151.19,60.9866667 150.87,62.04 C150.55,63.0933333 150.18,64.1233333 149.76,65.13 C149.34,66.1433333 148.873333,67.1433333 148.36,68.13 C147.846667,69.1166667 147.283333,70.0566667 146.67,70.95 C146.063333,71.8633333 145.396667,72.7433333 144.67,73.59 C143.943333,74.4366667 143.206667,75.2466667 142.46,76.02 C141.686667,76.7933333 140.876667,77.53 140.03,78.23 C139.183333,78.93 138.303333,79.5966667 137.39,80.23 C136.476667,80.8366667 135.536667,81.4 134.57,81.92 C133.603333,82.44 132.603333,82.91 131.57,83.33 C130.556667,83.75 129.526667,84.12 128.48,84.44 C127.433333,84.76 126.37,85.0266667 125.29,85.24 C124.216667,85.4533333 123.133333,85.6133333 122.04,85.72 C120.946667,85.8266667 119.853333,85.88 118.76,85.88 C117.66,85.88 116.566667,85.8266667 115.48,85.72 C114.393333,85.6133333 113.31,85.4533333 112.23,85.24 C111.156667,85.0266667 110.093333,84.76 109.04,84.44 C107.986667,84.12 106.956667,83.75 105.95,83.33 C104.936667,82.91 103.936667,82.44 102.95,81.92 C101.963333,81.4 101.023333,80.8366667 100.13,80.23 C99.2166667,79.6233333 98.3366667,78.9566667 97.49,78.23 C96.6433333,77.5033333 95.8333333,76.7666667 95.06,76.02 C94.2866667,75.2466667 93.55,74.4366667 92.85,73.59 C92.15,72.7433333 91.4833333,71.8633333 90.85,70.95 C90.2433333,70.0366667 89.68,69.0966667 89.16,68.13 C88.64,67.1633333 88.1733333,66.1633333 87.76,65.13 C87.34,64.1166667 86.97,63.0866667 86.65,62.04 C86.33,60.9933333 86.0633333,59.93 85.85,58.85 C85.6366667,57.7766667 85.4766667,56.6933333 85.37,55.6 C85.2633333,54.5066667 85.21,53.4133333 85.21,52.32 C85.21,51.22 85.2633333,50.1266667 85.37,49.04 C85.4766667,47.9533333 85.6366667,46.87 85.85,45.79 C86.0633333,44.7166667 86.33,43.6533333 86.65,42.6 C86.97,41.5466667 87.34,40.5166667 87.76,39.51 C88.18,38.4966667 88.6466667,37.4966667 89.16,36.51 C89.6733333,35.5233333 90.2366667,34.5833333 90.85,33.69 C91.4566667,32.7766667 92.1233333,31.8966667 92.85,31.05 C93.5766667,30.2033333 94.3133333,29.39 95.06,28.61 C95.8333333,27.8366667 96.6433333,27.1 97.49,26.4 C98.3366667,25.7 99.2166667,25.0333333 100.13,24.4 C101.043333,23.7933333 101.983333,23.23 102.95,22.71 C103.916667,22.19 104.916667,21.7233333 105.95,21.31 C106.963333,20.89 107.993333,20.52 109.04,20.2 C110.086667,19.88 111.15,19.6133333 112.23,19.4 C113.303333,19.1866667 114.386667,19.0266667 115.48,18.92 C116.573333,18.8133333 117.666667,18.76 118.76,18.76 Z" id="Path" fill="#9F616A" fill-rule="nonzero"></path>
                <path d="M129.92,78.63 C129.92,78.63 133.98,93.85 139.05,97.91 C144.12,101.97 125.86,119.24 125.86,119.24 L91.36,121.24 L85.27,101.96 C85.27,101.96 96.43,79.64 93.39,65.43 C90.35,51.22 129.92,78.63 129.92,78.63 Z" id="Path" fill="#9F616A" fill-rule="nonzero"></path>
                <path d="M144.16,95.88 C144.16,95.88 135.03,96.88 133,99.94 C130.97,103 116.76,112.12 105.6,110.09 C94.44,108.06 87.34,105.02 85.31,106.03 C83.28,107.04 79.22,128.35 79.22,128.35 L90.38,160.82 L88.38,250.11 L85.38,274.46 C85.38,274.46 79.29,266.34 103.64,271.46 C127.99,276.58 159.45,267.4 169.64,266.39 C179.83,265.38 197.04,262.33 198.05,256.24 C199.06,250.15 195.05,227.83 195.05,227.83 L178.81,159.83 L168.48,123.24 L144.16,95.88 Z" id="Path" fill="#2F2D41" fill-rule="nonzero"></path>
                <path d="M134.53,91.3 C134.53,91.3 143.11,86.75 146.16,90.81 C149.21,94.87 187.76,100.96 187.76,104 C187.76,107.04 195.88,189.23 193.85,196.34 C191.82,203.45 197.91,211.56 197.91,211.56 L205.01,242 C205.01,242 224.29,299.84 216.17,301.87 C208.05,303.9 200.95,301.87 197.91,301.87 C194.87,301.87 195.91,263.31 187.76,253.16 C179.61,243.01 168.48,217.65 166.45,212.57 C164.42,207.49 139.05,137.48 140.07,129.36 C141.09,121.24 134.53,91.3 134.53,91.3 Z" id="Path" fill="#D0CDE1" fill-rule="nonzero"></path>
                <path d="M92.38,95.88 C92.38,95.88 84.26,95.88 83.25,97.88 C82.24,99.88 72.09,113.1 68.03,116.14 C63.97,119.18 49.77,132.38 49.77,135.42 C49.77,138.46 79.16,160.82 79.16,160.82 C79.16,160.82 91.34,220.69 85.25,240.98 C79.16,261.27 70.03,309.98 74.09,312.98 C78.15,315.98 87.28,317.04 87.28,312.98 C87.28,308.92 93.37,265.29 98.44,256.16 C103.51,247.03 118.73,189.16 112.65,172.95 C106.57,156.74 92.38,95.88 92.38,95.88 Z" id="Path" fill="#D0CDE1" fill-rule="nonzero"></path>
                <path d="M226.32,196.34 C226.32,196.34 227.32,227.8 216.17,244.03 C208.9321,254.882787 202.814099,266.44199 197.91,278.53 C197.91,278.53 179.65,273.46 176.6,267.37 C173.55,261.28 154.28,266.37 154.28,264.37 C154.28,262.37 177.62,252.19 179.65,250.16 C181.68,248.13 188.78,248.16 192.84,244.07 C196.9,239.98 197.91,230.88 197.91,230.88 L201.97,204.5 L226.32,196.34 Z" id="Path" fill="#9F616A" fill-rule="nonzero"></path>
                <path d="M141.82,31.6 C144.4,31.37 147.05,31.11 149.33,29.88 C154.43,27.13 155.78,19.29 151.9,14.99 C150.828404,13.8947273 149.62993,12.9312484 148.33,12.12 L140.62,6.87 C137.21,4.55 133.72,2.19 129.74,1.09 C126.094826,0.260150981 122.337744,0.0371587261 118.62,0.43 C111.39,0.88 104.11,1.81 97.31,4.31 C90.51,6.81 84.16,10.98 80.04,16.94 C73.51,26.39 73.42,39.13 77.04,50.04 C80.66,60.95 87.47,70.45 94.2,79.75 L97.69,62.75 C98,61.23 98.4,59.57 99.69,58.67 C102.83,56.44 106.69,61.02 110.52,60.99 C112.99,60.99 115.07,58.94 116.01,56.65 C116.95,54.36 117.01,51.82 117.23,49.36 C117.69,44.14 119.51,36.87 124.46,33.99 C129.02,31.24 136.64,32.07 141.82,31.6 Z" id="Path" fill="#2F2E41" fill-rule="nonzero"></path>
                <path d="M139.94,311.82 C139.94,311.82 136.51,410.95 134.48,413.99 C132.45,417.03 134.48,311.51 134.48,311.51 L139.94,311.82 Z" id="Path" fill="#000000" fill-rule="nonzero" opacity="0.1"></path>
                <path d="M179.64,104 L187.76,104 C187.76,104 222.26,150.68 218.2,153.72 C214.14,156.76 218.2,164.88 218.2,164.88 L226.32,180.1 C226.32,180.1 236.47,189.23 233.42,191.26 C230.37,193.29 226.32,201.41 226.32,201.41 C226.32,201.41 206.03,198.41 199.94,210.54 L186.78,193.93 L179.64,104 Z" id="Path" fill="#D0CDE1" fill-rule="nonzero"></path>
                <rect id="Rectangle" fill="#2F2E41" fill-rule="nonzero" transform="translate(179.304900, 150.676763) rotate(-22.440000) translate(-179.304900, -150.676763) " x="164.2349" y="122.596763" width="30.14" height="56.16"></rect>
                <path d="M175.02,139.24 C175.385302,139.089385 175.76352,138.972238 176.15,138.89 C176.534865,138.807453 176.926525,138.760588 177.32,138.75 C177.70832,138.740211 178.0967,138.766995 178.48,138.83 C178.858503,138.890564 179.230242,138.987685 179.59,139.12 C179.938707,139.249885 180.273679,139.414021 180.59,139.61 C180.905532,139.802567 181.200417,140.027082 181.47,140.28 C181.735148,140.530975 181.973127,140.809176 182.18,141.11 C182.593096,141.710419 182.872709,142.392401 183,143.11 C183.064881,143.469514 183.091696,143.834865 183.08,144.2 C183.067995,144.570852 183.017729,144.939474 182.93,145.3 C182.842229,145.66476 182.718282,146.019852 182.56,146.36 C182.399697,146.711428 182.20544,147.046352 181.98,147.36 C181.751176,147.673499 181.493374,147.964782 181.21,148.23 C180.925962,148.497588 180.618008,148.738595 180.29,148.95 C179.626714,149.378129 178.891596,149.683017 178.12,149.85 C177.735135,149.932547 177.343475,149.979412 176.95,149.99 C176.56168,149.999789 176.1733,149.973005 175.79,149.91 C175.411497,149.849436 175.039758,149.752315 174.68,149.62 C174.331396,149.489875 173.996447,149.325751 173.68,149.13 C173.364587,148.937259 173.069719,148.712757 172.8,148.46 C172.53496,148.208923 172.296991,147.930734 172.09,147.63 C171.676904,147.029581 171.397291,146.347599 171.27,145.63 C171.205045,145.270495 171.17823,144.905136 171.19,144.54 C171.201934,144.169142 171.252201,143.800513 171.34,143.44 C171.427962,143.075296 171.551902,142.720222 171.71,142.38 C171.870696,142.028775 172.064931,141.693888 172.29,141.38 C172.518824,141.066501 172.776626,140.775218 173.06,140.51 C173.344038,140.242412 173.651992,140.001405 173.98,139.79 C174.309328,139.575606 174.657421,139.391519 175.02,139.24 L175.02,139.24 Z" id="Path" fill="#2F2D41" fill-rule="nonzero"></path>
                <path d="M159.35,185.18 C159.35,185.18 86.29,246.06 74.12,226.78 C61.95,207.5 87.3,191.24 87.3,191.24 C87.3,191.24 109.62,192.24 134.99,176.02 L160.36,164.86 C160.36,164.86 183.52,131.8 191.41,144.39 C199.3,156.98 177.94,178.91 159.35,185.18 Z" id="Path" fill="#9F616A" fill-rule="nonzero"></path>
                <path d="M60.92,131.4 L49.76,135.46 L49.76,165.9 L45.7,171.99 C45.7,171.99 46.7,184.17 49.76,187.21 C52.82,190.25 58.89,189.21 56.86,196.34 C55.6447182,200.973072 55.3055685,205.792388 55.86,210.55 C55.86,210.55 74.16,233.88 75.16,230.84 C76.16,227.8 90.35,190.24 92.38,190.24 C94.41,190.24 72.09,131.39 72.09,131.39 L60.92,131.4 Z" id="Path" fill="#D0CDE1" fill-rule="nonzero"></path>
                <path d="M194.35,285.12 C194.35,285.12 204.84,274.97 199.6,274.47 C194.36,273.97 176.09,263.82 173.05,268.89 C170.01,273.96 194.35,285.12 194.35,285.12 Z" id="Path" fill="#2F2E41" fill-rule="nonzero"></path>
                <path d="M393.66,76.239948 C394.605109,76.2381643 395.549687,76.2848925 396.49,76.38 C397.403778,76.4740234 398.31178,76.6175678 399.21,76.81 C400.05994,76.9886603 400.898169,77.2190897 401.72,77.5 C402.474812,77.7565111 403.210067,78.0673233 403.92,78.43 C404.553177,78.7548955 405.155636,79.1364531 405.72,79.57 C406.216481,79.948845 406.666287,80.3852249 407.06,80.87 C407.407983,81.2942046 407.687985,81.7698712 407.89,82.28 C408.260579,83.2215143 408.260579,84.2684857 407.89,85.21 C407.687985,85.7201288 407.407983,86.1957954 407.06,86.62 C406.666287,87.1047751 406.216481,87.541155 405.72,87.92 C405.155636,88.3535469 404.553177,88.7351045 403.92,89.06 C403.210067,89.4226767 402.474812,89.7334889 401.72,89.99 C400.898169,90.2709103 400.05994,90.5013397 399.21,90.68 C398.31178,90.8724322 397.403778,91.0159766 396.49,91.11 C394.608229,91.3022126 392.711771,91.3022126 390.83,91.11 C389.916222,91.0159766 389.00822,90.8724322 388.11,90.68 C387.26006,90.5013397 386.421831,90.2709103 385.6,89.99 C384.845188,89.7334889 384.109933,89.4226767 383.4,89.06 C382.766823,88.7351045 382.164364,88.3535469 381.6,87.92 C381.103519,87.541155 380.653713,87.1047751 380.26,86.62 C379.912017,86.1957954 379.632015,85.7201288 379.43,85.21 C379.059421,84.2684857 379.059421,83.2215143 379.43,82.28 C379.632015,81.7698712 379.912017,81.2942046 380.26,80.87 C380.653713,80.3852249 381.103519,79.948845 381.6,79.57 C382.164364,79.1364531 382.766823,78.7548955 383.4,78.43 C384.109933,78.0673233 384.845188,77.7565111 385.6,77.5 C386.421831,77.2190897 387.26006,76.9886603 388.11,76.81 C389.00822,76.6175678 389.916222,76.4740234 390.83,76.38 C391.770313,76.2848925 392.714891,76.2381643 393.66,76.239948 L393.66,76.239948 Z" id="Path" fill="#5CB892" fill-rule="nonzero"></path>
                <path d="M449.87,109.64 C416.863333,97.1733333 383.863333,97.1733333 350.87,109.64 L350.87,69.17 C383.151455,59.4310108 417.588545,59.4310108 449.87,69.17 L449.87,109.64 Z" id="Path" stroke="#FFFFFF" stroke-width="2"></path>
                <path d="M436.09,101.24 C412.27,92.24 388.446667,92.24 364.62,101.24 L364.62,72.06 C387.924317,65.0273065 412.785683,65.0273065 436.09,72.06 L436.09,101.24 Z" id="Path" stroke="#FFFFFF" stroke-width="2"></path>
                <path d="M399.16,72.2399535 C400.138631,72.2382069 401.116669,72.2882771 402.09,72.39 C403.034506,72.4908568 403.972636,72.6444296 404.9,72.85 C405.777831,73.0427688 406.642832,73.2899119 407.49,73.59 C408.270234,73.8670427 409.028961,74.2012836 409.76,74.59 C410.419237,74.9349337 411.045227,75.3399855 411.63,75.8 C412.146364,76.2033133 412.612969,76.6665616 413.02,77.18 C413.377879,77.6339227 413.664502,78.1397277 413.87,78.68 C414.253906,79.6845712 414.253906,80.7954288 413.87,81.8 C413.664361,82.3402059 413.37775,82.8459904 413.02,83.3 C412.612969,83.8134384 412.146364,84.2766867 411.63,84.68 C411.045095,85.1398296 410.419123,85.5448701 409.76,85.89 C409.028961,86.2787164 408.270234,86.6129573 407.49,86.89 C406.642832,87.1900881 405.777831,87.4372312 404.9,87.63 C403.972589,87.8353258 403.034473,87.9888964 402.09,88.09 C400.145384,88.2949265 398.184616,88.2949265 396.24,88.09 C395.295527,87.9888964 394.357411,87.8353258 393.43,87.63 C392.552169,87.4372312 391.687168,87.1900881 390.84,86.89 C390.059766,86.6129573 389.301039,86.2787164 388.57,85.89 C387.910877,85.5448701 387.284905,85.1398296 386.7,84.68 C386.183636,84.2766867 385.717031,83.8134384 385.31,83.3 C384.95225,82.8459904 384.665639,82.3402059 384.46,81.8 C384.076094,80.7954288 384.076094,79.6845712 384.46,78.68 C384.665498,78.1397277 384.952121,77.6339227 385.31,77.18 C385.717031,76.6665616 386.183636,76.2033133 386.7,75.8 C387.284773,75.3399855 387.910763,74.9349337 388.57,74.59 C389.301039,74.2012836 390.059766,73.8670427 390.84,73.59 C391.687168,73.2899119 392.552169,73.0427688 393.43,72.85 C394.357364,72.6444296 395.295494,72.4908568 396.24,72.39 C397.210014,72.2886294 398.184705,72.2385596 399.16,72.2399535 Z" id="Path" stroke="#FFFFFF" stroke-width="2"></path>
                <path d="M401.56,124.91 C402.495139,124.717131 403.439778,124.573599 404.39,124.48 C405.313729,124.388544 406.241826,124.348482 407.17,124.36 C408.04663,124.372402 408.921645,124.439197 409.79,124.56 C410.591207,124.668235 411.383352,124.835354 412.16,125.06 C412.84934,125.26186 413.51879,125.526293 414.16,125.85 C414.727429,126.119742 415.261106,126.455388 415.75,126.85 C416.182312,127.210709 416.556674,127.635661 416.86,128.11 C417.430056,128.999002 417.644281,130.07013 417.46,131.11 C417.365445,131.663925 417.186711,132.200127 416.93,132.7 C416.640205,133.266622 416.284399,133.796974 415.87,134.28 C415.40055,134.82963 414.881713,135.335077 414.32,135.79 C413.688553,136.302059 413.020059,136.766663 412.32,137.18 C411.565825,137.631429 410.784318,138.035542 409.98,138.39 C409.132513,138.771206 408.26451,139.105053 407.38,139.39 C405.558027,139.963595 403.681214,140.34566 401.78,140.53 C400.856271,140.621456 399.928174,140.661518 399,140.65 C398.123382,140.637342 397.248382,140.570548 396.38,140.45 C395.578836,140.341515 394.78671,140.1744 394.01,139.95 C393.320822,139.747668 392.651414,139.483252 392.01,139.16 C391.442838,138.889773 390.909216,138.554162 390.42,138.16 C389.987578,137.799405 389.613199,137.374435 389.31,136.9 C388.739944,136.010998 388.525719,134.93987 388.71,133.9 C388.804555,133.346075 388.983289,132.809873 389.24,132.31 C389.529795,131.743378 389.885601,131.213026 390.3,130.73 C390.769695,130.1806 391.28851,129.675174 391.85,129.22 C392.481557,128.708087 393.15004,128.243491 393.85,127.83 C394.604175,127.378571 395.385682,126.974458 396.19,126.62 C397.037407,126.238603 397.905421,125.904752 398.79,125.62 C399.700316,125.335176 400.624914,125.098185 401.56,124.91 L401.56,124.91 Z" id="Path" fill="#5CB892" fill-rule="nonzero"></path>
                <path d="M463.16,146.62 C428.326667,141.006667 395.993333,147.606667 366.16,166.42 L358.07,126.77 C387.7515,110.771447 421.492896,103.884028 455.07,106.97 L463.16,146.62 Z" id="Path" stroke="#FFFFFF" stroke-width="2"></path>
                <path d="M447.94,141.17 C422.8,137.116667 399.466667,141.88 377.94,155.46 L372.1,126.84 C393.519778,115.294963 417.869012,110.324241 442.1,112.55 L447.94,141.17 Z" id="Path" stroke="#FFFFFF" stroke-width="2"></path>
                <path d="M405.93,120.5 C406.865315,120.310469 407.809954,120.170275 408.76,120.08 C409.683729,119.988544 410.611826,119.948482 411.54,119.96 C412.416618,119.972658 413.291618,120.039452 414.16,120.16 C414.961201,120.268271 415.753343,120.43539 416.53,120.66 C417.219178,120.862332 417.888586,121.126748 418.53,121.45 C419.097118,121.720307 419.630731,122.055913 420.12,122.45 C420.552091,122.810936 420.926421,123.235851 421.23,123.71 C421.800056,124.599002 422.014281,125.67013 421.83,126.71 C421.735598,127.263964 421.556857,127.800188 421.3,128.3 C421.010776,128.866958 420.654927,129.397374 420.24,129.88 C419.770509,130.429591 419.251676,130.935035 418.69,131.39 C418.058553,131.902059 417.390059,132.366663 416.69,132.78 C415.935825,133.231429 415.154318,133.635542 414.35,133.99 C413.502529,134.371244 412.634524,134.705092 411.75,134.99 C409.928173,135.56416 408.051301,135.946238 406.15,136.13 C405.226271,136.221456 404.298174,136.261518 403.37,136.25 C402.49337,136.237598 401.618355,136.170803 400.75,136.05 C399.948793,135.941765 399.156648,135.774646 398.38,135.55 C397.690822,135.347668 397.021414,135.083252 396.38,134.76 C395.812838,134.489773 395.279216,134.154162 394.79,133.76 C394.357799,133.399177 393.983453,132.974244 393.68,132.5 C393.109944,131.610998 392.895719,130.53987 393.08,129.5 C393.174402,128.946036 393.353143,128.409812 393.61,127.91 C393.899224,127.343042 394.255073,126.812626 394.67,126.33 C395.139491,125.780409 395.658324,125.274965 396.22,124.82 C396.851469,124.30797 397.519961,123.843368 398.22,123.43 C398.974175,122.978571 399.755682,122.574458 400.56,122.22 C401.407471,121.838756 402.275476,121.504908 403.16,121.22 C404.070053,120.931537 404.994667,120.691204 405.93,120.5 L405.93,120.5 Z" id="Path" stroke="#FFFFFF" stroke-width="2"></path>
                <path d="M385.48,179.65 C385.518611,179.1338 385.65076,178.628922 385.87,178.16 C386.107331,177.651968 386.420956,177.183217 386.8,176.77 C387.229029,176.300923 387.712439,175.884653 388.24,175.53 C388.841768,175.139859 389.477711,174.805152 390.14,174.53 C390.879179,174.204631 391.641222,173.933905 392.42,173.72 C393.264702,173.487138 394.123011,173.306793 394.99,173.18 C395.908018,173.045657 396.832763,172.962197 397.76,172.93 C399.668738,172.864897 401.579062,172.998955 403.46,173.33 C404.374286,173.489734 405.279009,173.700057 406.17,173.96 C407.010922,174.205376 407.835836,174.502611 408.64,174.85 C409.383129,175.170175 410.10173,175.544516 410.79,175.97 C411.405046,176.349754 411.984119,176.784895 412.52,177.27 C412.995078,177.695157 413.418034,178.175178 413.78,178.7 C414.098962,179.163133 414.345147,179.672364 414.51,180.21 C414.811735,181.20175 414.73696,182.269959 414.3,183.21 C414.062669,183.718032 413.749044,184.186783 413.37,184.6 C412.940511,185.068603 412.45716,185.484821 411.93,185.84 C411.328121,186.229952 410.692195,186.564649 410.03,186.84 C409.290834,187.165402 408.528788,187.436129 407.75,187.65 C406.905238,187.882615 406.046945,188.062957 405.18,188.19 C404.262021,188.324669 403.337257,188.408132 402.41,188.44 C400.501251,188.505759 398.590858,188.371697 396.71,188.04 C395.795672,187.880468 394.890938,187.670142 394,187.41 C393.159078,187.164624 392.334164,186.867389 391.53,186.52 C390.786762,186.200054 390.068145,185.825705 389.38,185.4 C388.764954,185.020246 388.185881,184.585105 387.65,184.1 C387.174517,183.675245 386.751516,183.195173 386.39,182.67 C386.070902,182.206946 385.824706,181.697693 385.66,181.16 C385.510134,180.671491 385.449168,180.160049 385.48,179.65 Z" id="Path" fill="#5CB892" fill-rule="nonzero"></path>
                <path d="M454.16,210.32 C422.1,195.593333 389.173333,193.303333 355.38,203.45 L358.19,163.08 C391.075397,155.600863 425.436522,157.990627 456.97,169.95 L454.16,210.32 Z" id="Path" stroke="#FFFFFF" stroke-width="2"></path>
                <path d="M440.95,201.01 C417.81,190.383333 394.046667,188.716667 369.66,196.01 L371.66,166.87 C395.397666,161.48588 420.19627,163.225157 442.95,171.87 L440.95,201.01 Z" id="Path" stroke="#FFFFFF" stroke-width="2"></path>
                <path d="M390.87,176.57 C390.908611,176.0538 391.04076,175.548922 391.26,175.08 C391.497331,174.571968 391.810956,174.103217 392.19,173.69 C392.619489,173.221397 393.10284,172.805179 393.63,172.45 C394.231768,172.059859 394.867711,171.725152 395.53,171.45 C396.269099,171.12443 397.031157,170.853699 397.81,170.64 C398.654702,170.407138 399.513011,170.226793 400.38,170.1 C401.297979,169.965331 402.222743,169.881868 403.15,169.85 C405.058738,169.784897 406.969062,169.918955 408.85,170.25 C409.764286,170.409734 410.669009,170.620057 411.56,170.88 C412.400994,171.125155 413.225921,171.422396 414.03,171.77 C414.773238,172.089946 415.491855,172.464295 416.18,172.89 C416.795046,173.269754 417.374119,173.704895 417.91,174.19 C418.385011,174.615223 418.80796,175.095236 419.17,175.62 C419.488962,176.083133 419.735147,176.592364 419.9,177.13 C420.202689,178.121642 420.12789,179.190199 419.69,180.13 C419.452532,180.637955 419.13892,181.106686 418.76,181.52 C418.330641,181.988738 417.847274,182.40497 417.32,182.76 C416.718232,183.150141 416.082289,183.484848 415.42,183.76 C414.680901,184.08557 413.918843,184.356301 413.14,184.57 C412.295352,184.803087 411.43703,184.983435 410.57,185.11 C409.652021,185.244669 408.727257,185.328132 407.8,185.36 C405.891262,185.425103 403.980938,185.291045 402.1,184.96 C401.185714,184.800266 400.280991,184.589943 399.39,184.33 C398.549149,184.084406 397.724249,183.787175 396.92,183.44 C396.176871,183.119825 395.45827,182.745484 394.77,182.32 C394.154732,181.94057 393.575631,181.505408 393.04,181.02 C392.564517,180.595245 392.141516,180.115173 391.78,179.59 C391.460902,179.126946 391.214706,178.617693 391.05,178.08 C390.900134,177.591491 390.839168,177.080049 390.87,176.57 L390.87,176.57 Z" id="Path" stroke="#FFFFFF" stroke-width="2"></path>
                <path d="M336.16,110.58 C336.16,110.58 272.88,101.92 227.68,128.41" id="Path" stroke="#FFFFFF" stroke-width="2"></path>
                <polygon id="Path" fill="#3F3D56" fill-rule="nonzero" points="229.19 119.51 230.83 120.03 228.26 128.12 236.52 130.09 236.12 131.77 226.06 129.37"></polygon>
                <path d="M327.98,289.34 C327.862739,288.426781 327.62744,287.532645 327.28,286.68 C327.189708,286.356103 326.96871,286.084384 326.67,285.93 C326.469736,285.880037 326.260264,285.880037 326.06,285.93 L322.94,286.41 C322.679168,286.423579 322.429889,286.521887 322.23,286.69 C321.82,287.12 322.23,287.81 322.23,288.4 C322.152765,289.077148 321.655061,289.631044 320.99,289.78 C320.331088,289.9238 319.648912,289.9238 318.99,289.78 L314.63,289.1 C315.914269,288.690069 317.057653,287.927813 317.93,286.9 C318.5,286.22 318.81,284.9 317.93,284.63 C317.682857,284.561455 317.424837,284.541085 317.17,284.57 C315.17,284.57 313.64,282.93 311.79,282.24 C309.358836,281.402011 306.663986,282.206444 305.09,284.24 L307.41,284.35 C307.629745,284.33688 307.847678,284.396636 308.03,284.52 C308.54,284.94 307.91,285.74 307.98,286.4 C308.07,287.25 309.2,287.4 310.06,287.52 C310.92,287.64 311.99,288.3 311.58,289.05 C307.3,290.53 302.94,286.17 298.44,286.7 C297.312665,286.914777 296.200357,287.20204 295.11,287.56 C288.32,289.28 281.3,284.69 274.36,285.66 C272.817659,285.921362 271.301667,286.319602 269.83,286.85 C268.862184,287.0839 267.966192,287.550777 267.22,288.21 C266.472946,288.915418 266.346015,290.0578 266.92,290.91 C265.127152,291.056728 263.322492,290.88405 261.59,290.4 C262.539713,290.933821 263.125379,291.940555 263.12,293.03 C260.32141,293.48619 257.596952,294.316982 255.02,295.5 C255.50219,296.298881 256.065142,297.046134 256.7,297.73 L253.16,300 C253.764709,300.177332 254.250473,300.629298 254.470879,301.219672 C254.691286,301.810045 254.620553,302.46977 254.28,303 C255.52,302.45 256.28,301 257.62,300.73 C258.51062,300.635624 259.409114,300.809751 260.2,301.23 C260.989878,301.65156 261.898351,301.795929 262.78,301.64 C263.63,301.39 264.26,300.28 263.72,299.58 C267.369051,298.516009 271.140252,297.927809 274.94,297.83 C275.233099,297.792969 275.530425,297.848936 275.79,297.99 C276.28,298.33 276.15,299.07 276.13,299.68 C276.11,300.29 276.57,301.07 277.13,300.8 C276.5,301.35 277.04,302.38 277.64,302.96 C278.24,303.54 278.98,304.33 278.64,305.08 C278.54,305.28 278.38,305.43 278.29,305.63 C278.01,306.21 278.45,306.89 278.97,307.28 C279.532577,307.590672 280.039507,307.992836 280.47,308.47 C280.83,309.01 280.67,309.94 280.03,310.02 L278.21,307.71 C277.588046,308.354821 277.161569,309.162701 276.98,310.04 C278.922173,311.758179 279.185444,314.693649 277.58,316.73 C276.671167,317.614542 275.664702,318.392874 274.58,319.05 C273.462824,319.715988 272.722492,320.867206 272.58,322.16 C272.58,324.36 272.4,326.4 273.23,328.45 C274.750581,332.223494 276.507394,335.897438 278.49,339.45 C279.01,340.38 279.68,341.4 280.74,341.56 C279.406667,338.32 278.206667,335.03 277.14,331.69 C277.835268,331.590182 278.537425,331.819307 279.04,332.31 C279.282712,332.829798 279.408987,333.396329 279.41,333.97 C279.544634,334.515861 279.767572,335.036051 280.07,335.51 L286.43,346.83 C286.85195,347.831076 287.608341,348.654623 288.57,349.16 C289.251192,349.2857 289.92032,349.469711 290.57,349.71 C291.03,349.98 291.35,350.47 291.82,350.71 C293.16,351.44 295.02,350.04 296.27,350.91 C296.592638,351.203782 296.899723,351.514205 297.19,351.84 C298.35,352.84 300.24,352.17 301.58,352.92 C302.376442,353.509127 302.987248,354.314281 303.34,355.24 C304.49,357.42 306.34,359.57 308.81,359.74 C309.584243,359.7078 310.359814,359.734543 311.13,359.82 C311.89,359.99 312.63,360.65 312.51,361.42 C312.3,362.73 312.95,364.17 312.78,365.49 C312.46,367.89 309.06,368.95 308.78,371.35 C308.780626,371.877965 308.750576,372.405521 308.69,372.93 C308.54,373.56 308.06,374.08 307.89,374.7 C307.57,375.89 308.42,377.07 309.36,377.87 C310.391129,378.545741 311.264328,379.435995 311.92,380.48 C312.46,381.66 312.2,383.04 312.37,384.33 C312.75,387.15 315.19,389.23 317.69,390.58 C318.489162,390.918187 319.198071,391.438739 319.76,392.1 C320.4,393.03 320.34,394.25 320.56,395.36 C321.09,398.08 323.37,400.36 323.44,403.08 C323.44,405.08 322.44,406.83 321.74,408.69 C320.502237,412.286878 320.892891,416.244534 322.81,419.53 C323.351645,420.322636 323.826607,421.158836 324.23,422.03 C324.85,423.63 324.65,425.44 325.23,427.03 C325.98,429.16 328.05,430.92 327.85,433.18 C328.79,435.13 330.85,436.08 332.94,436.66 L336.67,437.66 C337.36984,437.915825 338.119714,438.004851 338.86,437.92 C339.617035,437.810588 340.197905,437.192376 340.26,436.43 C338.397041,436.132468 336.616133,435.451432 335.03,434.43 C333.412173,433.373792 332.616025,431.427211 333.03,429.54 C333.3,428.71 333.86,427.76 333.32,427.07 C333.01,426.68 332.45,426.58 332.1,426.22 C331.634337,425.571612 331.634337,424.698388 332.1,424.05 C332.572519,423.445619 332.947091,422.770714 333.21,422.05 C333.372682,421.176569 332.973488,420.29435 332.21,419.84 C332.903371,419.57761 333.533715,419.172146 334.06,418.65 C334.570601,418.11452 334.70151,417.321128 334.39,416.65 C335.52,416.79 336.86,416.86 337.61,416 C338.130791,415.232311 338.249909,414.260763 337.93,413.39 C337.609075,412.53617 337.394136,411.646186 337.29,410.74 C339.906332,410.862634 342.528304,410.772336 345.13,410.47 C344.757424,409.198319 343.903599,408.122069 342.75,407.47 C344.020954,407.034388 345.00149,406.009113 345.38,404.72 C345.681924,403.555925 345.681924,402.334075 345.38,401.17 C345.30296,400.864786 345.30296,400.545214 345.38,400.24 C345.568488,399.835637 345.899676,399.515133 346.31,399.34 L352.16,395.98 C352.51073,395.805847 352.828739,395.572415 353.1,395.29 C353.633273,394.487242 353.712737,393.465559 353.31,392.59 C352.904377,391.735231 352.589328,390.840356 352.37,389.92 C352.01,387.11 355.01,385.1 356.02,382.46 C356.367387,381.403701 356.556109,380.301699 356.58,379.19 C356.66,378 356.67,376.62 355.76,375.85 C354.85,375.08 353.52,375.28 352.6,374.6 C351.68,373.92 351.47,372.76 350.6,372.25 C349.73,371.74 348.72,372.08 347.8,371.87 C346.17,371.49 345.14,369.61 343.48,369.43 C342.54,369.33 341.48,369.79 340.71,369.24 C339.94,368.69 340,367.79 339.87,366.97 C339.405089,364.351445 337.357644,362.300009 334.74,361.83 C333.756853,361.817632 332.786755,361.60319 331.89,361.2 C331.06,360.66 330.67,359.65 330.02,358.9 C328.96,357.7 327.3,357.27 325.74,356.9 L319.4,355.41 C318.27,355.15 316.82,355.01 316.22,355.99 C316.040209,356.364201 315.912361,356.761203 315.84,357.17 C315.372358,358.689449 313.979588,359.735035 312.39,359.76 C311.859091,358.854319 310.999504,358.188139 309.99,357.9 C309.330475,357.790296 308.679022,357.63662 308.04,357.44 C307.363598,357.111746 306.852512,356.519067 306.627286,355.801749 C306.40206,355.084432 306.482632,354.305982 306.85,353.65 C307.601968,352.312026 307.364314,350.636154 306.27,349.56 C305.108662,348.660546 303.636718,348.26107 302.18,348.45 C301.8,347.62 302.43,346.69 303.12,346.09 C303.81,345.49 304.63,344.9 304.78,344 C305.01,342.59 303.21,341.52 301.85,341.94 C300.516949,342.511619 299.491078,343.624798 299.03,345 C298.753864,345.771397 298.373686,346.501475 297.9,347.17 C297.403013,347.846492 296.56824,348.186585 295.74,348.05 C294.61,347.76 294.18,346.42 293.93,345.29 C293.53071,343.782494 293.329021,342.229489 293.33,340.67 C293.334004,339.092494 293.959109,337.580028 295.07,336.46 C296.94,334.74 299.81,334.91 302.34,335.18 C301.779441,334.434988 301.86087,333.389257 302.53,332.74 C303.212988,332.1316 304.152285,331.899583 305.04,332.12 C305.801908,332.276494 306.488862,332.685143 306.99,333.28 C307.567098,334.233404 308.0558,335.237585 308.45,336.28 C308.99,337.28 310.21,338.12 311.21,337.59 C312.004457,336.978425 312.318615,335.927205 311.99,334.98 C311.65272,334.06462 311.453866,333.104051 311.4,332.13 C311.55,330.27 313.48,329.13 315.18,328.39 C316.88,327.65 318.83,326.6 319.1,324.75 C319.108436,324.388126 319.175994,324.030068 319.3,323.69 C319.487804,323.389129 319.749424,323.141279 320.06,322.97 C325.06,319.69 330.06,316.37 335.74,314.58 C336.04,314.49 336.07,314.58 336.37,314.52 C336.79,314.28 336.51,313.6 336.11,313.33 C335.71,313.06 335.17,312.85 335.11,312.33 C335.05,311.81 335.24,311.64 335.29,311.33 C335.314133,310.898916 335.124303,310.483623 334.782526,310.219796 C334.44075,309.955968 333.990922,309.87749 333.58,310.01 C333.12,309.41 334.03,308.71 334.76,308.5 C336.947858,307.8961 339.193902,307.527347 341.46,307.4 C341.720736,307.35855 341.987865,307.404243 342.22,307.53 C342.568793,307.864611 342.595141,308.41352 342.28,308.78 C341.97625,309.120362 341.641472,309.431705 341.28,309.71 C340.528373,310.439473 340.246733,311.527452 340.55,312.53 C341.674285,313.250735 342.996394,313.600499 344.33,313.53 C345.64,313.32 346.8,311.84 346.19,310.67 C345.58,309.5 343.89,309.33 343.6,308.13 C343.25,306.72 345.24,305.47 344.79,304.13 C344.59,303.53 343.99,303.13 343.53,302.74 C342.415102,301.648484 342.085405,299.984113 342.7,298.55 C341.176691,298.816754 339.618592,298.328451 338.52,297.24 C337.52,296.24 336.72,294.64 335.3,294.68 C333.88,294.72 332.87,296.24 331.65,295.78 C331.35,295.67 331.03,295.43 330.74,295.57 C330.54682,295.694683 330.421504,295.901086 330.4,296.13 C330.09,297.61 330.62,299.3 329.82,300.58 C329.02,301.86 326.91,302.17 325.82,303.42 C325.24,304.1 325.02,305.02 324.49,305.74 C323.96,306.46 322.83,306.92 322.19,306.29 C322.834031,304.962886 322.47753,303.366921 321.33,302.44 C320.737562,302.055209 320.099261,301.746136 319.43,301.52 C318.682861,301.204243 317.972061,300.808609 317.31,300.34 C316.978172,300.140881 316.708144,299.853544 316.53,299.51 C316.388256,299.078181 316.405995,298.609858 316.58,298.19 C317.237655,296.298546 318.889713,294.927607 320.87,294.63 C321.72,294.51 322.71,294.56 323.27,293.91 C323.57,293.57 323.72,293.05 324.16,292.91 C324.436936,292.853293 324.724809,292.8884 324.98,293.01 L328.15,294.13 C328.50355,294.291126 328.893197,294.356642 329.28,294.32 C329.673527,294.263688 329.959497,293.917057 329.94,293.52 C329.84,292.99 329.03,292.74 329.1,292.21 C329.141536,292.035785 329.235827,291.878633 329.37,291.76 C331.68856,289.290893 334.99018,287.988588 338.37,288.21 C338.77,288.87 338.14,289.65 337.61,290.21 C337.08,290.77 336.66,291.77 337.3,292.21 C337.559655,292.342721 337.848503,292.408056 338.14,292.4 C338.921512,292.505008 339.681144,292.734585 340.39,293.08 C341.483333,293.553333 342.556667,294.073333 343.61,294.64 C343.456838,293.95137 343.484397,293.234831 343.69,292.56 C343.927189,291.875088 344.64502,291.481579 345.35,291.65 C345.98,291.89 346.35,292.73 346.97,292.8 C347.86,292.9 348.22,291.58 347.84,290.8 C347.46,290.02 346.73,289.29 346.66,288.4 C346.66,287.79 346.85,287.04 346.36,286.67 C346.188014,286.56017 345.992905,286.491711 345.79,286.47 L333.7,284.24 C332.98,284.11 331.94,284.24 331.91,284.94 C331.91,285.35 332.26,285.75 332.09,286.12 C331.92,286.49 331.35,286.48 330.94,286.62 C330.307563,286.909851 329.941294,287.581344 330.04,288.27 C330.152856,288.93852 330.412407,289.573738 330.8,290.13 C329.96,289.73 328.77,289.67 327.98,289.34 Z" id="Path" fill="#FFFFFF" fill-rule="nonzero"></path>
                <path d="M318.33,279.07 C316.767975,278.555411 315.050816,279.070558 314.03,280.36 C313.790561,280.597818 313.712345,280.9537 313.83,281.27 C314.07,281.68 314.68,281.52 315.13,281.37 C315.780306,281.161123 316.479694,281.161123 317.13,281.37 C317.55,281.52 317.93,281.77 318.35,281.91 C318.768016,282.084812 319.248291,282.015652 319.6,281.73 C319.849669,281.394243 319.960663,280.975333 319.91,280.56 C319.949771,280.280309 319.861642,279.997562 319.67,279.79 C319.498834,279.692605 319.306784,279.637733 319.11,279.63 C318.672367,279.550362 318.276254,279.320475 317.99,278.98" id="Path" fill="#FFFFFF" fill-rule="nonzero"></path>
                <path d="M322.69,277.86 C322.33811,277.829954 321.996467,277.98775 321.791191,278.275136 C321.585915,278.562523 321.547452,278.936876 321.69,279.26 C322.214307,279.402323 322.762111,279.436348 323.3,279.36 C323.84169,279.280345 324.28506,278.887983 324.43,278.36 C323.797703,278.474377 323.145465,278.349632 322.6,278.01" id="Path" fill="#FFFFFF" fill-rule="nonzero"></path>
                <path d="M337.32,275.83 C335.882285,276.133222 334.485788,276.606553 333.16,277.24 C334.439619,277.722102 335.252216,278.985689 335.16,280.35 C335.098116,280.602936 335.098116,280.867064 335.16,281.12 C335.31,281.49 335.75,281.63 336.16,281.72 C336.853081,281.929669 337.57656,282.020949 338.3,281.99 C339.034397,281.95159 339.69993,281.545501 340.07,280.91 C340.17542,280.612704 340.298986,280.322158 340.44,280.04 C341.37,278.63 344.12,280.33 345.11,278.97 C345.46,278.49 345.43,277.77 345.88,277.39 C346.117589,277.225065 346.392544,277.121957 346.68,277.09 C348.663008,276.695226 350.665941,276.408139 352.68,276.23 C353.68,276.15 354.9,275.8 354.9,274.84 C351.275365,274.128136 347.517072,274.634398 344.21,276.28 C343.02,276.88 341.44,278.13 340.3,277.34 C339.87,277.04 339.89,276.25 339.3,275.91 C338.668113,275.659833 337.97001,275.631627 337.32,275.83 L337.32,275.83 Z" id="Path" fill="#FFFFFF" fill-rule="nonzero"></path>
                <path d="M349.16,278.05 L350.86,278.38 C350.226587,278.351637 349.611735,278.597936 349.173076,279.05575 C348.734416,279.513565 348.514607,280.138377 348.57,280.77 C350.16,281.3 351.9,280.77 353.57,280.86 C355.24,280.95 357.2,282.13 356.91,283.78 C356.82,284.28 356.53,284.78 356.68,285.27 C356.84115,285.584184 357.032022,285.882212 357.25,286.16 C357.528622,286.864392 357.385385,287.665745 356.88,288.23 C356.43,288.82 355.88,289.3 355.45,289.93 C354.45,291.5 355.03,293.52 355.61,295.27 C355.778452,295.932199 356.088968,296.549817 356.52,297.08 C357.38,297.99 358.78,298.08 360.03,298.08 C360.941428,298.222028 361.868764,297.950792 362.56,297.34 C363.31,296.42 362.79,294.98 363.28,293.9 C363.87436,292.984446 364.831136,292.365997 365.91,292.2 C367.833518,291.729095 369.718847,291.114023 371.55,290.36 C373.78,289.36 375.87,287.73 378.32,287.6 C379.009734,287.629857 379.700648,287.582902 380.38,287.46 C381.07517,287.315212 381.584848,286.719217 381.62,286.01 C381.62,285.42 381.08,285.01 380.69,284.55 C380.3,284.09 380,283.43 380.35,282.96 L386.78,281.76 C386.32,280.52 385.97,278.88 387.02,278.07 C387.4,277.78 387.9,277.66 388.23,277.31 C388.713709,276.614473 388.553894,275.660022 387.87,275.16 C387.189714,274.703745 386.38912,274.460086 385.57,274.46 C382.74484,274.292307 379.911493,274.319037 377.09,274.54 L360.51,275.45 C359.359161,275.403571 358.207579,275.521423 357.09,275.8 C356.300401,276.243658 355.474005,276.61838 354.62,276.92 C352.83,277.24 350.82,277.03 349.16,278.05 Z" id="Path" fill="#FFFFFF" fill-rule="nonzero"></path>
                <path d="M379.64,291.49 C379.468614,291.462801 379.293315,291.502154 379.15,291.6 C379.054877,291.704704 378.99842,291.838789 378.99,291.98 C378.882373,292.605183 379.014499,293.24796 379.36,293.78 C379.717906,294.315334 380.338317,294.61405 380.98,294.56 C381.75,294.46 382.31,293.81 382.98,293.49 C384.07,293 388.67,292.23 385.49,290.49 C384.39,289.9 383.68,290.42 382.82,290.81 C381.835354,291.312133 380.732616,291.536829 379.63,291.46 L379.64,291.49 Z" id="Path" fill="#FFFFFF" fill-rule="nonzero"></path>
                <path d="M407.56,277.08 C407.186246,277.231021 406.873206,277.501853 406.67,277.85 C406.497481,278.208511 406.622442,278.639412 406.96,278.85 C407.097564,278.900518 407.243516,278.924278 407.39,278.92 L408.9,278.92 C409.54,278.92 410.35,279.08 410.52,279.7 C410.65,280.16 410.36,280.75 410.71,281.08 C410.858069,281.192839 411.034698,281.262105 411.22,281.28 C411.723759,281.392836 412.246241,281.392836 412.75,281.28 C413.85,280.98 413.27,280.28 413.62,279.71 C414.15,278.79 414.06,279.35 414.99,278.82 C415.68,278.43 416.57,277.73 415.99,276.74 C415,275.15 409.03,276.34 407.56,277.08 Z" id="Path" fill="#FFFFFF" fill-rule="nonzero"></path>
                <path d="M437.43,276.24 L436.55,276.36 C434.561647,276.570219 432.594637,276.948233 430.67,277.49 C431.497391,277.816216 432.365376,278.028166 433.25,278.12 C433.735383,278.146107 434.217377,278.216398 434.69,278.33 C435.53,278.58 436.38,279.23 437.2,278.9 C437.71,278.69 437.87,278.17 438.29,277.9 C438.71,277.63 439.67,277.4 439.8,277.2 C440.78,275.58 438.16,276.11 437.43,276.24 Z" id="Path" fill="#FFFFFF" fill-rule="nonzero"></path>
                <path d="M441.29,280.24 C440.117029,280.898306 439.028954,281.69757 438.05,282.62 C437.58886,282.962795 437.297432,283.487367 437.25,284.06 C437.25,284.81 438.1,285.25 438.79,285.54 L441.6,286.73 C441.94,286.25 441.6,285.59 441.28,285.11 C440.96,284.63 440.51,284.11 440.66,283.52 C440.81,282.93 441.66,282.65 442.29,282.52 C443.37,282.34 446.29,282.35 445.93,280.61 C445.52,278.55 442.37,279.6 441.29,280.24 Z" id="Path" fill="#FFFFFF" fill-rule="nonzero"></path>
                <path d="M440.72,396.24 C440.407534,397.01045 440.470336,397.882288 440.89,398.6 C441.470292,399.34413 442.434102,399.677154 443.35,399.45 C444.245299,399.211107 445.042877,398.696879 445.63,397.98 C446.166098,397.384034 446.607874,396.709567 446.94,395.98 C447.412492,394.836899 447.748156,393.641935 447.94,392.42 L448.81,387.84 C449,386.84 449,383.68 447.12,384.7 C446.61,384.98 445.42,387.18 444.88,387.81 C443.88,388.94 443.78,390.03 443.27,391.4 C442.6,393.12 441.31,394.55 440.72,396.24 Z" id="Path" fill="#FFFFFF" fill-rule="nonzero"></path>
                <path d="M540.08,419.7 C539.463653,419.460117 538.865431,419.176045 538.29,418.85 C537.712438,420.434161 537.404832,422.10402 537.38,423.79 L541.59,421.41 C542.22,421.05 542.94,420.55 542.93,419.83 C542.944113,419.645968 542.855693,419.469129 542.7,419.37 C542.601861,419.342716 542.498139,419.342716 542.4,419.37 C541.78417,419.480846 541.185667,419.672502 540.62,419.94 C540.04235,420.205354 539.37765,420.205354 538.8,419.94" id="Path" fill="#FFFFFF" fill-rule="nonzero"></path>
                <path d="M562.3,421.11 C561.838133,421.234428 561.386747,421.394921 560.95,421.59 C560.063481,422.209032 559.23055,422.901469 558.46,423.66 C557.593682,424.235612 556.641985,424.670962 555.64,424.95 C555.518283,425.100102 555.466181,425.294903 555.496712,425.485726 C555.527244,425.676549 555.637526,425.845369 555.8,425.95 C556.137992,426.139042 556.523599,426.225891 556.91,426.2 C557.933034,426.312311 558.967617,426.153675 559.91,425.74 C560.414615,425.412449 560.886762,425.037409 561.32,424.62 C562.406235,423.794022 563.600719,423.121073 564.87,422.62 C565.324137,422.449216 565.744079,422.198606 566.11,421.88 C566.89,421.11 566.95,419.88 565.82,419.66 C564.9,419.45 563.16,420.83 562.3,421.11 Z" id="Path" fill="#FFFFFF" fill-rule="nonzero"></path>
                <path d="M572.16,414.7 C572.26219,413.624978 571.863856,412.562755 571.08,411.82 C571.170281,412.883829 570.947838,413.950861 570.44,414.89 C570.02,415.52 569.35,415.89 568.88,416.53 C568.340326,417.093181 568.285407,417.963443 568.75,418.59 C569.096387,418.858856 569.521531,419.006427 569.96,419.01 C571.05,419.14 572.31,419.21 573.07,418.42 C573.49,417.99 573.69,417.36 574.2,417.04 C574.387269,416.961117 574.554645,416.841562 574.69,416.69 C574.9,416.36 574.57,415.92 574.19,415.8 C573.81,415.68 573.4,415.74 573.03,415.62 C572.66,415.5 572.31,415.08 572.5,414.74" id="Path" fill="#FFFFFF" fill-rule="nonzero"></path>
                <path d="M554.67,375.82 C554.100668,375.957259 553.511309,375.99113 552.93,375.92 C551.9902,375.618764 551.134006,375.101623 550.43,374.41 C548.573266,372.994496 546.3143,372.206484 543.98,372.16 C541.86,372.16 539.71,372.7 537.63,372.29 C537.837899,373.043622 538.385072,373.657343 539.11,373.95 C539.8,374.29 540.57,374.46 541.26,374.79 C542.375067,375.324961 543.259337,376.244744 543.75,377.38 C543.922145,377.922175 544.157072,378.442372 544.45,378.93 C545.265774,379.786732 546.452973,380.183714 547.62,379.99 C549.13,379.89 550.71,379.46 552.12,379.99 C553.133378,380.548783 554.057026,381.256689 554.86,382.09 C555.69423,382.933597 556.937803,383.22506 558.06,382.84 C555.86326,382.127167 554.38472,380.069363 554.41,377.76 C555.41,377.85 558.34,377.82 558.18,376.1 C558.03,374.68 555.54,375.66 554.67,375.82 Z" id="Path" fill="#FFFFFF" fill-rule="nonzero"></path>
                <path d="M541.44,387.67 C541.62,386.67 542.6,385.81 542.3,384.86 C542.00144,384.215413 541.339181,383.818851 540.63,383.86 C539.94,383.86 539.26,384.05 538.56,384.07 C538.110514,384.03959 537.659486,384.03959 537.21,384.07 C535.84,384.3 534.99,385.74 533.69,386.25 C532.870083,386.456035 532.038607,386.61298 531.2,386.72 C529.34,387.21 528.2,388.97 526.86,390.38 C524.760915,392.658195 522.026209,394.25373 519.01,394.96 C517.940803,395.093305 516.915397,395.465869 516.01,396.05 C514.9,396.96 514.62,398.52 514.38,399.93 C513.69674,403.838289 512.652262,407.674738 511.26,411.39 L515.67,411.95 C516.500529,412.128389 517.359471,412.128389 518.19,411.95 C518.778929,411.729395 519.336882,411.433613 519.85,411.07 C521.816478,409.849666 524.017299,409.055872 526.31,408.74 C527.461625,408.524055 528.649367,408.606681 529.76,408.98 C530.886808,409.377234 531.699758,410.367415 531.87,411.55 C532.825898,411.25256 533.867914,411.506335 534.58,412.21 C535.269242,412.913924 535.720406,413.816252 535.87,414.79 C535.99,415.39 536.1,416.12 536.66,416.37 C537.22,416.62 537.66,416.37 538.14,416.31 C539.84,416.17 541.25,418.15 542.91,417.81 C544.57,417.47 545.14,414.81 546.91,414.23 C547.91,413.92 549.32,414.3 549.8,413.36 C550.28,412.42 549.38,411.59 549.47,410.67 C549.58,409.54 550.91,409.06 551.94,408.57 C555.57838,406.696538 557.122645,402.309422 555.46,398.57 C554.46,396.48 552.46,394.84 552.06,392.57 C551.77,390.8 552.47,388.74 551.34,387.35 C550.77,386.64 549.8,386.25 549.46,385.41 C549.32982,384.85494 549.2495,384.289358 549.22,383.72 C549.1,383.16 548.62,382.57 548.06,382.72 C546.45,383.14 545.94,388.11 545.06,389.32 C544.540666,390.202574 543.438584,390.550298 542.50678,390.12558 C541.574975,389.700863 541.114506,388.640927 541.44,387.67 L541.44,387.67 Z" id="Path" fill="#FFFFFF" fill-rule="nonzero"></path>
                <path d="M511.71,377.7 C511.175618,377.483886 510.584412,377.452214 510.03,377.61 C509.5,377.83 509.2,378.61 509.62,378.99 C512.92255,378.764081 516.238537,378.827657 519.53,379.18 C523.31,379.7 527.05,380.98 530.84,380.6 C528.67199,379.960699 526.468164,379.449812 524.24,379.07 L520.53,378.36 C519.538991,378.150522 518.537591,377.993636 517.53,377.89 C515.4,377.72 513.79,378.24 511.71,377.7 Z" id="Path" fill="#FFFFFF" fill-rule="nonzero"></path>
                <path d="M515.02,366.18 C514.75,366.18 514.41,366.18 514.26,366.37 C514.11,366.56 514.26,366.89 514.21,367.15 C514.16,367.41 513.66,367.58 513.3,367.54 C512.955266,367.429756 512.584734,367.429756 512.24,367.54 C511.918708,367.762077 511.777323,368.166034 511.89,368.54 C512.015258,368.915098 512.223803,369.256975 512.5,369.54 C512.968537,370.128092 513.501908,370.661463 514.09,371.13 C515.23,371.97 516.77,372.37 517.48,373.59 C517.579979,373.825871 517.734148,374.034855 517.93,374.2 C518.313023,374.352115 518.746227,374.3073 519.09,374.08 L520.39,373.49 C520.62477,373.40719 520.834664,373.266114 521,373.08 C521.231252,372.624076 521.180717,372.075956 520.87,371.67 C520.560904,371.274075 520.382665,370.79178 520.36,370.29 C520.46,369.4 521.59,369.07 522.06,368.29 C522.53,367.51 522.22,366.54 522.28,365.65 C522.34,364.65 523,363.24 521.94,362.46 C521.04,361.79 520.18,362.41 519.53,363.14 C518.16,364.71 517.52,366.39 515.02,366.18 Z" id="Path" fill="#FFFFFF" fill-rule="nonzero"></path>
                <path d="M522.89,350.53 C523.33,351.38 524.26,351.88 524.74,352.71 C525.22,353.54 525.2,354.76 525.74,355.63 C526.28,356.5 527.49,356.99 527.82,358 C528.15,359.01 527.37,360.45 528.01,361.41 C528.253126,361.728789 528.618911,361.930873 529.0182,361.967 C529.417489,362.003126 529.813604,361.869975 530.11,361.6 C530.67668,360.985769 530.650054,360.031671 530.05,359.45 C529.67,359.1 529.12,358.95 528.8,358.54 C528.634881,358.304299 528.525462,358.034169 528.48,357.75 C528.306202,356.932341 528.333656,356.084699 528.56,355.28 C528.645307,355.074395 528.666229,354.847747 528.62,354.63 C528.48,354.21 527.91,354.18 527.51,353.99 C526.61,353.55 526.63,352.28 526.79,351.29 C526.69,351.95 524.34,350.83 524.09,350.46 C523.6,349.72 523.87,348.29 523.77,347.46 C522.71119,348.089771 522.325603,349.434945 522.89,350.53 Z" id="Path" fill="#FFFFFF" fill-rule="nonzero"></path>
                <path d="M499.25,363.57 C498.82,363.09 498.16,362.57 497.58,362.87 C497.149769,363.149792 496.984831,363.699587 497.19,364.17 C497.402321,364.623313 497.729901,365.012961 498.14,365.3 C499.401245,366.233817 500.594273,367.256412 501.71,368.36 C503.6,370.44 504.6,373.24 506.66,375.15 C507.074468,375.592647 507.622303,375.887635 508.22,375.99 C508.836814,376.073652 509.416462,375.675685 509.56,375.07 C509.548216,374.56807 509.32263,374.095065 508.94,373.77 C508.14,372.9 507.27,372.1 506.51,371.19 C506.162736,370.842956 505.944058,370.387965 505.89,369.9 C505.89,369.41 506.33,368.9 506.81,369.02 C506.23,368.87 505.81,367.91 504.96,367.73 C504.11,367.55 504.08,368.02 503.24,367.66 C501.62,366.97 500.37,364.82 499.25,363.57 Z" id="Path" fill="#FFFFFF" fill-rule="nonzero"></path>
                <path d="M536.9,316.35 C536.441696,316.214391 535.991042,316.054158 535.55,315.87 C534.36,315.51 532.79,316.39 532.94,317.62 C533.05,318.44 533.81,318.99 534.23,319.7 C534.749157,320.824695 534.79598,322.110524 534.36,323.27 C534.277629,323.62982 534.124675,323.969717 533.91,324.27 C533.606307,324.593246 533.242971,324.854712 532.84,325.04 C531.233696,325.942803 529.817586,327.148364 528.67,328.59 C528.544132,328.72398 528.45763,328.890063 528.42,329.07 C528.36,329.49 528.78,329.79 529.02,330.14 C529.55,330.91 529.17,331.95 529.22,332.88 C529.20353,333.148776 529.328664,333.40663 529.55,333.56 C529.87,333.72 530.24,333.45 530.41,333.14 C530.98,332.14 530.55,330.45 531.62,329.95 C531.82,329.86 532.07,329.82 532.2,329.64 C532.33,329.46 532.2,328.94 532.32,328.64 C532.48,328.13 533.17,328.11 533.7,328.13 C534.614102,328.168257 535.527855,328.046423 536.4,327.77 C536.741236,327.687682 537.050738,327.50685 537.29,327.25 C537.552862,326.807813 537.635235,326.281345 537.52,325.78 C537.198046,323.254989 536.397044,320.814648 535.16,318.59 C536.087682,318.810328 537.062328,318.715327 537.93,318.32 C538.38,318.05 538.93,317.23 538.7,316.67 C538.34,315.75 537.7,316.49 536.9,316.35 Z" id="Path" fill="#FFFFFF" fill-rule="nonzero"></path>
                <path d="M416.61,330.24 C416.765437,330.83671 416.765437,331.46329 416.61,332.06 C416.439709,332.671116 415.835625,333.055141 415.21,332.95 C414.75,332.81 414.49,332.35 414.21,332.01 C412.41,330.07 408.36,331.19 407.21,328.79 C406.76,327.79 407.06,326.64 406.76,325.6 C406.376152,324.353348 405.192445,323.528465 403.89,323.6 C403.318973,323.681656 402.763039,323.846752 402.24,324.09 C398.715266,325.500147 395.014362,326.422009 391.24,326.83 C390.527406,326.872932 389.822452,327.000495 389.14,327.21 C387.633202,327.903453 386.438845,329.133462 385.79,330.66 C385.155115,332.174632 384.381838,333.627456 383.48,335 C382.329397,336.287325 381.010917,337.414088 379.56,338.35 C379.028349,338.694758 378.58621,339.16089 378.27,339.71 C378.023731,340.34605 377.934541,341.032125 378.01,341.71 L378.29,350.01 C378.250813,351.081366 378.441771,352.148683 378.85,353.14 C379.45,354.33 380.63,355.14 381.44,356.14 C382.274873,357.223647 382.709419,358.562612 382.67,359.93 C382.67,360.48 382.6,361.13 383.03,361.48 C383.291759,361.649402 383.598275,361.736481 383.91,361.73 L395.14,362.65 C397.14,362.81 399.31,363.08 400.6,364.58 C401.21,365.29 401.7,366.31 402.6,366.39 C403.000293,366.368428 403.398225,366.314924 403.79,366.23 C404.823017,366.268602 405.758634,366.85051 406.25,367.76 C407.097712,369.047471 407.482112,370.585072 407.34,372.12 C407.25,373.12 406.95,374.02 406.89,374.98 C406.65,378.65 409.76,381.84 409.82,385.52 C409.82,387.68 408.82,389.71 407.82,391.62 C409.44,394.07 408.11,397.33 408.76,400.19 C409.41,403.05 411.64,405.03 412.2,407.76 C412.46,409.01 412.47,410.54 413.57,411.19 C414.051635,411.424242 414.58532,411.530979 415.12,411.5 C418.353723,411.539519 421.550879,410.813048 424.45,409.38 C425.81,408.7 427.22,407.7 427.45,406.2 C427.64,404.99 427.03,403.64 427.65,402.58 C428.39,401.34 430.27,401.44 431.35,400.48 C433.11,398.93 431.74,395.98 432.45,393.74 C433.09,391.74 435.29,390.67 436.38,388.87 C436.80852,388.094801 437.115431,387.258383 437.29,386.39 C437.790209,384.315739 438.101481,382.200428 438.22,380.07 C438.250479,378.775892 438.347272,377.484198 438.51,376.2 C439.69,368.89 446.92,363.99 449.26,356.97 C449.48,356.3 449.59,355.41 448.99,355.03 C448.635124,354.860031 448.232489,354.817649 447.85,354.91 L442.67,355.56 C442.031987,355.699652 441.367889,355.661605 440.75,355.45 C440.123675,355.203563 439.81174,354.499481 440.05,353.87 C440.93,352.28 439.12,350.26 438.32,348.63 C436.154665,344.235364 433.576397,340.056561 430.62,336.15 C430.430477,335.949993 430.311142,335.693774 430.28,335.42 L431.75,335.42 C431.25,333.64 430.44,331.69 428.75,331.04 C427.743391,330.767819 426.691404,330.706538 425.66,330.86 C422.630178,330.957195 419.59826,330.749483 416.61,330.24 Z" id="Path" fill="#FFFFFF" fill-rule="nonzero"></path>
                <path d="M425.73,290.12 C426.417276,291.03703 427.398707,291.69014 428.51,291.97 C430.51,292.22 431.93,290.17 432.85,288.38 C432.924497,289.324554 433.733383,290.040617 434.68,290 C435.172315,289.917086 435.642158,289.733235 436.06,289.46 C440.004789,287.30224 444.423724,286.15799 448.92,286.13 C448.829321,285.423786 449.286954,284.763241 449.98,284.6 C450.89,284.42 451.72,285.21 452.16,286.03 C452.487953,286.904526 452.968767,287.713783 453.58,288.42 C454.28,289.03 455.64,289.01 455.91,288.12 C456.18,287.23 455.29,286.54 454.55,286.03 C453.81,285.52 453.03,284.59 453.55,283.85 C457.305721,282.904008 461.136987,282.288329 465,282.01 C465.659174,282.033776 466.316174,281.921439 466.93,281.68 C467.551412,281.415919 467.919796,280.7692 467.83,280.1 C466.104726,280.504594 464.306197,279.82471 463.28,278.38 C468.64,277.94 474.35,277.56 479.1,280.08 C479.67,281.3 476.76,282.32 477.54,283.43 C477.849893,283.739313 478.285896,283.88711 478.72,283.83 C482.021478,283.983946 485.330068,283.856821 488.61,283.45 C489.791139,283.189473 491.002388,283.0919 492.21,283.16 C494.21,283.41 495.91,284.74 497.88,285.16 C498.674729,285.398423 499.532712,285.297058 500.25,284.88 C500.594369,284.658078 500.832983,284.30496 500.910421,283.902663 C500.987858,283.500366 500.897379,283.083902 500.66,282.75 C502.51,280.94 505.58,281.39 508.02,282.25 C510.46,283.11 512.77,284.52 515.35,284.71 C517.2,284.85 519.08,284.35 520.91,284.71 C522.039422,284.987026 523.154168,285.320782 524.25,285.71 C526.41253,286.160177 528.624277,286.328243 530.83,286.21 C536.45979,286.284236 542.02836,287.389137 547.26,289.47 C547.941789,289.69151 548.566538,290.060214 549.09,290.55 C549.630722,291.065739 549.794182,291.863106 549.5,292.55 L544.09,291.76 C544.6,292.76 545.92,292.93 546.99,293.28 C548.06,293.63 549.17,294.81 548.53,295.73 C547.37,295.36 546.32,296.52 545.73,297.59 C545.14,298.66 544.43,299.93 543.22,300 C542.01,300.07 540.82,299.13 540.11,300 C541.089397,301.236281 541.92791,302.577901 542.61,304 C543.31,305.46 543.81,307.3 542.86,308.61 C542.711901,308.846561 542.485366,309.023541 542.22,309.11 C541.45,309.31 540.94,308.36 540.39,307.79 C539.597817,307.167616 538.67458,306.733352 537.69,306.52 C536.74,306.18 535.75,305.52 535.69,304.52 C535.724568,303.893302 535.906128,303.283534 536.22,302.74 C536.627875,301.766981 536.805821,300.712994 536.74,299.66 C536.73526,298.80235 536.414877,297.976476 535.84,297.34 C535.231488,296.707524 534.255536,296.606126 533.53,297.1 C533.23,297.35 532.98,297.76 532.59,297.77 C531.89,297.77 531.36,296.58 530.79,296.99 C530.856446,297.433963 530.764393,297.887145 530.53,298.27 C528.85,299.73 526.28,299.11 524.11,299.63 C523.080609,299.924058 522.095197,300.354545 521.18,300.91 C520.836831,301.054955 520.544462,301.298596 520.34,301.61 C520.127625,302.177133 520.334981,302.815788 520.84,303.15 C521.344311,303.460551 521.911292,303.655237 522.5,303.72 C525.173537,304.09342 527.712693,305.124201 529.89,306.72 C531.97,308.41 533.34,311.21 532.68,313.81 L527.48,308.81 C527.68,310.896667 527.793333,312.986667 527.82,315.08 C527.855637,315.490177 527.801024,315.903183 527.66,316.29 C527.29,317.11 526.29,317.38 525.41,317.56 C524.91547,317.654284 524.484488,317.954695 524.22491,318.386052 C523.965332,318.817409 523.901723,319.338894 524.05,319.82 C524.456466,320.811212 525.074141,321.701893 525.86,322.43 C526.645331,323.160927 527.174735,324.125073 527.37,325.18 C527.46,326.24 526.66,327.44 525.6,327.37 C524.791437,327.210004 524.126681,326.636415 523.85,325.86 C523.586374,325.094395 523.226847,324.365261 522.78,323.69 C521.22,321.81 517.7,322.62 516.3,320.61 C515.577833,321.429505 515.328447,322.563077 515.64,323.61 C516.355533,323.305059 517.186858,323.53783 517.64,324.17 C518.064318,324.805039 518.435575,325.47397 518.75,326.17 C519.27,327.07 520.09,327.86 520.17,328.9 C520.144424,329.289581 520.144424,329.680419 520.17,330.07 C520.392989,330.664837 520.733029,331.208902 521.17,331.67 C521.956962,332.966561 522.054228,334.567713 521.43,335.95 C520.802861,337.303639 519.95079,338.54117 518.91,339.61 C517.246644,341.611612 515.409484,343.462157 513.42,345.14 C512.803561,345.557765 512.273818,346.090905 511.86,346.71 C511.452619,347.356168 511.526248,348.194712 512.04,348.76 C511.64,348.76 510.93,348.98 510.53,348.99 C510.39063,347.397263 510.36056,345.796848 510.44,344.2 C508.87,343.45 507.19,345.46 507.39,347.2 C507.59,348.94 508.84,350.31 509.73,351.8 C510.454284,352.860274 510.780172,354.142572 510.65,355.42 C510.471938,356.724449 509.366428,357.7024 508.05,357.72 C506.05,357.54 505.19,354.65 503.2,354.32 C503.025901,354.278781 502.843055,354.296362 502.68,354.37 C502.38,354.53 502.33,354.93 502.32,355.27 C502.114737,356.919423 502.282183,358.593885 502.81,360.17 C503.76,362.4 506.2,364.28 505.68,366.65 C502.92,365.37 501.49,362.27 500.84,359.3 C500.19,356.33 500.08,353.21 498.91,350.4 C498.02,351.54 496.16,350.6 495.35,349.4 C494.54,348.2 494.11,346.96 493.35,345.82 C492.6788,344.605878 491.474309,343.779412 490.1,343.59 C488.67,343.52 487.43,344.51 486.34,345.43 C485.392492,346.133867 484.596633,347.021555 484,348.04 C483.24,349.57 483.44,351.38 483.4,353.1 C483.477253,354.969164 482.873151,356.802791 481.7,358.26 C480.44,359.62 478.11,360.09 476.7,358.87 C476.027302,358.167691 475.54836,357.302839 475.31,356.36 C473.798669,351.948591 472.539961,347.454639 471.54,342.9 C471.31,343.9 470.39,345.28 469.54,344.67 C469.342523,344.505626 469.182305,344.301092 469.07,344.07 C467.44,341.31 464.43,339.66 461.39,338.67 C458.35,337.68 455.14,337.22 452.13,336.13 C450.443915,335.519403 448.833398,334.7175 447.33,333.74 C446.551216,334.887111 446.462945,336.368525 447.1,337.6 C447.793082,338.815359 449.218254,339.410892 450.57,339.05 C451.24,338.84 451.8,338.37 452.47,338.14 C453.12802,337.840711 453.905967,338.060566 454.31,338.66 C454.59,339.27 454.17,340.01 454.38,340.66 C454.7,341.66 456.16,341.66 456.68,342.59 C456.989572,343.307583 456.794874,344.143162 456.2,344.65 C455.608567,345.130379 454.956255,345.530508 454.26,345.84 C452.1,347.04 450.57,349.09 448.68,350.68 C446.79,352.27 444.13,353.44 441.88,352.42 C442.42,349.71 439.18,347.71 438.59,345.01 C438.39,344.12 438.5,343.18 438.22,342.31 C437.82,341.06 436.7,340.19 435.79,339.24 C433.549478,336.887138 432.358764,333.726332 432.49,330.48 C432.641988,329.371854 432.641988,328.248146 432.49,327.14 C432.304796,326.003777 431.367623,325.140917 430.22,325.05 C427.67,325.16 424.46,325.35 423.12,323.18 C422.529644,322.447473 422.529644,321.402527 423.12,320.67 C423.668477,320.318723 424.335397,320.203364 424.97,320.35 L430.71,320.91 C432.041957,321.183537 433.426545,321.022294 434.66,320.45 C435.81,319.75 436.31,317.88 435.24,317.06 C434.46,316.46 433.06,316.49 432.84,315.53 C432.65,314.73 433.54,313.82 433.06,313.16 C432.72,312.68 431.95,312.81 431.48,313.16 C431.071327,313.584695 430.626298,313.97284 430.15,314.32 C429.23,314.8 428.15,314.32 427.15,314.03 C426.15,313.74 424.84,313.7 424.36,314.61 C423.88,315.52 424.83,316.98 424.3,318 C423.6,319.36 421.22,318.58 420.24,319.75 C419.11,321.09 421.01,323.09 420.63,324.75 C419.638972,325.243881 418.46108,325.179287 417.53,324.58 C416.612859,323.958339 416.11303,322.881784 416.23,321.78 C416.32,321.01 416.73,320.22 416.46,319.5 C416.167253,318.939087 415.685494,318.499836 415.1,318.26 L409.52,315.18 C409,316.18 409.66,317.33 410.52,318.06 C411.430258,318.663779 412.234435,319.413893 412.9,320.28 C413.610168,321.646756 413.132322,323.330175 411.81,324.12 C411.649994,324.231877 411.449147,324.268394 411.26,324.22 C411.080034,324.115258 410.950162,323.942095 410.9,323.74 C409.9,321.22 408.44,318.74 406.07,317.42 C403.7,316.1 400.31,316.42 398.76,318.59 C398.39,319.12 398.14,319.72 397.82,320.27 C396.12,323.27 392.46,324.63 389.05,324.54 C388.702146,324.568622 388.353724,324.491969 388.05,324.32 C387.5,323.94 387.52,323.13 387.61,322.47 L387.97,319.65 C387.969227,319.072746 388.191334,318.517478 388.59,318.1 C389.22,317.6 390.13,317.92 390.94,317.9 C392.187344,317.833376 393.262878,317.000833 393.64,315.81 C393.972698,314.61035 393.614821,313.325072 392.71,312.47 C392.34,312.12 391.85,311.69 392.04,311.22 C392.192536,310.955246 392.457744,310.774757 392.76,310.73 C394.21,310.31 395.76,310.2 397.16,309.73 C398.645296,309.32296 399.825685,308.1952 400.3,306.73 C400.4,306.28 400.45,305.73 400.85,305.51 C401.052699,305.424969 401.27019,305.380792 401.49,305.38 C403.086215,305.149566 404.243746,303.740586 404.16,302.13 C404.928864,301.750574 405.85404,301.903429 406.46,302.51 C407.032659,303.095768 407.711349,303.567457 408.46,303.9 C409.96,304.31 411.4,302.98 412.95,302.98 C413.592081,303.088916 414.247919,303.088916 414.89,302.98 C415.51,302.76 415.89,302.14 416.36,301.68 C416.83,301.22 417.67,300.94 418.11,301.44 L417.73,298.66 C419.259246,299.048876 420.881951,298.757154 422.18,297.86 L417.33,296.22 C417.162556,296.178198 417.007997,296.095766 416.88,295.98 C416.53,295.6 416.88,294.98 417.16,294.58 C417.85,293.58 417.96,291.85 416.83,291.33 C416.001965,291.112008 415.11966,291.289207 414.44,291.81 L410.9,293.81 C410.79,294.48 411.61,294.86 412.12,295.32 C412.803702,295.857585 413.061601,296.775402 412.757967,297.590419 C412.454333,298.405436 411.658782,298.930792 410.79,298.89 C411.263331,299.502814 411.43257,300.297503 411.25,301.05 L408.87,301.22 C408.603616,301.276963 408.325523,301.222789 408.1,301.07 C407.85,300.84 407.88,300.45 407.82,300.07 C407.600598,299.258177 406.913941,298.658338 406.08,298.55 C405.259475,298.461915 404.429612,298.54014 403.64,298.78 C403.317212,298.898579 402.962788,298.898579 402.64,298.78 C402.448244,298.65826 402.303645,298.474866 402.23,298.26 C401.947444,297.364692 402.15211,296.386843 402.77,295.68 C403.375408,294.994216 404.045135,294.368021 404.77,293.81 C406.429851,292.354132 407.649162,290.462814 408.29,288.35 C409.6,287.8 410.96,287.06 412.29,286.51 C414.30961,285.487103 416.574337,285.047317 418.83,285.24 L423.27,285.32 C424.586855,285.264741 425.902514,285.45463 427.15,285.88 C428.417528,286.331137 429.330294,287.448023 429.52,288.78 C429.571369,289.08012 429.465746,289.385673 429.24,289.59 C429.070082,289.687212 428.875367,289.732414 428.68,289.72 C427.48,289.77 426.96,290.08 425.73,290.12 Z" id="Path" fill="#FFFFFF" fill-rule="nonzero"></path>
                <path d="M390.35,304.03 C390.703192,303.693576 390.838337,303.187749 390.7,302.72 C389.837096,302.387459 388.860235,302.573528 388.18,303.2 C387.918496,303.465909 387.693219,303.765158 387.51,304.09 C386.823667,304.985784 386.54765,306.129803 386.75,307.24 C386.8063,307.473975 386.95396,307.675656 387.16,307.8 C387.312622,307.859428 387.476762,307.883365 387.64,307.87 C388.281819,307.868282 388.922962,307.828211 389.56,307.75 C389.95,307.75 390.41,307.59 390.56,307.23 C390.71,306.87 390.28,306.23 390.42,305.71 C390.511958,305.485761 390.651902,305.284378 390.83,305.12 C391.007126,304.952708 391.095907,304.712259 391.07,304.47 C391.01,304.24 390.65,304.1 390.53,304.31" id="Path" fill="#FFFFFF" fill-rule="nonzero"></path>
                <path d="M393.68,299.71 C393.109838,299.578973 392.522123,299.541819 391.94,299.6 C391.811931,299.595462 391.684755,299.62296 391.57,299.68 C391.458789,299.761382 391.377862,299.877496 391.34,300.01 C391.10192,300.835332 391.536886,301.705265 392.34,302.01 C392.547871,302.059082 392.746893,302.14004 392.93,302.25 C393.42,302.63 393.11,303.41 393.2,304.03 C393.29,304.65 393.97,305.3 393.85,306.03 C393.73,306.76 393.17,307.03 393.27,307.55 C393.37,308.07 394.09,308.29 394.67,308.34 C395.006936,308.401412 395.354469,308.363183 395.67,308.23 C395.980419,308.016559 396.20118,307.696098 396.29,307.33 C396.52505,306.628533 396.623493,305.88852 396.58,305.15 C396.582321,304.800919 396.496321,304.456921 396.33,304.15 C396.158347,303.9148 395.967709,303.694061 395.76,303.49 C394.61,302.24 395.77,300.3 393.68,299.71 Z" id="Path" fill="#FFFFFF" fill-rule="nonzero"></path>
                <path d="M538.79,400.24 C538.79,400.24 454.27,351.72 417.88,360.92 C417.88,360.92 340.77,369.22 331.83,387.48 C331.83,387.48 307.32,310.88 298.38,308.32" id="Path" stroke="#666666" stroke-width="2" opacity="0.8"></path>
                <path d="M331.84,387.5 C346.01,349.71 473.68,307.83 473.68,307.83 C455.55,312.43 417.89,360.94 417.89,360.94 C417.89,360.94 338.22,302.94 298.39,308.34 C298.39,308.34 473.81,314.09 538.8,400.26" id="Path" stroke="#262434" stroke-width="2" opacity="0.8"></path>
                <path d="M298.39,304.639973 C300.292634,304.644129 301.881981,306.090557 302.064842,307.984388 C302.247703,309.878218 300.964459,311.602012 299.097765,311.970093 C297.23107,312.338174 295.389516,311.230537 294.839779,309.409048 C294.290042,307.58756 295.21135,305.646072 296.97,304.92 C297.420054,304.733332 297.902773,304.638148 298.39,304.639973 L298.39,304.639973 Z" id="Path" fill="#FFFFFF" fill-rule="nonzero"></path>
                <path d="M331.84,383.799973 C333.742634,383.804129 335.331981,385.250557 335.514842,387.144388 C335.697703,389.038218 334.414459,390.762012 332.547765,391.130093 C330.68107,391.498174 328.839516,390.390537 328.289779,388.569048 C327.740042,386.74756 328.66135,384.806072 330.42,384.08 C330.870054,383.893332 331.352773,383.798148 331.84,383.799973 L331.84,383.799973 Z" id="Path" fill="#FFFFFF" fill-rule="nonzero"></path>
                <path d="M473.68,304.129973 C475.58816,304.133115 477.18277,305.583158 477.366672,307.482438 C477.550575,309.381717 476.263786,311.110759 474.391672,311.479908 C472.519558,311.849057 470.672733,310.737912 470.12189,308.910987 C469.571048,307.084061 470.495853,305.137232 472.26,304.41 C472.710054,304.223332 473.192773,304.128148 473.68,304.129973 L473.68,304.129973 Z" id="Path" fill="#FFFFFF" fill-rule="nonzero"></path>
                <path d="M538.79,396.559973 C540.692634,396.564129 542.281981,398.010557 542.464842,399.904388 C542.647703,401.798218 541.364459,403.522012 539.497765,403.890093 C537.63107,404.258174 535.789516,403.150537 535.239779,401.329048 C534.690042,399.50756 535.61135,397.566072 537.37,396.84 C537.820054,396.653332 538.302773,396.558148 538.79,396.559973 L538.79,396.559973 Z" id="Path" fill="#FFFFFF" fill-rule="nonzero"></path>
                <path d="M417.89,357.239973 C419.792634,357.244129 421.381981,358.690557 421.564842,360.584388 C421.747703,362.478218 420.464459,364.202012 418.597765,364.570093 C416.73107,364.938174 414.889516,363.830537 414.339779,362.009048 C413.790042,360.18756 414.71135,358.246072 416.47,357.52 C416.920054,357.333332 417.402773,357.238148 417.89,357.239973 Z" id="Path" fill="#FFFFFF" fill-rule="nonzero"></path>
            </g>
            <g id="Group" transform="translate(296.000000, 305.000000)" fill-rule="nonzero">
                <circle id="Oval" fill="#FFFFFF" cx="3.66" cy="3.74" r="3"></circle>
                <path d="M3.66,0.24 C5.59299662,0.24 7.16,1.80700338 7.16,3.74 C7.16,5.67299662 5.59299662,7.24 3.66,7.24 C1.72700338,7.24 0.16,5.67299662 0.16,3.74 C0.16,1.80700338 1.72700338,0.24 3.66,0.24 Z M3.66,1.24 C2.27928813,1.24 1.16,2.35928813 1.16,3.74 C1.16,5.12071187 2.27928813,6.24 3.66,6.24 C5.04071187,6.24 6.16,5.12071187 6.16,3.74 C6.16,2.35928813 5.04071187,1.24 3.66,1.24" id="Shape" fill="#666666"></path>
                <circle id="Oval" fill="#FFFFFF" cx="174.66" cy="3.74" r="3"></circle>
                <path d="M174.66,0.24 C176.592997,0.24 178.16,1.80700338 178.16,3.74 C178.16,5.67299662 176.592997,7.24 174.66,7.24 C172.727003,7.24 171.16,5.67299662 171.16,3.74 C171.16,1.80700338 172.727003,0.24 174.66,0.24 Z M174.66,1.24 C173.279288,1.24 172.16,2.35928813 172.16,3.74 C172.16,5.12071187 173.279288,6.24 174.66,6.24 C176.040712,6.24 177.16,5.12071187 177.16,3.74 C177.16,2.35928813 176.040712,1.24 174.66,1.24" id="Shape" fill="#666666"></path>
                <circle id="Oval" fill="#FFFFFF" cx="36.07" cy="79.33" r="3.59"></circle>
                <path d="M36.07,75.24 C38.3288446,75.24 40.16,77.0711554 40.16,79.33 C40.16,81.5888446 38.3288446,83.42 36.07,83.42 C33.8111554,83.42 31.98,81.5888446 31.98,79.33 C31.98,77.0711554 33.8111554,75.24 36.07,75.24 L36.07,75.24 Z M36.07,76.24 C34.3634401,76.24 32.98,77.6234401 32.98,79.33 C32.98,81.0365599 34.3634401,82.42 36.07,82.42 C37.7765599,82.42 39.16,81.0365599 39.16,79.33 C39.16,77.6234401 37.7765599,76.24 36.07,76.24" id="Shape" fill="#666666"></path>
                <circle id="Oval" fill="#FFFFFF" cx="122.07" cy="55.33" r="3.59"></circle>
                <path d="M122.07,51.24 C124.328845,51.24 126.16,53.0711554 126.16,55.33 C126.16,57.5888446 124.328845,59.42 122.07,59.42 C119.811155,59.42 117.98,57.5888446 117.98,55.33 C117.98,53.0711554 119.811155,51.24 122.07,51.24 Z M122.07,52.24 C120.820212,52.24 119.693486,52.9928543 119.215212,54.1475082 C118.736939,55.3021621 119.001306,56.6312261 119.88504,57.51496 C120.768774,58.3986938 122.097838,58.663061 123.252492,58.1847878 C124.407146,57.7065145 125.16,56.5797883 125.16,55.33 C125.16,53.6234401 123.77656,52.24 122.07,52.24" id="Shape" fill="#666666"></path>
                <circle id="Oval" fill="#FFFFFF" cx="240.07" cy="93.33" r="3.59"></circle>
                <path d="M240.07,89.24 C241.724251,89.24 243.215613,90.2364965 243.848667,91.7648248 C244.481722,93.293153 244.131799,95.0523349 242.962067,96.2220667 C241.792335,97.3917985 240.033153,97.7417216 238.504825,97.1086673 C236.976497,96.475613 235.98,94.9842506 235.98,93.33 C235.98,91.0711554 237.811155,89.24 240.07,89.24 Z M240.07,90.24 C238.820212,90.24 237.693486,90.9928543 237.215212,92.1475082 C236.736939,93.3021621 237.001306,94.6312261 237.88504,95.51496 C238.768774,96.3986938 240.097838,96.663061 241.252492,96.1847878 C242.407146,95.7065145 243.16,94.5797883 243.16,93.33 C243.16,91.6234401 241.77656,90.24 240.07,90.24" id="Shape" fill="#666666"></path>
            </g>
        </g>
    </g>
</svg>