<svg xmlns="http://www.w3.org/2000/svg" xmlns:xlink="http://www.w3.org/1999/xlink" viewBox="0 0 536.11 346.62"><defs><style>.cls-1{fill:url(#linear-gradient);}.cls-2{fill:none;}.cls-3{mask:url(#mask);}.cls-4{fill:url(#linear-gradient-2);}.cls-5{fill:#85848b;}.cls-6{fill:#504f60;}.cls-7{opacity:0.2;}.cls-8{fill:#6c63ff;}.cls-9{fill:#514e7f;}.cls-10{fill:#464353;}.cls-11{fill:#a1616a;}.cls-12{fill:#00ade6;}.cls-13,.cls-16,.cls-26{opacity:0.1;}.cls-14{fill:#33323d;}.cls-15{fill:#8dd070;}.cls-16{fill:#2f2c41;}.cls-17{fill:#464253;}.cls-18{fill:#fbbebe;}.cls-19,.cls-23{opacity:0.05;}.cls-20{fill:#3f3d56;}.cls-21{fill:url(#Unnamed_Pattern);}.cls-22{fill:#2d293d;}.cls-23,.cls-26{isolation:isolate;}.cls-24{fill:#ffcdd3;}.cls-25{fill:#575988;}</style><linearGradient id="linear-gradient" x1="296.68" y1="-10464.63" x2="296.68" y2="-10714.23" gradientTransform="matrix(1, 0, 0, -1, 663.32, -8198.61)" gradientUnits="userSpaceOnUse"><stop offset="0" stop-color="#404040"/><stop offset="0.54" stop-color="#1f1f1f"/><stop offset="1" stop-color="#1a1a1a"/></linearGradient><mask id="mask" x="0" y="-5493" width="1920" height="5493" maskUnits="userSpaceOnUse"><rect class="cls-1" width="1920" height="5493"/></mask><linearGradient id="linear-gradient-2" x1="296.68" y1="-10464.63" x2="296.68" y2="-10714.23" gradientTransform="matrix(1, 0, 0, -1, 663.32, -8198.61)" gradientUnits="userSpaceOnUse"><stop offset="0" stop-color="gray"/><stop offset="0.54" stop-color="gray"/><stop offset="1" stop-color="gray"/></linearGradient><pattern id="Unnamed_Pattern" data-name="Unnamed Pattern" width="1920" height="5493" patternTransform="matrix(1, 0, 0, -1, 0, 21876)" patternUnits="userSpaceOnUse" viewBox="0 0 1920 5493"><rect class="cls-2" width="1920" height="5493"/><g class="cls-3"><rect class="cls-4" width="1920" height="5493"/></g></pattern></defs><title>vcAsset 4ReplytoStory</title><g id="Layer_2" data-name="Layer 2"><g id="Layer_1-2" data-name="Layer 1"><rect class="cls-5" y="342.7" width="536.11" height="3.92"/><path class="cls-6" d="M424.74,273.52c0,3-17.57,11.8-38.43,11.8s-37.12-8.79-37.12-11.8,16.91-2,37.8-2S424.74,270.5,424.74,273.52Z"/><path class="cls-7" d="M424.74,273.52c0,3-17.57,11.8-38.43,11.8s-37.12-8.79-37.12-11.8"/><path class="cls-8" d="M214.61,218.22c3.39.43,6.9.71,10.14-.34.51-.16,1.07-.51,1-1a1.24,1.24,0,0,0-.23-.51,31.55,31.55,0,0,1-3.06-5.84.51.51,0,0,0-.19-.27.48.48,0,0,0-.33,0c-1.5.39-2.79,1.36-4.28,1.77a6.08,6.08,0,0,1-2.33.17c-.67-.08-1.59-.63-2.21-.56C213.5,213.86,214.35,215.95,214.61,218.22Z"/><path class="cls-8" d="M278.66,212.57c2.23-1.53,4.55-3.14,5.86-5.51a1,1,0,0,0,.16-.48,1,1,0,0,0-.19-.46,19,19,0,0,0-4.77-5.14,13.9,13.9,0,0,0-2.66,2.45c-.56.59-2.11,1.53-2.13,2.44,0,.51.59,1.1.87,1.53s.73,1.11,1.06,1.69C277.06,209.37,278.83,212.46,278.66,212.57Z"/><path class="cls-9" d="M227.88,225.06a2.27,2.27,0,0,1-.41,1.48,2,2,0,0,1-.86.51c-4.74,1.7-10.22-.42-14.94,1.25-1,.34-1.89.84-2.87,1.16a15.59,15.59,0,0,1-3.58.63c-1.67.16-3.35.26-5,.31a12.09,12.09,0,0,1-3.79-.33,4.55,4.55,0,0,1-2.91-2.3,2.21,2.21,0,0,1-.14-1.64,1.77,1.77,0,0,1,.31-.51,4.48,4.48,0,0,1,1.11-.9l1.74-1.12a11.69,11.69,0,0,1,2.64-1.4c.69-.22,1.42-.32,2.12-.51,2.45-.72,4.32-2.66,6.05-4.52l2.37-2.53a2.38,2.38,0,0,1,.82-.66,2.28,2.28,0,0,1,1-.1A13.66,13.66,0,0,1,218,216a8.38,8.38,0,0,0,1.59.94,5.69,5.69,0,0,0,4.45-.55c.61-.33.47-.51.73-1.09s.88-1,1.42-.42a1.5,1.5,0,0,1,.34.64,18.12,18.12,0,0,1,.32,5.27,2.32,2.32,0,0,0,.1.82,4.63,4.63,0,0,0,.46.76,1.73,1.73,0,0,1,.1.19,5.2,5.2,0,0,1,.34,2.47Z"/><path class="cls-10" d="M227.88,225.06a2.27,2.27,0,0,1-.41,1.48,2,2,0,0,1-.86.51c-4.74,1.7-10.22-.42-14.94,1.25-1,.34-1.89.84-2.87,1.16a15.58,15.58,0,0,1-3.58.63c-1.67.16-3.35.26-5,.31a12.09,12.09,0,0,1-3.79-.33,4.55,4.55,0,0,1-2.91-2.3,2.21,2.21,0,0,1-.14-1.64,1.77,1.77,0,0,1,.31-.51c.28.58.47,1.34.65,1.62a3.31,3.31,0,0,0,2.22,1.6,5.52,5.52,0,0,0,2-.26c4.29-1.06,8.85-1.08,13-2.69a30,30,0,0,1,4.25-1.63,33.41,33.41,0,0,1,4.6-.37c2.42-.19,4.77-.92,7.15-1.31a5.2,5.2,0,0,1,.32,2.48Z"/><path class="cls-9" d="M289.5,212.26a8.61,8.61,0,0,1-2.62,4.66,30.45,30.45,0,0,0-3.66,4c-1.23,1.87-1.78,4.2-3.37,5.78a9.24,9.24,0,0,1-2,1.46,14.24,14.24,0,0,1-2.63,1.21,19.62,19.62,0,0,1-7.43.4,6.68,6.68,0,0,1-2.36-.45,7.11,7.11,0,0,1-1-.6,4.69,4.69,0,0,1-1.53-1.53,1.53,1.53,0,0,1-.15-1.11,2.62,2.62,0,0,1,.71-1.08,16.87,16.87,0,0,1,1.8-1.62,10.76,10.76,0,0,0,2.34-2,6.6,6.6,0,0,0,.9-2,18.12,18.12,0,0,0,.66-3.91,12.39,12.39,0,0,1,.27-2.62c.38-1.35,1.38-2.55,1.27-3.95a1,1,0,0,1,.05-.6.83.83,0,0,1,.47-.29,8.32,8.32,0,0,1,2.44-.57,2.85,2.85,0,0,1,2.27.89c.35.42.58,1,1.09,1.19a1.73,1.73,0,0,0,.78,0,6.51,6.51,0,0,0,3.58-1.1,4.46,4.46,0,0,0,1.48-3.25c0-.46-.21-.95.51-1,.54-.07,1,.51,1.25.87a12.1,12.1,0,0,1,2.39,4.35,1.28,1.28,0,0,1,.45-.09,2,2,0,0,1,1.63.83A3.24,3.24,0,0,1,289.5,212.26Z"/><path class="cls-10" d="M289.5,212.26a8.61,8.61,0,0,1-2.62,4.66,30.45,30.45,0,0,0-3.66,4c-1.23,1.87-1.78,4.2-3.37,5.78a9.24,9.24,0,0,1-2,1.46,14.25,14.25,0,0,1-2.63,1.21,19.62,19.62,0,0,1-7.43.4,6.68,6.68,0,0,1-2.36-.45,7.11,7.11,0,0,1-1-.6,4.68,4.68,0,0,1-1.53-1.53,3.73,3.73,0,0,1,1.53-.37c1.1.06,1.91,1.1,3,1.43,1.51.45,3-.61,4.54-1,1-.24,2-.17,3-.51a7.49,7.49,0,0,0,2.24-1.36,11.41,11.41,0,0,0,2.4-2.31,14.83,14.83,0,0,0,1.4-2.8,40.09,40.09,0,0,1,2.84-5.43,3.84,3.84,0,0,1,.58-.76,8,8,0,0,1,.78-.57,5.94,5.94,0,0,0,1.8-3.29,5.76,5.76,0,0,1,.4-1.1A2,2,0,0,1,289,210,3.24,3.24,0,0,1,289.5,212.26Z"/><path class="cls-11" d="M182.39,53a10.83,10.83,0,0,1,3.06,3.58c.72,1.4,4.84,12.26,4.6,13.84,1.34-1.35,6.64-1.57,8-2.93.57-.57,3.63-3.4,4.09-4.06s3.87-2,4.24-2.74c1.39-2.5-9.89-12-8.44-14.43a.64.64,0,0,0,.12-.39.63.63,0,0,0-.19-.3,16.91,16.91,0,0,0-3.26-2.23,5.18,5.18,0,0,1-2.49-3,10.73,10.73,0,0,0-2.89,2q-3.11,2.66-6.1,5.43c-.78.73-2.29,1.69-2.66,2.73S181.65,52.4,182.39,53Z"/><path class="cls-9" d="M200.66,49a33.25,33.25,0,0,0-4.83,4,9.62,9.62,0,0,0-3.06,4.92c-.14.76-.12,1.53-.24,2.3-.51,3.35-3.4,5.8-4.68,8.93a15.48,15.48,0,0,0-.81,3,35.32,35.32,0,0,0-.59,5.86c0,1.91,1.84,3.22,2.52,5a30.51,30.51,0,0,1,1.22,5.43,64.32,64.32,0,0,0,3.06,10.06c2.52,7,10.68,26.19,13.2,33.15,7.72-1.94,28.26-6.38,35.1-10.47,2.28-1.36-15.81-16.69-13.37-17.74a.91.91,0,0,0,.68-1.28c-2.44-10.66-10.06-19.41-13.52-29.78-1.2-3.6-3.36-6.68-5-10.1-1.48-3.1-2.27-6.53-4-9.48A6,6,0,0,0,205,51.12a7.62,7.62,0,0,0-1.43-.86C202.57,49.77,201.63,49.48,200.66,49Z"/><path class="cls-11" d="M182.8,27.63a12.07,12.07,0,1,1-2.36.23A12,12,0,0,1,182.8,27.63Z"/><path class="cls-10" d="M195.09,45.39a4.05,4.05,0,0,1,4.54-.65A2.19,2.19,0,0,1,201,46.92l6,.09a12,12,0,0,1,2.84.26,4.13,4.13,0,0,1,2.37,1.49c.07.1.15.21.28.23a.44.44,0,0,0,.28-.09,5.2,5.2,0,0,1,3-.51,16.12,16.12,0,0,1,8.77,3.85,2.84,2.84,0,0,1,1,1.27c.21.68,0,1.53.51,2,0,5.62,1.93,10.87,3.22,16.35a7.33,7.33,0,0,0,1.81,2.6A10.5,10.5,0,0,1,233,77.36c1.09,2.84-.41,6.18.65,9a15.48,15.48,0,0,0,2,3.24,8.39,8.39,0,0,1,1.75,4.19c0,.68,0,1.37,0,2a12.36,12.36,0,0,0,.51,2.71q.65,2.47,1.37,4.94c.78,2.66,1.79,5.52,4.17,6.94-5.75,1-11.8,1.93-17.28-.07a9,9,0,0,1-2.16-1.08c-2-1.41-2.93-3.82-3.78-6.1a28.8,28.8,0,0,1-2.11-7.87,9,9,0,0,0-.36-2.55c-.56-1.48-2-2.38-3.39-3.2a16.28,16.28,0,0,1-4.09-3.18,6.35,6.35,0,0,1-1.66-4.77c.1-.84.43-1.66.46-2.5a2,2,0,0,0-1.16-2c-4.18-1.27-6.18-6.22-7.11-10.49a33.68,33.68,0,0,1-.54-6.69l-.06-4.36a5.75,5.75,0,0,1-1.88-4.13,4.91,4.91,0,0,0,0-1.37,3.77,3.77,0,0,0-1-1.46,13,13,0,0,1-2.29-3.21Z"/><path class="cls-10" d="M182.22,59.2c-.14,1.35.17,2.73-.13,4.06-.12.51-.32,1-.47,1.5a8.79,8.79,0,0,0,.56,5.69,31.67,31.67,0,0,0,2.91,5,8.17,8.17,0,0,1,.93,1.74,9,9,0,0,1,.36,2,61.74,61.74,0,0,0,1.42,8c.57,2.29,7.07,21.85,8.58,23.66a1.93,1.93,0,0,0,1.16.79,2.12,2.12,0,0,0,1-.2l3.06-1.17a2,2,0,0,0,.71-.39,1.83,1.83,0,0,0,.44-1.21c.22-2.49-6.29-22.19-7.12-24.55-2.5-7.11-5.83-14-7.46-21.33-.45-2-.69-5.19-2.19-6.82-.62-.67-.41-.39-1.15,0a8.41,8.41,0,0,0-1.08.57,3.54,3.54,0,0,0-1.51,2.65Z"/><path class="cls-12" d="M191.53,72.69c.82,4.35,1.67,8.68,2.51,13l12-3.14A8.43,8.43,0,0,0,205,79c-1.09-2.74-1.12-5.8-2-8.62-.67-2.15-1.83-4.12-2.46-6.28-.36-1.26-.55-2.55-.9-3.83a27.77,27.77,0,0,0-1.41-3.65,22.86,22.86,0,0,0-2.62-4.85c-1.53.57-3.17,1.24-4,2.62a5.66,5.66,0,0,0-.75,2.55c-.21,2.69.77,5.4.44,8.08a23.75,23.75,0,0,0,.25,7.66Z"/><path class="cls-10" d="M206.23,130.51c.67,2.55-.3,5.24-1.1,7.77a60.21,60.21,0,0,0-2.44,11.7,10.12,10.12,0,0,1-.6,3c-.38.85-1,1.57-1.46,2.39-1.21,2.14-1.17,4.74-.91,7.18.17,1.61.43,3.21.76,4.8.39,1.94.88,4,.31,5.85,1-.21,1.59,1,1.53,2s-.37,2,.09,2.88c1.17.43,1.19,2,1.15,3.29a27.71,27.71,0,0,0,.82,6.44Q207,200.56,210,213.31c4.32,1.34,9.36,2.73,13.47.88a2.7,2.7,0,0,0,1.71-1.72,3,3,0,0,0-.16-1.32l-2-7.1a13,13,0,0,1-.7-5.25c.19-1.31.76-2.73.12-3.89-.22-.4-.57-.71-.82-1.09-1-1.5-.49-3.5-.4-5.31a4.21,4.21,0,0,0-.08-1.22,6.07,6.07,0,0,0-.58-1.33,20.39,20.39,0,0,1-2.25-10.14,2.51,2.51,0,0,0-.18-1.32,4.28,4.28,0,0,1-.33-.54,1.48,1.48,0,0,1,.11-1,8.93,8.93,0,0,1-1.57-1.53,2.2,2.2,0,0,0,.38-3.44,1.15,1.15,0,0,0,.55-2c-.25-.17-.58-.25-.76-.51s-.05-.9.17-1.31l1.19-2.15c.89-1.6,1.09-3.58,2-5.11a38.29,38.29,0,0,0,3.15-7.18l3.44-9.49,2.31,2a7.31,7.31,0,0,1,1.9,2.17,9.35,9.35,0,0,1,.62,2.59c.85,5.15,4.09,9.61,5.29,14.69a9.67,9.67,0,0,0,1.09,3.28,7.16,7.16,0,0,1,.62.94,5,5,0,0,1,.26,1.56,7.27,7.27,0,0,0,3.06,5.21c1.14.78,2.55,1.32,3.17,2.55a4.75,4.75,0,0,0,.51,1.09c.55.66,1.74.74,2,1.57.13.46-.11,1,.15,1.43a1.35,1.35,0,0,0,.57.42l3.33,1.66c3.72,1.86,5.62,6.13,8.36,9.24a19.93,19.93,0,0,1,2.5,3.31c1.18,2.12,1.73,4.78,3.73,6.13a5.65,5.65,0,0,1,1.45,1.08c.63.83.4,2,.45,3s.85,2.28,1.84,2a7.27,7.27,0,0,0,0,3.86,19.41,19.41,0,0,0,11.78-4.77,4.65,4.65,0,0,0,1.92-3.22,1.15,1.15,0,0,0-.14-.64,1.82,1.82,0,0,0-.75-.57c-3.11-1.69-4-5.59-5.62-8.77-1.37-2.8-3.41-5.21-5.11-7.81-3.7-5.59-6.22-12.36-11.81-16.05-1.23-.81-2.66-1.53-3.28-2.88-.34-.75-.38-1.61-.65-2.39a2.07,2.07,0,0,0-1.75-1.53,10.71,10.71,0,0,0,.4-3.71,4.68,4.68,0,0,0-.18-1.6,7.78,7.78,0,0,0-.82-1.58,15.19,15.19,0,0,1-2.1-8.17,13.4,13.4,0,0,0-.14-4.41c-.22-.71-.62-1.36-.89-2a12.77,12.77,0,0,1-.64-3.84l-.31-4.91a24.15,24.15,0,0,0-.63-4.85c-1-3.81-2-19.77-5.54-21.57S234,115.25,230,115.49a17.51,17.51,0,0,0-5.11,1,24.88,24.88,0,0,0-7,4.6l-7.24,6.08A26.7,26.7,0,0,1,206.23,130.51Z"/><path class="cls-10" d="M171.47,26.3a9.11,9.11,0,0,1,7-3.43,16.37,16.37,0,0,1,7.77,2,9.6,9.6,0,0,0,2.27.93c1.28.26,2.7-.09,3.85.51,1.53.81,1.83,2.88,1.7,4.6s-.45,3.62.46,5.11a11.79,11.79,0,0,1,.88,1.33,4.41,4.41,0,0,1-.07,2.84,18.4,18.4,0,0,1-1.47-1.87,1.73,1.73,0,0,0-2.11-.55c-.66.44-.65,1.25-.68,2s-.22,1.59-.9,1.83a1.47,1.47,0,0,1-1.53-.6c-1.17-1.43-.7-3.71-1.86-5.15-.66-.82-1.76-1.22-2.36-2.07-.48-.67-.6-1.53-1-2.26s-1.39-1.26-2-.76a2.77,2.77,0,0,0-.55.73,3.14,3.14,0,0,1-3.73,1.12,6.23,6.23,0,0,0-1.61-.7,2,2,0,0,0-1.84,1,4,4,0,0,0-.51,2.14c0,1,.18,2.11-.4,2.93a3,3,0,0,1-.82.78c-.85.55-2,.91-2.83.29a2.12,2.12,0,0,1-.63-2,16,16,0,0,1,.6-2.09c.45-1.58-.14-3.37.35-4.86A15.51,15.51,0,0,1,171.47,26.3Z"/><path class="cls-12" d="M177.94,62.34a1.86,1.86,0,0,0,.11,1.11,1.76,1.76,0,0,0,.6.58,12.39,12.39,0,0,0,5.69,1.84,1.73,1.73,0,0,1,.79.2,1.38,1.38,0,0,1,.33,1.58,4.12,4.12,0,0,0-.36,1.69c.15,1.07,1.41,1.53,2.48,1.69a5.78,5.78,0,0,0,4.32-.84,6.68,6.68,0,0,0,1.78-2.67c2.93-6.74,4-14.18,6.93-20.9a4.43,4.43,0,0,0,.44-1.4,1.38,1.38,0,0,0-.55-1.29c-.55-.34-1.41-.15-1.78-.68-.18-.27-.16-.64-.33-.92-.34-.61-1.24-.51-1.85-.86s-.81-.78-1.35-.88a1.7,1.7,0,0,0-1.39.6c-1.74,1.62-2.66,3.93-3.63,6.1A71.56,71.56,0,0,1,185,56.9c.23-.36-1.1-3.06-1.62-3.18-.91-.18-2.08,1.42-2.58,2a12.85,12.85,0,0,0-2.84,6.6Z"/><path class="cls-13" d="M196.5,41.93a2.45,2.45,0,0,0-1.9,1,5.4,5.4,0,0,0-.79,2.55,22.19,22.19,0,0,1-3,8.08"/><path class="cls-13" d="M199.1,44a2.92,2.92,0,0,0-2.48,1.49A8.35,8.35,0,0,0,196,48a13.85,13.85,0,0,1-2.48,5.31"/><path class="cls-14" d="M320.49,143.83v-6.34a17.61,17.61,0,0,0-17.61-17.61H52.35a17.61,17.61,0,0,0-17.61,17.61v11.7Z"/><path class="cls-15" d="M122,112.44s-.72,44.37,7.15,59,11.24,78.1,11.24,78.1,82.46,8.53,139.93-10.22,179.74-26.41,179.74-26.41L439.49,74s-101.8-6.53-159.7,21.09S122,112.44,122,112.44Z"/><path class="cls-13" d="M122,112.44s-.72,44.37,7.15,59,11.24,78.1,11.24,78.1,82.46,8.53,139.93-10.22,179.74-26.41,179.74-26.41L439.49,74s-101.8-6.53-159.7,21.09S122,112.44,122,112.44Z"/><path class="cls-15" d="M140.29,128.65s-2.58,36.61,3.89,48.31S151,240.87,151,240.87s74.21,3.44,127-14.53,163.72-29.63,163.72-29.63L429.08,83.14s-91.79-.95-145.36,24.35S140.29,128.65,140.29,128.65Z"/><path class="cls-13" d="M272.69,123.53a9.13,9.13,0,0,1,1.9,0,10,10,0,0,1,1.93.36,12,12,0,0,1,1.94.75,15,15,0,0,1,1.94,1.14,19.16,19.16,0,0,1,1.91,1.51,24.44,24.44,0,0,1,1.87,1.87q.92,1,1.81,2.21t1.73,2.53q.84,1.34,1.63,2.82t1.52,3.09q.73,1.61,1.39,3.33t1.26,3.54q.59,1.82,1.1,3.71t.94,3.85q.43,2,.77,3.95t.59,4q.25,2,.41,4t.22,4q.06,2,0,4t-.16,3.87q-.13,1.91-.35,3.74t-.53,3.57q-.31,1.74-.72,3.37t-.89,3.14q-.49,1.51-1.05,2.88t-1.21,2.58a24.44,24.44,0,0,1-1.35,2.27,19.15,19.15,0,0,1-1.48,1.93,15,15,0,0,1-1.6,1.58,12,12,0,0,1-1.7,1.2,10.06,10.06,0,0,1-1.78.82,9.06,9.06,0,0,1-3.75.47,10,10,0,0,1-1.93-.36,12,12,0,0,1-1.94-.75,15,15,0,0,1-1.94-1.14,19.18,19.18,0,0,1-1.91-1.51,24.53,24.53,0,0,1-1.87-1.87q-.92-1-1.81-2.21t-1.73-2.53q-.84-1.34-1.63-2.82t-1.52-3.09q-.73-1.61-1.39-3.33t-1.26-3.54q-.59-1.82-1.1-3.71t-.94-3.85q-.43-2-.77-3.95t-.59-4q-.25-2-.41-4t-.22-4q-.06-2,0-4t.16-3.87q.13-1.91.35-3.74t.53-3.57q.31-1.74.72-3.37t.89-3.14q.49-1.51,1.05-2.88t1.21-2.58a24.44,24.44,0,0,1,1.35-2.27,19.2,19.2,0,0,1,1.48-1.93,15,15,0,0,1,1.6-1.58,12,12,0,0,1,1.7-1.2,10,10,0,0,1,1.78-.82A9.12,9.12,0,0,1,272.69,123.53Z"/><path class="cls-7" d="M383.68,6.35s-98.89,25-145.53,69.08S93.34,140.35,93.34,140.35s12.93,42.44,24.9,53.92,34.65,70.9,34.65,70.9,81.1-17.19,130-52.68,163-80.31,163-80.31Z"/><path class="cls-15" d="M91.86,134s12.93,42.45,24.88,53.93,34.65,70.89,34.65,70.89,81.11-17.19,130-52.68,163-80.3,163-80.3L382.19,0S283.3,25,236.66,69.08,91.86,134,91.86,134Z"/><path class="cls-16" d="M91.86,134s12.93,42.45,24.88,53.93,34.65,70.89,34.65,70.89,81.11-17.19,130-52.68,163-80.3,163-80.3L382.19,0S283.3,25,236.66,69.08,91.86,134,91.86,134Z"/><path class="cls-13" d="M238.64,98.33a9.11,9.11,0,0,1,1.8-.62,10,10,0,0,1,1.95-.25,12,12,0,0,1,2.08.12,15,15,0,0,1,2.19.49,19.15,19.15,0,0,1,2.28.85,24.41,24.41,0,0,1,2.35,1.21q1.19.69,2.4,1.55t2.42,1.88q1.21,1,2.42,2.19t2.4,2.48q1.19,1.31,2.35,2.74t2.28,3q1.12,1.55,2.19,3.19t2.08,3.37q1,1.73,1.94,3.52t1.79,3.63q.86,1.84,1.63,3.71t1.44,3.75q.67,1.88,1.24,3.76t1,3.73q.46,1.85.81,3.66t.59,3.56q.24,1.75.35,3.43t.12,3.26q0,1.58-.12,3.06t-.36,2.83a24.45,24.45,0,0,1-.59,2.57,19.17,19.17,0,0,1-.82,2.29,15,15,0,0,1-1,2,12,12,0,0,1-1.25,1.67,10.06,10.06,0,0,1-1.44,1.33,9.07,9.07,0,0,1-3.42,1.59,10.07,10.07,0,0,1-1.95.25,12,12,0,0,1-2.08-.12,15,15,0,0,1-2.19-.49,19.19,19.19,0,0,1-2.28-.85,24.52,24.52,0,0,1-2.35-1.21q-1.19-.69-2.4-1.55T256.06,168q-1.21-1-2.42-2.19t-2.4-2.48q-1.19-1.31-2.35-2.74t-2.28-3q-1.12-1.55-2.19-3.19t-2.08-3.37q-1-1.73-1.94-3.52t-1.79-3.63q-.86-1.84-1.63-3.71t-1.44-3.75q-.67-1.88-1.24-3.76t-1-3.73q-.46-1.85-.81-3.66t-.59-3.56q-.24-1.75-.35-3.43t-.12-3.26q0-1.58.12-3.06t.36-2.83a24.45,24.45,0,0,1,.59-2.57,19.18,19.18,0,0,1,.82-2.29,15,15,0,0,1,1-2,12,12,0,0,1,1.25-1.67A10.07,10.07,0,0,1,237,99.31,9.12,9.12,0,0,1,238.64,98.33Z"/><path class="cls-13" d="M327.26,150.05V326.28A15.24,15.24,0,0,1,312,341.51H50a15.24,15.24,0,0,1-15.23-15.24v-194c7.51,2.79,7.51,2.79,15.23,2.55H312a15.24,15.24,0,0,1,15.24,15.21Z"/><path class="cls-17" d="M327.26,152.3V328.52A15.24,15.24,0,0,1,312,343.76H50a15.24,15.24,0,0,1-15.23-15.24v-194c7.51,2.78,7.51,2.78,15.23,2.55H312a15.24,15.24,0,0,1,15.24,15.22Z"/><path class="cls-13" d="M326.51,217.45V273.8H271.86a28.18,28.18,0,1,1,0-56.36Z"/><path class="cls-14" d="M327.26,215.95v56.37H272.6a28.18,28.18,0,1,1,0-56.36Z"/><path class="cls-13" d="M275.22,234.64a11,11,0,1,1-2.14.21A11,11,0,0,1,275.22,234.64Z"/><path class="cls-12" d="M276,233.15a11,11,0,1,1-2.14.21A11,11,0,0,1,276,233.15Z"/><path class="cls-18" d="M422.13,215.46c.43,4.7-3.13,9.27-2.09,13.88.22,1,.65,1.92.8,2.91.43,2.74-1.2,5.33-2.76,7.62L404.7,259.5a12.2,12.2,0,0,1-1.91,2.36c-2.55,2.28-6.4,2-9.76,2.72a16.67,16.67,0,0,0-6.54,2.89.42.42,0,0,0-.06.57,5.62,5.62,0,0,0,4.86,2.28c.35.46,0,1.14-.51,1.48-.72.51-1.71.63-1.85,1.85a2,2,0,0,0,.25,1.23,3.81,3.81,0,0,0,2.34,1.63c4.63,1.41,9.64-1.07,13.11-4.46s6-7.66,9.36-11.11c1.88-1.91,4-3.54,6-5.39,3.87-3.69,6.88-8.17,9.79-12.66a14.13,14.13,0,0,0,2.12-4.31c.37-1.57.19-3.15.61-4.67.54-2,2-3.58,3.21-5.25a17.35,17.35,0,0,0,3.65-11.29c-.31-4-2.81-8-6.61-9.37a5.87,5.87,0,0,0-3.7-.22,8.8,8.8,0,0,0-3.77,3l-2.55,2.94A6.88,6.88,0,0,0,421.2,216a2.35,2.35,0,0,0,.51,2.5"/><path class="cls-19" d="M422.13,215.46c.43,4.7-3.13,9.27-2.09,13.88.22,1,.65,1.92.8,2.91.43,2.74-1.2,5.33-2.76,7.62L404.7,259.5a12.2,12.2,0,0,1-1.91,2.36c-2.55,2.28-6.4,2-9.76,2.72a16.67,16.67,0,0,0-6.54,2.89.42.42,0,0,0-.06.57,5.62,5.62,0,0,0,4.86,2.28c.35.46,0,1.14-.51,1.48-.72.51-1.71.63-1.85,1.85a2,2,0,0,0,.25,1.23,3.81,3.81,0,0,0,2.34,1.63c4.63,1.41,9.64-1.07,13.11-4.46s6-7.66,9.36-11.11c1.88-1.91,4-3.54,6-5.39,3.87-3.69,6.88-8.17,9.79-12.66a14.13,14.13,0,0,0,2.12-4.31c.37-1.57.19-3.15.61-4.67.54-2,2-3.58,3.21-5.25a17.35,17.35,0,0,0,3.65-11.29c-.31-4-2.81-8-6.61-9.37a5.87,5.87,0,0,0-3.7-.22,8.8,8.8,0,0,0-3.77,3l-2.55,2.94A6.88,6.88,0,0,0,421.2,216a2.35,2.35,0,0,0,.51,2.5"/><path class="cls-20" d="M432.26,336.57c-2.92,1.78-6.56,1.89-10,1.48-.55-.07-1.2-.11-1.53.32-.51.61.09,1.53.72,2a14.74,14.74,0,0,0,6.84,2.81,45,45,0,0,0,6.69.44A113.13,113.13,0,0,0,453.3,343a2.59,2.59,0,0,0,1-.3,1.87,1.87,0,0,0,.76-1.15,4.56,4.56,0,0,0-1.59-4.35,13.34,13.34,0,0,0-4.27-2.29l-5.31-2.07c-1.25-.49-3.24-1.77-4.6-1.67C436.77,331.32,434.37,335.33,432.26,336.57Z"/><path class="cls-19" d="M432.26,336.57c-2.92,1.78-6.56,1.89-10,1.48-.55-.07-1.2-.11-1.53.32-.51.61.09,1.53.72,2a14.74,14.74,0,0,0,6.84,2.81,45,45,0,0,0,6.69.44A113.13,113.13,0,0,0,453.3,343a2.59,2.59,0,0,0,1-.3,1.87,1.87,0,0,0,.76-1.15,4.56,4.56,0,0,0-1.59-4.35,13.34,13.34,0,0,0-4.27-2.29l-5.31-2.07c-1.25-.49-3.24-1.77-4.6-1.67C436.77,331.32,434.37,335.33,432.26,336.57Z"/><path class="cls-10" d="M436,266c-2.21,2.94-4.5,6.34-4,10,.3,2,1.39,3.69,2.2,5.51a38.85,38.85,0,0,1,2.23,7.74c.83,3.85,1.66,7.71,2.17,11.63.58,4.42-2.14,17.2-2.39,21.65a4.58,4.58,0,0,1-.93,3c-.29.31-.68.55-.81.95a1.62,1.62,0,0,0,.18,1.12,12.36,12.36,0,0,0,6.64,6.1c2.85,1.2,9.7,3.26,12.81,3.37a2.55,2.55,0,0,0,1.21-.16,2.34,2.34,0,0,0,.93-1.07c2.22-4.25.09-19.36.12-24.16,0-4,1-8,.8-12-.14-3.21-1-6.34-1.31-9.54-.51-5.24.45-10.51,1.41-15.69.74-4,1.48-7.95,2.42-11.87a22.79,22.79,0,0,1,2.55-6.89c1-1.65,2.46-3,3.65-4.6A20.75,20.75,0,0,0,470,236c-.07-.51-7.66,1.93-8.33,2.22a26,26,0,0,0-7.43,4.78,62.42,62.42,0,0,0-4.68,5.79q-3.26,4-6.45,8Q439.46,261.38,436,266Z"/><path class="cls-19" d="M436,265.87c-2.21,2.94-4.5,6.34-4,10,.3,2,1.39,3.7,2.2,5.51a38.8,38.8,0,0,1,2.23,7.74c.83,3.86,1.66,7.72,2.17,11.63.58,4.42-2.14,17.2-2.39,21.65a4.59,4.59,0,0,1-.93,3c-.29.3-.68.55-.81.95a1.62,1.62,0,0,0,.18,1.12,12.51,12.51,0,0,0,6.64,6.13c2.85,1.23,9.7,2.29,12.81,2.4a2.55,2.55,0,0,0,1.21-.16,2.31,2.31,0,0,0,.93-1.06c2.22-4.25.09-18.39.12-23.19,0-4,1-8,.8-12-.14-3.21-1-6.34-1.31-9.54-.51-5.25.45-10.51,1.41-15.69.74-4,1.48-7.94,2.42-11.87a22.79,22.79,0,0,1,2.55-6.89c1-1.65,2.46-3,3.65-4.6A20.74,20.74,0,0,0,470,235.82c-.07-.51-7.66,1.93-8.33,2.22a26.08,26.08,0,0,0-7.43,4.78,61.71,61.71,0,0,0-4.68,5.78q-3.26,4-6.45,8Q439.46,261.2,436,265.87Z"/><path class="cls-18" d="M411.37,176.46a12.39,12.39,0,1,1-2.42.24A12.37,12.37,0,0,1,411.37,176.46Z"/><path class="cls-18" d="M422.54,188.33a16.05,16.05,0,0,0,10.29,7.18l-.93,3.4c-1.61,5.83-3.43,12-7.93,16a7.46,7.46,0,0,0-1.26-5.8,21.88,21.88,0,0,0-4.21-4.4l-7.14-6.18a2.15,2.15,0,0,1-.51-.6,1.81,1.81,0,0,1,0-1.36c.91-2.83,3.5-4.6,5.62-6.51a19.45,19.45,0,0,0,2.82-3.29C420.72,184.79,421.6,186.83,422.54,188.33Z"/><path class="cls-10" d="M395,176.39l-.28-2.33c2,.51,3.82-1.15,5.07-2.88s2.41-3.75,4.32-4.47c2.31-.87,4.77.51,7,1.68a22.07,22.07,0,0,0,8,2.6,5.26,5.26,0,0,1,1.32.21c1.44.51,2.12,2.32,2.33,4s.15,3.38.86,4.84c.51,1.11,1.46,1.93,2,3,1.53,2.93.05,6.94,1.65,9.82l-4-3.64c-.36-.33-.87-.68-1.28-.4s-.34.71-.47,1.1a2.09,2.09,0,0,1-2.83,1,8.11,8.11,0,0,1-2.55-2.31,15.5,15.5,0,0,0-6.3-4.78,8.09,8.09,0,0,0-6.64.44c-1.85,1-3.21,3.49-5.49,3.58-3.12.12-4.41-5.69-5.85-8a2.81,2.81,0,0,0,.82-3.51C393,176.27,395,176,395,176.39Z"/><path class="cls-11" d="M241.71,103.92a24.11,24.11,0,0,0-2.75,2.89,5.79,5.79,0,0,0-1.27,3.71,1.9,1.9,0,0,0,.36,1.09.92.92,0,0,0,1,.31,1.37,1.37,0,0,0,.51-.45,24.65,24.65,0,0,1,1.72-1.86c.22-.22.51-.45.81-.37a.86.86,0,0,1,.35.23,2.35,2.35,0,0,1,.72,1.12,2.65,2.65,0,0,1-.79,2.18,5.58,5.58,0,0,0-1.33,2,.87.87,0,0,0,0,.63,1,1,0,0,0,.4.34,5.7,5.7,0,0,0,4.82.32c1-.41,1.93-1.12,3-1.49a6.89,6.89,0,0,0,1.32-.51,2.74,2.74,0,0,0,1.17-1.75,7.22,7.22,0,0,0,.08-2.15,24.73,24.73,0,0,0-1.76-8.09,1,1,0,0,0-.3-.43.94.94,0,0,0-.51-.14c-1.31-.14-3.45-.81-4.71-.32a3.33,3.33,0,0,0-1.11,1C243.18,102.4,241.71,103.57,241.71,103.92Z"/><path class="cls-10" d="M241.29,102.76c0-1.25-1.53-4.25.9-4.45,0-1.33-1.88-2.16-1.53-3.58.11-.47.51-.85.56-1.33.15-1.36-2.31-2.1-1.9-3.41.15-.51.69-.81.81-1.31.28-1.18-1.83-1.71-1.87-2.92,0-.41.23-.79.21-1.2s-.44-.9-.69-1.34c-.64-1.14-.33-2.9-1.49-3.49.77.07,1-1.08.7-1.78s-1-1.31-1-2.08a3.15,3.15,0,0,0,0-.85c-.21-.75-1.44-.81-1.64-1.53a6.53,6.53,0,0,1,0-.84c-.08-.58-.67-.95-1.23-1.11a5,5,0,0,1-1.64-.59c-.36-.27-.77-.72-1.15-.51-.14.09-.21.25-.32.37-.46.54-1.34.3-1.92-.09a7.87,7.87,0,0,1-2.92-5.27c-.36-2-.35-4.12-.81-6.13a13.12,13.12,0,0,0-.55-1.84,9.67,9.67,0,0,1-.86-1.83c-.09-1.17,2.34-.37,3.26-.26a14.55,14.55,0,0,1,2.65.51,28.42,28.42,0,0,1,2.71,1.19c3.69,1.63,8.14,1.83,11.1,4.57,1,.9,1.8,2.08,3.06,2.49a13.9,13.9,0,0,1,1.72.44c1.4.66,1.62,2.52,2.39,3.87a7.59,7.59,0,0,1,.63,1.12,4.33,4.33,0,0,1,.2,1.43l.11,3.54a130.53,130.53,0,0,1-.29,17.77,14.57,14.57,0,0,0,.07,5.82c.15.51.37,1,.51,1.51a9.19,9.19,0,0,1,.19,1.84l.08,2.29a.72.72,0,0,1-.11.51.74.74,0,0,1-.62.15c-3.19-.29-6.42-2.08-9.43-1"/><path class="cls-6" d="M387,268.06l3.7,0,3.67.08,3.6.13,3.49.18,3.35.23q1.64.13,3.18.28t3,.32q1.43.17,2.75.36t2.49.4q1.18.21,2.21.43t1.91.46q.87.24,1.59.48a12.49,12.49,0,0,1,1.25.5,5.73,5.73,0,0,1,.9.52,2.24,2.24,0,0,1,.54.53.88.88,0,0,1,0,1.07,2.24,2.24,0,0,1-.54.53,5.73,5.73,0,0,1-.9.52,12.49,12.49,0,0,1-1.25.5q-.71.25-1.59.48t-1.91.46q-1,.22-2.21.43t-2.49.4q-1.31.19-2.75.36t-3,.32q-1.54.15-3.18.28l-3.35.23-3.49.18-3.6.13-3.67.08-3.7,0-3.7,0-3.67-.08-3.6-.13-3.49-.18-3.35-.23q-1.64-.13-3.18-.28t-3-.32q-1.43-.17-2.75-.36t-2.49-.4q-1.18-.21-2.21-.43t-1.91-.46q-.87-.24-1.59-.48a12.51,12.51,0,0,1-1.25-.5,5.73,5.73,0,0,1-.9-.52,2.24,2.24,0,0,1-.54-.53.88.88,0,0,1,0-1.07,2.24,2.24,0,0,1,.54-.53,5.73,5.73,0,0,1,.9-.52,12.51,12.51,0,0,1,1.25-.5q.71-.25,1.59-.48t1.91-.46q1-.22,2.21-.43t2.49-.4q1.31-.19,2.75-.36t3-.32q1.54-.15,3.18-.28l3.35-.23,3.49-.18,3.6-.13,3.67-.08Z"/><path class="cls-21" d="M419.48,273.79c-.66-2.84-1.08-5.34-1.08-5.34a11,11,0,0,0-1.24-5.42v-6.5a19.5,19.5,0,0,1,1.45-3c1-1.8,0-8.39,0-8.39s-3.82-9.29-2.89-15.19-7.84-26.17-7.84-26.17a25.84,25.84,0,0,1,.82-5.79,4.42,4.42,0,0,0,.11-1.22v-.1c-.13-3.89-3.21-11.17-3.21-11.17l.41-13.88s2-8.17-1.24-19.18c-1.12-3.84-1.83-6.91-2.29-9.28-.05-.27-.1-.51-.14-.77,6.58-1,11.62-1.84,11.62-1.84s-3.82-16-6.4-18.78-4.64-11.59-4.64-11.59-1.34-11.28.83-14.58,2.48-9,2.48-9,4.95-3.58,5.57-5.19a26.51,26.51,0,0,0,1.65-7.09c0-1.9-.62-3.58-.41-4.6s-1.45-4.8-.62-6.59a4.84,4.84,0,0,0,.33-1.73.23.23,0,0,0,0-.05,24.27,24.27,0,0,0-.43-4.69,13.3,13.3,0,0,0-4.9-2.62l-.11-.43L407,52.49a5.4,5.4,0,0,0-.49-.29v-.41l0-1.62.78-3.65c1.53-6.34-6.94-7.29-6.94-7.29a4.47,4.47,0,0,0-2.4-2.1c-1.7-.6-.28,9.54.51,10.22a40,40,0,0,1,3.34,5.23l.14.26a3.59,3.59,0,0,0-.39.41l.32,2.2.05.34a9.14,9.14,0,0,0-1.35,2.3,5,5,0,0,1,1.24,3.58,11.46,11.46,0,0,0,.51,4.39c-.09-.11-1.18-1.28-2.27-1s-4.13,1.2-4.13,1.2-2.27.4-2,.9-1.53,2.7-1.53,2.7l-6.1-5.78c-.06-.17-.13-.35-.18-.51a14,14,0,0,1-.51-2.55,13.93,13.93,0,0,0,2-.62,4.21,4.21,0,0,0,1.69-1.08,6.54,6.54,0,0,0,1-2.63,38.67,38.67,0,0,1,2.26-5,16.41,16.41,0,0,0,1.15-9.08,5.92,5.92,0,0,0-.93-2.66c-1-1.37-2.8-1.93-4.12-3s-2.16-2.76-3.69-3.58a7.32,7.32,0,0,0-4.63-.4A24.94,24.94,0,0,0,371.56,36a4.5,4.5,0,0,1-2.89,1,3.78,3.78,0,0,1-2.08-1.53l0-.08-.07-.08a10.77,10.77,0,0,0-1,4.57,5.62,5.62,0,0,0,0,.73v.46a1.16,1.16,0,0,1,0,.32,2.33,2.33,0,0,1-.57.82,5.53,5.53,0,0,0-.51.68.84.84,0,0,1,.08-.25,3.63,3.63,0,0,0-.63,1.93,2,2,0,0,0,.46,1.38,6.65,6.65,0,0,0,1,.8,11.62,11.62,0,0,0-.18,2A11.8,11.8,0,0,0,371,58.84c.07.17.14.34.2.51A14.54,14.54,0,0,1,372.28,66a3.12,3.12,0,0,1-.07.48c0,.16-.15.17-.22.26s-10.08.1-12.45-2-6,5.25-6,5.25-3.61.7-4.34,0-4.95-.1-4.95-.1a9.11,9.11,0,0,0-6.3-2.3,18.49,18.49,0,0,0-4.6-2.55l-.11,0a5.15,5.15,0,0,0-2.27-.29s-5-4.09-6.4-6.29S316.27,48,316.24,48v-.39l-.08-1.19a4.26,4.26,0,0,1-.62.05c0-.12-.09-.26-.14-.41a22.86,22.86,0,0,0-1.46-3.36s0-1.5.43-1.87-.18-5.87-.18-5.87-4.46-10.44-8.46-2.65c0,0-7.56,5-1.22,10.92,0,0,2.55,1.23,2.89,2.2.23.63,1.09,2.39,1.67,3.58l.26.51-.07.06.09,1,0,.38c-1.2.68-2,1.35-1.81,1.86a11.17,11.17,0,0,1,.72,2.7s8.78,11,9.91,15.69c0,0,23.53,14,31.27,15l-1.37,7a55.62,55.62,0,0,0-.31,5.7c.1,1.5-.93,8.29-.93,8.29s-1.34,10-2.48,11.39-.93,7.39-.93,7.39a50.5,50.5,0,0,1-1.53,8.49,21.69,21.69,0,0,0-.31,8.49s-3.92,9,5.47,2.9c0,0,4.6-.29,9.92-.47v.51c0,.68,0,1.43,0,2.2-.07,5.15-.1,12.26.13,17.61.41,9.49,3.3,28.27,3.3,28.27v9.45a12.86,12.86,0,0,0-.28,2.7,17.55,17.55,0,0,0,2.55,9.44l.73,6.29s1.7,4.15,1.73,6.64a3.49,3.49,0,0,1-.07.6,4,4,0,0,0-.08,1c-.1,2.86,1.62,9.71,1.62,9.71s.1,6.89,1.13,7.29-1.18,4-1.79,5a1.42,1.42,0,0,1,0-.19l-.13.2a4.89,4.89,0,0,0-.32,1.75,2.5,2.5,0,0,0,1.14,2.42c2,1.2,3,2.2,1.35,2.59a17.35,17.35,0,0,0-1.82.38.78.78,0,0,0-.09-.23,1.09,1.09,0,0,0-.68,1.21,5.11,5.11,0,0,0,.61,2.32,25.3,25.3,0,0,0,2.79,5.11l.79-.09a3.87,3.87,0,0,1-.46.85,3.29,3.29,0,0,1-1.16,1,3.6,3.6,0,0,1-1.41.49,4,4,0,0,0-2.92,1.42c-1,1.33-1.68,3.15.36,4.74l7.38,2.55s12.7,1.65,12-1.2-1.08-5.34-1.08-5.34a11.26,11.26,0,0,0-1-5.05,6.56,6.56,0,0,0-.45-.75l.45,0s.93-6.3,2.17-7.49c.29-.28.35-.51.29-.65.13-.34-.2-.54-.61-.66l-.09.25a6,6,0,0,0-1.23-.14s-.41-3.29.93-4.49a1.27,1.27,0,0,0,.26-1,5.27,5.27,0,0,0-.14-1.34l0,.08a48.4,48.4,0,0,0-3-7.75s-.1-3,.73-4.19-.11-16.28-.11-16.28.31-7.29-.62-10.69,1.13-7.4,1.13-7.4v-.27l-.12-1.15a.29.29,0,0,0,0,.07c-.21-1.93-.6-5.43-.89-7-.41-2.3.11-13.28.11-13.28l1.85-4.7,3.3,8.1,3.51,10.79a9.22,9.22,0,0,1,1.78,4.6v.34a5.89,5.89,0,0,0,0,.72,6.42,6.42,0,0,0,1.07,3.85s.93,5.11,2.38,6.39,1.45,3.8,1.45,3.8,1.75,7.4,2.55,8.68c.69,1.09.73,4.09.73,5v.27s.25,2.65.23,4.86v.79a.22.22,0,0,0,0-.06,7.7,7.7,0,0,1-.21,1.8l0,.1a1.3,1.3,0,0,1,0-.37,18.77,18.77,0,0,0-.51,4.6c0,2.66.36,5.8,2,7.66,2.79,3.2,4.54,2.8,4.54,2.8s-1.34,4-3,4.8a.77.77,0,0,0-.17.11,1.75,1.75,0,0,0,0-.24,2,2,0,0,0-.51,1.49,10.72,10.72,0,0,0,2,5.92,3.34,3.34,0,0,0,1.39.82l-.26.16a5.58,5.58,0,0,1-.57.27,3,3,0,0,1-.84.22,3.93,3.93,0,0,0-2.92,1.42c-1,1.33-1.68,3.14.36,4.74l7.38,2.55S420.15,276.63,419.48,273.79Z"/><path class="cls-22" d="M371,278.51,363.85,276c-2-1.59-1.34-3.41-.35-4.74a3.82,3.82,0,0,1,2.83-1.42,3.4,3.4,0,0,0,1.36-.49,3.27,3.27,0,0,0,1.13-1,5.28,5.28,0,0,0,.81-2.76s7.85-2.3,10,0a5.81,5.81,0,0,1,1,1.39,11.67,11.67,0,0,1,1,5.05s.4,2.49,1,5.34S371,278.51,371,278.51Z"/><path class="cls-22" d="M406,275l-7.15-2.55c-2-1.59-1.34-3.41-.35-4.74a3.77,3.77,0,0,1,2.82-1.42,2.66,2.66,0,0,0,.82-.22,5.4,5.4,0,0,0,.55-.27c2-1.1,1.95-3.8,1.95-3.8s7.84-2.3,10,0a5.66,5.66,0,0,1,.75,1,11.35,11.35,0,0,1,1.2,5.42s.4,2.5,1,5.34S406,275,406,275Z"/><path class="cls-13" d="M379.64,265.52a5.81,5.81,0,0,1,1,1.39l-11.75,1.36a5.27,5.27,0,0,0,.81-2.76S377.49,263.22,379.64,265.52Z"/><path class="cls-13" d="M415.35,263v2.2c-1.83,3-10.67,2.35-13.24.84a5.44,5.44,0,0,0,.55-.27c2-1.1,1.95-3.8,1.95-3.8s7.84-2.3,10,0a5.66,5.66,0,0,1,.75,1Z"/><path class="cls-10" d="M416.75,253.53a20,20,0,0,0-1.39,3v7.89c-2,3.29-12.39,2.2-13.79.4s-2.87-6.48-1.29-7.29,2.9-4.8,2.9-4.8-1.7.4-4.4-2.8-1.9-10.29-1.39-12,0-7.39,0-7.39.1-4-.69-5.3-2.5-8.68-2.5-8.68a5.88,5.88,0,0,0-1.4-3.8c-1.4-1.3-2.3-6.4-2.3-6.4a6.55,6.55,0,0,1-1-4.3c.3-2.5-1.7-5.19-1.7-5.19l-3.4-10.79-3.2-8.09-1.8,4.69s-.51,11-.1,13.28,1,8.39,1,8.39-2,4-1.1,7.39.57,10.7.57,10.7.9,15.08.1,16.28-.7,4.2-.7,4.2,4.09,8.79,2.8,10-.9,4.5-.9,4.5,2.79,0,1.6,1.2-2.1,7.49-2.1,7.49l-12.08,1.41a25.12,25.12,0,0,1-2.7-5.11c-1.6-3.71.3-3.29,1.91-3.7s.59-1.39-1.31-2.59-.8-3.9-.8-3.9,2.9-4.89,1.9-5.29-1.1-7.29-1.1-7.29-2-8.17-1.5-10.39-1.6-7.49-1.6-7.49l-.7-6.29a17.32,17.32,0,0,1-2.2-11.89v-9.7s-2.8-18.78-3.2-28.27c-.26-6.08-.18-14.37-.1-19.55.05-2.9.1-4.83.1-4.83l43.15-4.49a36.07,36.07,0,0,0,.78,6.41c.44,2.37,1.13,5.44,2.22,9.28,3.1,11,1.2,19.18,1.2,19.18l-.4,13.89s3.8,9.29,3,12.48a26.63,26.63,0,0,0-.81,5.8s8.49,20.28,7.59,26.17,2.79,15.19,2.79,15.19S417.75,251.73,416.75,253.53Z"/><path class="cls-19" d="M392.08,201.49l13.14-1.75S397.77,207.33,392.08,201.49Z"/><path class="cls-13" d="M403.31,186.9s.45,4.65-2.4,6.4C400.92,193.3,406,192.5,403.31,186.9Z"/><path class="cls-13" d="M402.51,172.12s-11,9-15,8.29S402.51,172.12,402.51,172.12Z"/><path class="cls-13" d="M375.79,205.73s-8.34,1.9-8.59,5.25S375.79,205.73,375.79,205.73Z"/><path class="cls-19" d="M377.63,247.39s-11.78,2.2-8.44,3.69a57.21,57.21,0,0,0,8.84,2.7S381.84,254,377.63,247.39Z"/><g class="cls-23"><path d="M366.81,253.46a2.32,2.32,0,0,1-1.08-1.71l-.12.21s-1.1,2.7.8,3.89l.61.41c.35-.07.73-.12,1.09-.21C369.73,255.66,368.71,254.66,366.81,253.46Z"/><path d="M382,252.66c.33-.3.32-1.06.12-2a5.74,5.74,0,0,0-.67,2.89A2.49,2.49,0,0,1,382,252.66Z"/><path d="M380.18,203a13.62,13.62,0,0,0-.8,3.67,14.81,14.81,0,0,1,.91-2.52Z"/><path d="M407.17,197.73a4.69,4.69,0,0,0,.11-1.09c-.15.75-.25,1.44-.33,2C407,198.37,407.08,198.07,407.17,197.73Z"/><path d="M379.89,238.48a6.4,6.4,0,0,0,.3-2.22,7.54,7.54,0,0,0-.58,2.8A2.69,2.69,0,0,1,379.89,238.48Z"/><path d="M382.35,257.32a39.62,39.62,0,0,0-1.37,6.13l-12.08,1.39a25.12,25.12,0,0,1-2.7-5.11,9.23,9.23,0,0,1-.34-.88c-.73.33-1,1.08-.06,3.27a25.53,25.53,0,0,0,2.71,5.11l12.08-1.4s.9-6.29,2.09-7.49C383.28,257.77,382.9,257.47,382.35,257.32Z"/><path d="M366.41,239.38s.1,6.89,1.1,7.29c.51-1.14.84-2.22.39-2.4-1-.4-1.1-7.29-1.1-7.29s-2-8.17-1.5-10.39-1.6-7.49-1.6-7.49l-.7-6.29a17.32,17.32,0,0,1-2.2-11.89v-9.7s-2.8-18.78-3.2-28.27c-.26-6.08-.18-14.37-.1-19.55,0-.93,0-1.76,0-2.46l-.34,0s-.06,1.92-.1,4.83c-.08,5.17-.16,13.47.1,19.54.4,9.49,3.19,28.27,3.19,28.27v9.71a17.33,17.33,0,0,0,2.2,11.89l.69,6.29s2.1,5.29,1.6,7.49S366.41,239.38,366.41,239.38Z"/><path d="M402,262.15a11.68,11.68,0,0,1-1.92-4.75c-1.23,1.11.18,5.43,1.53,7.15s11.78,2.9,13.79-.4v-1.9C412.66,264.93,403.29,263.85,402,262.15Z"/><path d="M417.15,250.86a20.19,20.19,0,0,0-1.4,3v1.41a21,21,0,0,1,1-2,6.13,6.13,0,0,0,.44-2.48Z"/><path d="M402.58,252.44a19.75,19.75,0,0,0,1-2.38s-1.7.4-4.4-2.8c-2-2.32-2.07-6.72-1.79-9.59-.51,1.7-1.3,8.79,1.39,12C400.54,251.76,401.87,252.31,402.58,252.44Z"/><path d="M397.37,230.29a53.21,53.21,0,0,1,.2,5.92,8.1,8.1,0,0,1,.2-.92c.51-1.7,0-7.39,0-7.39s.1-4-.7-5.3-2.47-8.69-2.47-8.69a5.88,5.88,0,0,0-1.4-3.8c-1.4-1.3-2.3-6.4-2.3-6.4a6.57,6.57,0,0,1-1-4.3c.3-2.5-1.7-5.19-1.7-5.19l-3.4-10.79-3.2-8.09-1.8,4.7s0,.59-.06,1.53l1.46-3.82,3.2,8.08,3.4,10.79s2,2.7,1.7,5.19a6.57,6.57,0,0,0,1,4.3s.9,5.11,2.3,6.4,1.39,3.8,1.39,3.8,1.7,7.39,2.5,8.68S397.37,230.29,397.37,230.29Z"/></g><path class="cls-24" d="M405.76,46.51,405,50.15l0,1.62,0,1.2-4.17.43-.46-.86a38.71,38.71,0,0,0-3.23-5.23c-.77-.64-2.15-10.79-.51-10.19a4.36,4.36,0,0,1,2.32,2.1S407.24,40.16,405.76,46.51Z"/><path class="cls-13" d="M405.09,53l-4.17.43-.46-.86a3.67,3.67,0,0,1,4.6-.76Z"/><path class="cls-8" d="M406.14,55l-5.5,1.27-.12-.82-.31-2.2a3.78,3.78,0,0,1,5.32-.73l.28,1.12Z"/><path class="cls-24" d="M317.11,46.91l-5.87,3.15-.51-1.1c-.56-1.17-1.39-2.93-1.62-3.58-.35-1-2.79-2.2-2.79-2.2-6.13-5.87,1.17-10.92,1.17-10.92,3.87-7.79,8.17,2.65,8.17,2.65s.6,5.5.18,5.87-.42,1.87-.42,1.87A23,23,0,0,1,316.83,46C317,46.56,317.11,46.91,317.11,46.91Z"/><path class="cls-13" d="M317.11,46.91l-5.87,3.15-.51-1.1c.83-.69,3.76-3.06,4.73-3a7.07,7.07,0,0,0,1.39,0C317,46.56,317.11,46.91,317.11,46.91Z"/><path class="cls-8" d="M317.71,48.68l-6.59,3.25L311,50.51l-.09-1s3.82-3.27,4.95-3.15a6,6,0,0,0,1.72,0l.08,1.19Z"/><path class="cls-24" d="M389.78,70.73S361,74,366.4,72.23c3.74-1.22,5.23-3.58,5.54-6.23a15,15,0,0,0-1.07-6.64,29,29,0,0,0-2.55-5.19s22-12.09,17.58-1.1a17.71,17.71,0,0,0-1.25,5.21,14.7,14.7,0,0,0,.57,5.27,15.69,15.69,0,0,0,4.56,7.19Z"/><path class="cls-13" d="M385.88,53.05a17.72,17.72,0,0,0-1.25,5.21c-2.07,1.74-4.34,1.62-7.25,1.62-2.24,0-4.72.54-6.51-.54a29,29,0,0,0-2.55-5.19S390.28,42.06,385.88,53.05Z"/><path class="cls-24" d="M377,36.87a11.89,11.89,0,1,1-2.32.23A11.85,11.85,0,0,1,377,36.87Z"/><path class="cls-13" d="M389.78,70.73S361,74,366.4,72.23c3.74-1.22,5.23-3.58,5.54-6.23,1.43-1.53,4.31-2.67,6.13-3.26a8.6,8.6,0,0,1,5.21-.09,7.41,7.41,0,0,1,1.9.88A15.7,15.7,0,0,0,389.78,70.73Z"/><path class="cls-13" d="M406.14,55l-5.5,1.27-.12-.82a4.86,4.86,0,0,1,5.29-1.81Z"/><path class="cls-13" d="M317.71,48.68l-6.59,3.25L311,50.51a48.11,48.11,0,0,1,6.64-2.95Z"/><path class="cls-13" d="M401.15,143.17c-11.14,1.78-27,4-29.49,3.28-2.09-.63-8.75-.57-14.55-.37.05-2.9.1-4.83.1-4.83l43.15-4.49A36.07,36.07,0,0,0,401.15,143.17Z"/><path class="cls-20" d="M412.25,140.55s-36.66,6.29-40.59,5.11-24.13.1-24.13.1c-9.09,6.09-5.3-2.9-5.3-2.9a22.35,22.35,0,0,1,.3-8.49,51.86,51.86,0,0,0,1.51-8.5s-.2-6,.9-7.4,2.4-11.39,2.4-11.39,1-6.79.9-8.29.3-5.7.3-5.7l1.3-7c-7.49-1-30.27-15-30.27-15-1.1-4.69-9.59-15.68-9.59-15.68a11.56,11.56,0,0,0-.7-2.7c-.6-1.6,8.39-4.8,8.39-4.8s6.69,8.17,8.09,10.39S332,64.64,332,64.64a4.82,4.82,0,0,1,2.2.29l.12,0a17.81,17.81,0,0,1,4.47,2.55,8.68,8.68,0,0,1,6.09,2.3s4.09-.6,4.8.1,4.19,0,4.19,0,3.49-7.39,5.79-5.25,12,2,12,2c1.3-1.73,4.46-3,6.44-3.58a8.64,8.64,0,0,1,5.21-.09,6.61,6.61,0,0,1,2,1l5.93,5.79s1.7-2.2,1.5-2.7,2-.9,2-.9,2.9-.9,4-1.2,2.1.89,2.2,1a11.94,11.94,0,0,1-.51-4.39,5.19,5.19,0,0,0-1.2-3.58c3.49-8.59,11.39-1.4,11.39-1.4s.9,4.69.1,6.49.8,5.59.6,6.59.4,2.7.4,4.6a28.09,28.09,0,0,1-1.6,7.09c-.58,1.6-5.39,5.19-5.39,5.19s-.3,5.7-2.4,9-.78,14.56-.78,14.56,2,8.79,4.49,11.59S412.25,140.55,412.25,140.55Z"/><path class="cls-13" d="M358.81,74.83s-1.1-3.29-2.1-3.58a23.11,23.11,0,0,1-2.9-1.3l.64-1.23s3.75,1,4.35,2.13S358.81,74.83,358.81,74.83Z"/><path class="cls-13" d="M338.74,67.54c-.2,1-9.09,1.9-9.09,1.9l4.49-4.51.11,0a17.8,17.8,0,0,1,4.48,2.57Z"/><path class="cls-25" d="M313,53a.8.8,0,1,1-.56.23A.77.77,0,0,1,313,53Z"/><path class="cls-25" d="M314,54.63a.8.8,0,1,1-.56.23A.77.77,0,0,1,314,54.63Z"/><path class="cls-25" d="M315,56.11a.8.8,0,1,1-.56.23A.77.77,0,0,1,315,56.11Z"/><path class="cls-25" d="M316.08,57.7a.8.8,0,1,1-.56.23A.77.77,0,0,1,316.08,57.7Z"/><path class="cls-25" d="M410.24,57.76a.65.65,0,1,1-.46.19A.62.62,0,0,1,410.24,57.76Z"/><path class="cls-25" d="M410.34,59.24a.65.65,0,1,1-.46.19A.62.62,0,0,1,410.34,59.24Z"/><path class="cls-25" d="M410.43,60.71a.65.65,0,1,1-.46.19A.62.62,0,0,1,410.43,60.71Z"/><path class="cls-13" d="M358.85,101.9c-.1-.12,22.42,28.32,39.9,11.89C398.77,113.79,371.15,117.53,358.85,101.9Z"/><path class="cls-13" d="M345.93,116.68s13.47.37,14.88,4.24v4a2.58,2.58,0,0,1-2.51,0c-1.36-.74-9.51-4.87-12.38-2.88Z"/><path class="cls-20" d="M346.18,116.68s12.89.35,14.24,4.05v3.84a2.47,2.47,0,0,1-2.4,0c-1.3-.69-9.09-4.64-11.83-2.74Z"/><path class="cls-13" d="M353.28,87.42a43.36,43.36,0,0,0,5.23,9,35.17,35.17,0,0,0,8.17,7.9S353.51,89.27,353.28,87.42Z"/><path class="cls-13" d="M348.87,71.77s2.25,9.7,8,13Z"/><path class="cls-13" d="M345.43,72.75c-.06-.18-2,7.66,7.47,12C352.89,84.77,348.87,83.4,345.43,72.75Z"/><path class="cls-13" d="M404.26,66.24c-.15,0,4.67,3.06,6,4.49C410.25,70.73,407.11,66,404.26,66.24Z"/><path class="cls-22" d="M373.78,59.53a1.87,1.87,0,0,0,2,1.85c3.62.22,7.4.38,10.73-1a4.08,4.08,0,0,0,1.63-1.08,6.72,6.72,0,0,0,1-2.63,38.26,38.26,0,0,1,2.19-5,16.91,16.91,0,0,0,1.18-9.07,6.13,6.13,0,0,0-.91-2.65c-1-1.37-2.71-1.93-4-3s-2.09-2.76-3.58-3.58a6.86,6.86,0,0,0-4.48-.4A23.54,23.54,0,0,0,371.19,36a4.27,4.27,0,0,1-2.8.95,3.74,3.74,0,0,1-2-1.58,11.06,11.06,0,0,0-.85,5.18,2.23,2.23,0,0,1,0,.78,2.35,2.35,0,0,1-.56.82c-.89,1-1.45,2.68-.57,3.73.38.45,1,.7,1.35,1.17.67.83.44,2,.43,3.11a1.6,1.6,0,0,0,.27,1.05,1.53,1.53,0,0,0,1.47.35,4,4,0,0,1,1.56-.15,2.62,2.62,0,0,1,1.36,1A19.19,19.19,0,0,1,373.78,59.53Z"/><g class="cls-26"><path d="M388.61,58.38A4.09,4.09,0,0,1,387,59.46c-3.35,1.39-7.12,1.24-10.73,1a1.88,1.88,0,0,1-2-1.86c-.7-2.55-1.35-4.9-3-7a2.62,2.62,0,0,0-1.36-1,4.19,4.19,0,0,0-1.56.15,1.53,1.53,0,0,1-1.47-.35,1.6,1.6,0,0,1-.27-1.05c0-1.07.24-2.27-.43-3.11-.37-.46-1-.72-1.35-1.17a2.33,2.33,0,0,1-.23-2.38,2.72,2.72,0,0,0-.17,3.18c.38.45,1,.7,1.35,1.17.67.84.44,2,.43,3.11a1.59,1.59,0,0,0,.26,1.05,1.53,1.53,0,0,0,1.47.35,4,4,0,0,1,1.56-.15,2.62,2.62,0,0,1,1.36,1c1.67,2.13,2.32,4.47,3,7a2.55,2.55,0,0,0,.88,1.62,2.48,2.48,0,0,0,1.12.25c3.62.22,7.4.39,10.73-1a4,4,0,0,0,1.63-1.08,3.12,3.12,0,0,0,.51-1A.25.25,0,0,1,388.61,58.38Z"/><path d="M365.49,41.06a1.74,1.74,0,0,0,.36-.6,2.22,2.22,0,0,0,0-.78,11.08,11.08,0,0,1,.56-4.3l-.07-.08a11,11,0,0,0-.85,5.18,3.69,3.69,0,0,1,0,.58Z"/></g><path class="cls-13" d="M371.66,66.73s14.85,2,16.18-.26"/><path class="cls-13" d="M400.53,60.59s8.25,0,10.07,3.11"/><path class="cls-20" d="M446.71,336.49a13.09,13.09,0,0,1-8.91,3.33c-.84,0-2,.16-2,1a1.4,1.4,0,0,0,.25.68,8.2,8.2,0,0,0,4.6,3.61,16.25,16.25,0,0,0,5.56.35l5.44-.28c1-.06,2-.11,3.06-.24s2.14-.34,3.2-.51a41.9,41.9,0,0,1,7.92-.37,2.4,2.4,0,0,0,2-.51c.42-.51.2-1.49,0-2.25-.33-1.58,0-3.23-.3-4.82-.51-2.78-2.92-4.91-5.55-5.92-2.45-.93-6.79-2-9.11-.44S448.91,334.49,446.71,336.49Z"/><path class="cls-10" d="M452.11,243.4c.48,2.28,2.69,4,2.75,6.36.06,1.87-1.28,3.44-2.24,5a33.6,33.6,0,0,0-2.28,5.17,79,79,0,0,1-6.7,13.33c-1.28,2-2.71,4.22-2.42,6.6a9.89,9.89,0,0,0,1.16,3.16l3.83,7.61a22,22,0,0,1,2,4.81c.33,1.45.36,2.94.56,4.41.6,4.67,2.79,9.37,1.5,13.89-.11.39-.51.86-.82.59a14.56,14.56,0,0,1,2.19,7.43c-.05,1.4-.48,2.87,0,4.18a4.57,4.57,0,0,1,.6,1.64,10.49,10.49,0,0,1-.22,1.13,2.49,2.49,0,0,0,1.91,2.32c1,.34,2.15.32,3.18.63,2,.6,3.42,2.31,5.11,3.5a10.87,10.87,0,0,0,5.88,1.92,1.48,1.48,0,0,0,.87-.17,1.41,1.41,0,0,0,.48-1.05,5.84,5.84,0,0,0-2.1-5.08,2.3,2.3,0,0,1-.78-.82,2,2,0,0,1-.07-.91,68.83,68.83,0,0,0-.22-12.57,19.08,19.08,0,0,1-.2-4,16.34,16.34,0,0,0,.32-3.33,17.65,17.65,0,0,0-1-3.19,23,23,0,0,1-.51-5.93,52,52,0,0,0-1.68-10.22,7.73,7.73,0,0,0-1.59-3.69c-.8-.83-2.08-1.63-1.78-2.74a3.24,3.24,0,0,1,.73-1.09,4.37,4.37,0,0,0,.91-3.33,1.5,1.5,0,0,0,1.72-.81,26.93,26.93,0,0,0,13.47-15.32,5.06,5.06,0,0,1,.6-1.37,6.17,6.17,0,0,1,2.47-1.6c2.79-1.4,4.71-4,6.48-6.61A11.68,11.68,0,0,0,489,245l.16-6a3.24,3.24,0,0,0-.11-1.17,2.93,2.93,0,0,0-.65-1,11.54,11.54,0,0,0-6.36-3.43c-1.63-.29-3.3-.24-5-.37-3.21-.27-6.37-1.26-9.58-1-5,.37-9.53,3.87-11.91,8.33C454.78,242,453.9,243.37,452.11,243.4Z"/><path class="cls-12" d="M424.12,204.37a6.71,6.71,0,0,1-.37,2.73,1.91,1.91,0,0,1-2.24,1.15c.26-.59-.43-1.26-1.07-1.19a2,2,0,0,0-1.42,1.22,4.52,4.52,0,0,0-.41,2.77c.2,1.17.88,2.3.7,3.48-.14,1-.86,2-.48,2.87a4.64,4.64,0,0,0,.92,1.11,3.13,3.13,0,0,1-.33,4.29l9.66.19a6.82,6.82,0,0,0,1.2,4.7,29.63,29.63,0,0,0,22.09,14.42,1.92,1.92,0,0,0-.46,2.94,2.73,2.73,0,0,0,3.11.18,22.08,22.08,0,0,0,2.66-2,8.17,8.17,0,0,1,5.46-1.47c1.21.12,2.39.51,3.6.57,3.58.19,6.64-2.39,10.08-3.44,2.51-.77,5.35-.77,7.46-2.34a3,3,0,0,0,1.39-2.88,4.81,4.81,0,0,0-1-1.69,29.2,29.2,0,0,1-2.79-5.24,31.31,31.31,0,0,0-7-9.36,62.43,62.43,0,0,0-6.93-5.25,11.79,11.79,0,0,0-1.87-1.13,21,21,0,0,1-2.55-1c-1.13-.72-1.79-2-2.66-3-1.92-2.24-4.86-3.26-7.22-5-1.58-1.18-3-2.73-4.87-3.3-.92-.28-1.9-.3-2.81-.58-2.09-.63-3.61-2.49-5.66-3.24-1.62-.59-3.41-.44-5.11-.65a12,12,0,0,1-5.34-2,6.33,6.33,0,0,0-1.7-1c-2.59-.79-2.8,4-3.06,5.71A55,55,0,0,0,424.12,204.37Z"/><path class="cls-18" d="M426.64,220.54c.43,4.71-3.12,9.27-2.08,13.88.22,1,.64,1.92.8,2.91.43,2.73-1.2,5.32-2.76,7.61l-13.38,19.64a12.35,12.35,0,0,1-1.91,2.36c-2.55,2.27-6.4,2-9.76,2.72a16.86,16.86,0,0,0-6.54,2.89.42.42,0,0,0-.08.59,5.62,5.62,0,0,0,4.86,2.28c.35.46,0,1.14-.49,1.48-.72.51-1.71.63-1.85,1.85a2,2,0,0,0,.25,1.23A3.82,3.82,0,0,0,396,281.6c4.63,1.42,9.64-1.07,13.11-4.46s6-7.66,9.36-11.1c1.88-1.91,4-3.54,6-5.39,3.87-3.69,6.89-8.17,9.79-12.66a14,14,0,0,0,2.12-4.31c.36-1.57.19-3.16.61-4.67.54-2,2-3.58,3.21-5.24a17.33,17.33,0,0,0,3.65-11.3c-.32-4-2.81-8-6.61-9.37a5.94,5.94,0,0,0-3.7-.22,8.77,8.77,0,0,0-3.77,3l-2.55,2.93a6.84,6.84,0,0,0-1.44,2.25,2.35,2.35,0,0,0,.51,2.5"/><path class="cls-12" d="M433.43,201.23c-1.76.1-3.69.28-4.93,1.53a7,7,0,0,0-1.25,2c-1.21,2.46-2.38,5-2.47,7.76a35.52,35.52,0,0,0,.89,6.49c.28,1.8-.42,3.63-.56,5.45a37.82,37.82,0,0,0,7-2.71,23.57,23.57,0,0,1,4.12-2.14c2.1-.7,5.62.51,7.62,1.48.11-1.4-.94-3.84-.83-5.25a5.86,5.86,0,0,1,.31-1.74,10.53,10.53,0,0,1,1.06-1.68,6.88,6.88,0,0,0-.62-8.06c-1.77-2-4.55-2.74-7.19-3.06a31.11,31.11,0,0,0-5-.17"/></g></g></svg>