<svg xmlns="http://www.w3.org/2000/svg" viewBox="0 0 535.16 527.98"><defs><style>.cls-1,.cls-2{fill:#5cb892;}.cls-1{opacity:0.23;}.cls-3{fill:#3f3d56;}.cls-4{fill:#2f2e41;}.cls-5{fill:#a0616a;}.cls-6{fill:#d0cde1;}.cls-7{fill:#fff;}.cls-8{fill:none;stroke:#5cb892;}.cls-9{fill:#f2f2f2;}</style></defs><title>vcAsset 2ReplytoStory</title><g id="Layer_2" data-name="Layer 2"><g id="Layer_1-2" data-name="Layer 1"><path class="cls-1" d="M505.7,220.61c-29.09-114.39-129.6-197-247.59-200.27-62.37-1.75-128,18.94-175.79,91.33C-3.1,241.07,87.57,330.49,150.78,373a395.55,395.55,0,0,1,81.76,73.48c42.7,50.67,124.84,113.64,222.67,15C526.13,389.94,525.08,296.81,505.7,220.61Z"/><path class="cls-2" d="M139.52,527.74q30.65-8,58.93-13.57l-7.25-24.22c2.52-1.4,13.43,12.62,13.43,12.62l-9.2-70.06c12.6,2.81,18.44,74.27,18.44,74.27L228.17,483l-7,27c57.7-10.08,107.48-13.2,149.33-12.45l-6.2-20.73c2.52-1.4,13.43,12.62,13.43,12.62l-9.2-70.06c12.6,2.81,18.43,74.27,18.43,74.27l14.29-23.81-7.46,28.56a512.21,512.21,0,0,1,85.69,11.56c-6.18-32.22-27.82-63.21-27.82-63.21,16.64,8.65,25.3,22.73,29.77,35.78.67-39.61-1.08-113.1-17.92-194.79,0,0,33.52,126.11,28.43,210.17l-.65,14.93C520.5,520.38,535.16,528,535.16,528Z"/><path class="cls-3" d="M266.17,508.28c-.14-.23-3.49-5.83-4.66-17.45-1.07-10.66-.38-28.64,8.94-53.71,17.66-47.5-4.07-85.82-4.29-86.21l1.07-.62c.06.1,5.66,9.87,9,25.43a110.93,110.93,0,0,1-4.59,61.83C254,485,267.1,507.42,267.23,507.64Z"/><path class="cls-2" d="M259.27,332a8,8,0,1,1-1.57.15A8,8,0,0,1,259.27,332Z"/><path class="cls-3" d="M284.67,361.75a8,8,0,1,1-1.57.15A8,8,0,0,1,284.67,361.75Z"/><path class="cls-2" d="M267.32,381.58a8,8,0,1,1-1.57.15A8,8,0,0,1,267.32,381.58Z"/><path class="cls-2" d="M288.39,398.31a8,8,0,1,1-1.57.15A8,8,0,0,1,288.39,398.31Z"/><path class="cls-3" d="M261.13,424.33a8,8,0,1,1-1.57.15A8,8,0,0,1,261.13,424.33Z"/><path class="cls-2" d="M271,508.58s-8.05-19.82,16.11-34.69Z"/><path class="cls-2" d="M261.14,508.22s-3.67-21.08-32-20.9Z"/><path class="cls-4" d="M384.47,174.27c-15.39,0-27.86,13.84-27.86,30.92v21.7h6.67l3.86-8-1,8h42.89l3.51-7.31-.88,7.31h4.83v-17C416.53,190.2,402.18,174.27,384.47,174.27Z"/><path class="cls-5" d="M358.29,274.59l-4.63,17.74,43.2-1.54-.77-14.66S363.69,267.64,358.29,274.59Z"/><polygon class="cls-5" points="316.64 345.55 330.53 376.4 343.64 360.21 332.84 338.61 316.64 345.55"/><polygon class="cls-5" points="351.35 458.94 352.89 494.42 369.87 494.42 367.55 458.94 351.35 458.94"/><path class="cls-4" d="M331.3,313.15,339,338.61,350.58,462s10.8,3.09,18.51-.77l1.54-17,3.09-97.19s14.66-7.71,13.11-18.51-5.4-25.45-5.4-25.45Z"/><path class="cls-4" d="M355.21,485.94h-4.63s-13.11,13.88-17.74,15.43-28.54,14.66-9.26,17,31.63-7.71,31.63-7.71a17.62,17.62,0,0,0,14.66.77c8.48-3.09,3.86-12.34,3.86-12.34s-4.31-14.11-4.47-14S364.47,492.11,355.21,485.94Z"/><path class="cls-5" d="M379.12,186.65q.87,0,1.74.09t1.72.26q.85.17,1.69.42t1.64.59q.81.33,1.57.74t1.49.9q.72.48,1.4,1t1.29,1.17q.62.62,1.17,1.29t1,1.4q.48.72.9,1.49t.74,1.57q.33.81.59,1.64t.42,1.69q.17.85.26,1.72t.09,1.74q0,.87-.09,1.74t-.26,1.72q-.17.85-.42,1.69t-.59,1.64q-.33.81-.74,1.57t-.9,1.49q-.48.72-1,1.4t-1.17,1.29q-.62.62-1.29,1.17t-1.4,1q-.72.48-1.49.9t-1.57.74q-.81.33-1.64.59t-1.69.42q-.85.17-1.72.26t-1.74.09q-.87,0-1.74-.09t-1.72-.26q-.85-.17-1.69-.42t-1.64-.59q-.81-.33-1.57-.74t-1.49-.9q-.72-.48-1.4-1t-1.29-1.17q-.62-.62-1.17-1.29t-1-1.4q-.48-.73-.9-1.49t-.74-1.57q-.33-.81-.59-1.64t-.42-1.69q-.17-.85-.26-1.72t-.09-1.74q0-.87.09-1.74t.26-1.72q.17-.85.42-1.69t.59-1.64q.33-.8.74-1.57t.9-1.49q.48-.72,1-1.4t1.17-1.29q.62-.62,1.29-1.17t1.4-1q.72-.48,1.49-.9t1.57-.74q.81-.33,1.64-.59t1.69-.42q.85-.17,1.72-.26T379.12,186.65Z"/><path class="cls-5" d="M405.35,227.53l-8.16,6.8-1.1.91-.77,9.26H365.24s4.1-3.56,7.91-7.24c.08-.08.16-.18.25-.26l1.4-1.38.63-.65.93-1v0a30.1,30.1,0,0,0,2.22-2.61h0a9,9,0,0,0,.52-.76C381.44,226.76,376,219,376,219l17-8.48c.59,8.36,7.67,13.95,10.83,16C404.76,227.22,405.35,227.53,405.35,227.53Z"/><path class="cls-5" d="M447,357.12c-11.57,3.09-12.34-20.06-12.34-20.06l-15.79-31.58a73,73,0,0,1-6.8-21.19l-3.63-22.82-1.1,1.32h0l-2,1-12-19.28-3.38-5.4v-6.17l11.57-5.4h4.63l.28,0c2.13-.22,16-1.15,16.69,12.37.28,5.31.26,9.7.11,13.15a101.86,101.86,0,0,0,2.69,28.39,34.91,34.91,0,0,0,2.6,7.82c3.09,5.4,13.88,47.82,13.88,47.82S458.57,354,447,357.12Z"/><path class="cls-5" d="M376,236l-2.92,5.33-1.73,3.16-8.46,15.43s-2.4,2-6.29,4.49c-6.46,4.2-17.06,10-27.65,10.94-17,1.54-.77-53.22-.77-53.22s5.4-21.6,13.11-19.28,1.54,10-3.86,24.68-.77,30.85-.77,30.85,16.2-10,24.68-17.74c4.42-4,8.21-5.11,10.83-5.22h0a9.81,9.81,0,0,1,2.58.2A5.84,5.84,0,0,1,376,236Z"/><path class="cls-6" d="M378.6,231.39c0,.08-.39.77-3.16,3.59A37.2,37.2,0,0,0,378.6,231.39Z"/><path class="cls-6" d="M408,261.86l-.72.94-11.24,19.5s-14.66-5.4-25.45-6.94a15.13,15.13,0,0,0-15.42,6.92L358.29,270l-1.66-5.54c-.19-.65-.42-1.37-.66-2.18-2.31-7.71,6.17-16.2,6.17-16.2l10.06-10.62h0a9.83,9.83,0,0,1,2.58.2l-1.4,1.38c-.09.08-.18.18-.25.26-3,3-1.42,3.86,0,4.08a6.8,6.8,0,0,0,1.38.07c3.22.46,10.26-2.36,15.43-4.72,3.52-1.6,6.17-3,6.17-3l6.73-6.17,1-.93c.93.61,1.51.93,1.51.93h.77l.28,0-3.51,2.61a13.06,13.06,0,0,0-5.25,11.31Z"/><path class="cls-4" d="M366,283.84l-11.28,4.4s-61.23-23.69-70.49-4.4,32.4,65.57,32.4,65.57l18.51-8.49-7.71-23.14s44.74,37.8,63.25,17,6.17-50.27,6.17-50.27S385.29,275.36,366,283.84Z"/><path class="cls-4" d="M333.61,367.92l-6.94,5.4s6.17,24.68,3.86,28.54-6.94,14.66,1.54,13.88,17.74-13.88,18.51-18.51,6.17-18.51,6.17-18.51,9.26-21.6,2.31-22.37-18-1.29-18-1.29Z"/><path class="cls-4" d="M392.39,182.78a14.61,14.61,0,0,0-11.53-5.88h-.55c-10.55,0-19.1,9.54-19.1,21.32h3.53l.57-4.34.84,4.34h21l1.76-3.68-.44,3.68h4.12q2.89,14.33-8.29,28.67h7l3.51-7.35-.88,7.35h13.39L409.95,210C409.95,197.32,402.59,186.58,392.39,182.78Z"/><path class="cls-2" d="M260.09,75.05a18.12,18.12,0,0,1-5.82-35.27V66h11.65V39.78a18.12,18.12,0,0,1-5.82,35.27ZM77,75.05a18.12,18.12,0,0,1-5.82-35.27V66H82.81V39.78A18.12,18.12,0,0,1,77,75.05ZM265.91,33V0H254.27V33H82.81V0H71.17V33H0V212.86H337.08V33Z"/><rect class="cls-7" x="16.17" y="93.49" width="58.23" height="44"/><rect class="cls-7" x="98.34" y="93.49" width="58.23" height="44"/><rect class="cls-7" x="180.51" y="93.49" width="58.23" height="44"/><rect class="cls-7" x="262.68" y="93.49" width="58.23" height="44"/><rect class="cls-7" x="16.17" y="150.43" width="58.23" height="44"/><rect class="cls-7" x="98.34" y="150.43" width="58.23" height="44"/><rect class="cls-7" x="180.51" y="150.43" width="58.23" height="44"/><rect class="cls-7" x="262.68" y="150.43" width="58.23" height="44"/><polygon class="cls-2" points="203.53 125.39 198.16 117.97 199.62 116.91 203.74 122.59 219.46 106.43 220.76 107.69 203.53 125.39"/><polygon class="cls-8" points="203.53 125.39 198.16 117.97 199.62 116.91 203.74 122.59 219.46 106.43 220.76 107.69 203.53 125.39"/><polygon class="cls-9" points="42.98 446.63 29.65 441.36 16.32 436.1 27.54 427.19 38.76 418.27 40.87 432.45 42.98 446.63"/><polygon class="cls-9" points="110.73 390.55 98.14 397.39 85.55 404.24 85.91 389.91 86.28 375.58 98.5 383.07 110.73 390.55"/><polygon class="cls-2" points="121.53 182.39 116.16 174.97 117.62 173.91 121.73 179.59 137.46 163.43 138.76 164.69 121.53 182.39"/><polygon class="cls-8" points="121.53 182.39 116.16 174.97 117.62 173.91 121.73 179.59 137.46 163.43 138.76 164.69 121.53 182.39"/></g></g></svg>