<svg xmlns="http://www.w3.org/2000/svg" viewBox="0 0 536 398.14"><defs><style>.cls-1{fill:#5cb892;opacity:0.23;}.cls-2{fill:#3f3d56;}.cls-3{fill:none;stroke:#00ade6;stroke-miterlimit:10;stroke-width:2px;opacity:0.8;}.cls-4{fill:#00ade6;}</style></defs><title>vcAsset 5ReplytoStory</title><g id="Layer_2" data-name="Layer 2"><g id="Layer_1-2" data-name="Layer 1"><path class="cls-1" d="M493.8,96.78c-60.83-84.65-189.35-119-315.73-82C111.25,34.33,46.83,73.5,14.9,149.36-42.17,285,77.66,328.27,156,342.08A423.75,423.75,0,0,1,262.2,375.23C320.86,402.69,424.71,427,503,312.63,559.77,229.72,534.32,153.17,493.8,96.78Z"/><path class="cls-2" d="M141.1,113.53a15.67,15.67,0,0,0-1-3.92,1.77,1.77,0,0,0-.9-1.11,1.86,1.86,0,0,0-.9,0l-4.6.7a1.76,1.76,0,0,0-1,.41c-.6.63,0,1.64,0,2.51a2.36,2.36,0,0,1-1.83,2,6.91,6.91,0,0,1-2.91,0l-6.43-1a10.59,10.59,0,0,0,4.86-3.24c.85-1,1.3-2.87.07-3.35a3,3,0,0,0-1.12-.09c-2.91,0-5.2-2.41-7.93-3.43a8.77,8.77,0,0,0-9.86,2.94l3.42.17a1.52,1.52,0,0,1,.91.24c.75.62-.18,1.8-.08,2.77.14,1.25,1.8,1.52,3.06,1.65s2.85,1.15,2.24,2.25c-6.31,2.17-12.73-4.25-19.35-3.46a39.32,39.32,0,0,0-4.9,1.27c-10,2.53-20.34-4.22-30.55-2.79a38.8,38.8,0,0,0-6.67,1.76,9,9,0,0,0-3.85,2,3.09,3.09,0,0,0-.44,4,22.39,22.39,0,0,1-7.84-.75,4.39,4.39,0,0,1,2.26,3.87,46.53,46.53,0,0,0-11.92,3.63,20.08,20.08,0,0,0,2.47,3.29L31,129.18a3,3,0,0,1,1.65,4.35c1.83-.81,3-2.91,4.91-3.34a6.62,6.62,0,0,1,3.8.74,5.93,5.93,0,0,0,3.8.6c1.26-.37,2.18-2,1.38-3a65,65,0,0,1,16.51-2.58,2.07,2.07,0,0,1,1.25.24c.73.51.54,1.6.5,2.48s.65,2,1.44,1.65c-.93.81-.14,2.33.76,3.18s2,2,1.42,3.12c-.14.29-.38.52-.52.81-.41.86.24,1.86,1,2.43a8.5,8.5,0,0,1,2.22,1.76c.53.79.29,2.17-.65,2.28l-2.68-3.4A7,7,0,0,0,66,143.88a7.2,7.2,0,0,1,.89,9.85c-1.22,1.43-2.94,2.3-4.45,3.41s-2.91,2.7-2.9,4.58c0,3.24-.26,6.25,1,9.26a142.56,142.56,0,0,0,7.74,16.15c.77,1.37,1.76,2.87,3.31,3.11q-2.94-7.16-5.29-14.54c1,0,2.2.09,2.8.91a5.81,5.81,0,0,1,.54,2.45,7.59,7.59,0,0,0,1,2.28L79.92,198c.78,1.38,1.67,2.87,3.15,3.43.95.36,2,.29,2.92.81.68.4,1.14,1.12,1.84,1.5,2,1.08,4.71-1,6.56.3a18.45,18.45,0,0,1,1.35,1.37c1.7,1.47,4.49.49,6.46,1.59,1.27.71,1.92,2.13,2.6,3.41,1.69,3.22,4.43,6.37,8.06,6.63a22.46,22.46,0,0,1,3.42.12c1.11.25,2.21,1.22,2,2.35-.31,1.93.65,4.05.39,6-.47,3.53-5.48,5.09-5.91,8.63a20,20,0,0,1-.13,2.33c-.23.93-.92,1.69-1.17,2.61-.47,1.75.78,3.49,2.16,4.67s3,2.19,3.78,3.84.41,3.78.66,5.67c.57,4.15,4.15,7.22,7.83,9.2a8.18,8.18,0,0,1,3.05,2.24c.95,1.37.85,3.17,1.17,4.8.78,4,4.14,7.3,4.24,11.37.07,2.9-1.54,5.52-2.5,8.25a19.25,19.25,0,0,0,1.57,16,25.58,25.58,0,0,1,2.09,3.68c.91,2.35.61,5,1.45,7.4,1.11,3.14,4.15,5.73,3.86,9.05,1.38,2.87,4.43,4.28,7.5,5.13l5.49,1.53a7.06,7.06,0,0,0,3.22.38,2.42,2.42,0,0,0,2.07-2.19c-2.69-.61-5.48-1.25-7.7-2.9s-3.74-4.57-2.9-7.2c.39-1.22,1.22-2.63.43-3.64-.45-.58-1.28-.73-1.79-1.25-.8-.82-.52-2.2,0-3.19a10.77,10.77,0,0,0,1.63-3,3.12,3.12,0,0,0-1.46-3.25,7.77,7.77,0,0,0,2.72-1.75,2.65,2.65,0,0,0,.48-3c1.67.21,3.64.32,4.74-1a4.25,4.25,0,0,0,.47-3.85,16.42,16.42,0,0,1-.95-3.91,71.19,71.19,0,0,0,11.55-.39,7.49,7.49,0,0,0-3.51-4.4c1.74-.29,3.32-2.37,3.87-4a10.41,10.41,0,0,0,.07-5.22,2.8,2.8,0,0,1-.05-1.37,2.67,2.67,0,0,1,1.37-1.33l8.62-4.95a5,5,0,0,0,1.38-1,4.09,4.09,0,0,0,.31-4,20,20,0,0,1-1.38-3.93c-.53-4.13,3.89-7.09,5.38-11a16.55,16.55,0,0,0,.82-4.82c.12-1.75.13-3.79-1.21-4.91s-3.3-.84-4.65-1.85-1.66-2.71-3-3.46-2.77-.25-4.13-.56c-2.4-.56-3.91-3.33-6.37-3.59-1.38-.14-3,.53-4.09-.27s-1-2.14-1.23-3.35a9.36,9.36,0,0,0-7.55-7.57c-1.43-.23-3-.14-4.2-.93S145,217,144,215.85c-1.56-1.77-4-2.4-6.3-2.94l-9.34-2.2c-1.66-.39-3.8-.6-4.69.86a6.71,6.71,0,0,0-.55,1.74,5.4,5.4,0,0,1-5.08,3.82,6,6,0,0,0-3.54-2.74,22,22,0,0,1-2.86-.68,4,4,0,0,1-1.75-5.58,5,5,0,0,0-.86-6,8.13,8.13,0,0,0-6-1.63c-.56-1.22.37-2.59,1.38-3.48s2.23-1.75,2.44-3.08c.34-2.08-2.31-3.66-4.32-3s-3.3,2.57-4.15,4.5a13.26,13.26,0,0,1-1.67,3.2,3.28,3.28,0,0,1-3.18,1.3c-1.66-.42-2.3-2.39-2.66-4.06A26.43,26.43,0,0,1,90,189a8.9,8.9,0,0,1,2.57-6.2c2.76-2.53,7-2.28,10.7-1.88a2.72,2.72,0,0,1,.28-3.59,4.08,4.08,0,0,1,3.7-.91,5.1,5.1,0,0,1,2.87,1.71c1.06,1.29,1.36,3,2.16,4.49s2.59,2.71,4.06,1.93c1.27-.68,1.47-2.44,1.16-3.84s-1-2.77-.87-4.2c.22-2.74,3.06-4.39,5.56-5.51s5.37-2.64,5.77-5.36a4.89,4.89,0,0,1,.3-1.56,3.06,3.06,0,0,1,1.12-1.05c7.31-4.83,14.74-9.72,23.09-12.36.43-.14.49,0,.93-.09.62-.36.21-1.35-.39-1.75s-1.39-.71-1.54-1.41c-.11-.51.19-1,.27-1.54a1.92,1.92,0,0,0-2.52-1.95c-.67-.89.66-1.92,1.73-2.22a47,47,0,0,1,9.87-1.61,1.78,1.78,0,0,1,1.12.19,1.34,1.34,0,0,1,.09,1.83,10.8,10.8,0,0,1-1.51,1.37,4.12,4.12,0,0,0-1.07,4.15c1.74.89,3.64,1.8,5.57,1.49s3.64-2.48,2.74-4.21-3.38-2-3.82-3.74c-.51-2.07,2.42-3.91,1.76-5.94-.29-.89-1.17-1.41-1.85-2.05a5.57,5.57,0,0,1-1.22-6.17,7,7,0,0,1-6.16-1.93c-1.47-1.49-2.65-3.83-4.74-3.77-1.92.06-3.57,2.3-5.37,1.62-.44-.17-.91-.51-1.34-.31a1.1,1.1,0,0,0-.5.83c-.46,2.18.33,4.67-.86,6.55-1.29,2.05-4.29,2.34-5.85,4.19-.85,1-1.18,2.36-2,3.42s-2.44,1.73-3.38.81a4.66,4.66,0,0,0-1.27-5.67,12.45,12.45,0,0,0-2.8-1.36,16.59,16.59,0,0,1-3.13-1.74,3.08,3.08,0,0,1-1.15-1.23,2.8,2.8,0,0,1,.08-1.94,7.94,7.94,0,0,1,6.32-5.24c1.25-.17,2.71-.11,3.53-1.06.44-.5.67-1.27,1.3-1.47a1.92,1.92,0,0,1,1.2.15l4.67,1.64a3.28,3.28,0,0,0,1.66.27,1.13,1.13,0,0,0,1-1.18c-.15-.78-1.34-1.15-1.23-1.93A1.29,1.29,0,0,1,143,117a16.69,16.69,0,0,1,13.23-5.23c.59,1-.34,2.11-1.12,2.94s-1.4,2.3-.46,2.94a2.57,2.57,0,0,0,1.24.28,10.86,10.86,0,0,1,3.31,1q2.42,1.05,4.75,2.3a6,6,0,0,1,.12-3.06,2.07,2.07,0,0,1,2.45-1.33c.93.36,1.4,1.59,2.39,1.7,1.32.15,1.84-1.8,1.29-3s-1.64-2.22-1.73-3.54c-.06-.89.28-2-.43-2.54a1.94,1.94,0,0,0-.84-.3l-17.8-3.28c-1.06-.19-2.58,0-2.63,1,0,.6.51,1.19.27,1.74s-1.08.53-1.69.74a2.31,2.31,0,0,0-1.32,2.43,6.76,6.76,0,0,0,1.12,2.74C144,114.1,142.26,114,141.1,113.53Z"/><path class="cls-2" d="M126.89,98.42a5.77,5.77,0,0,0-6.33,1.9,1.27,1.27,0,0,0-.29,1.34c.35.6,1.25.36,1.91.15a4.8,4.8,0,0,1,3-.07c.62.21,1.18.59,1.8.79a1.81,1.81,0,0,0,1.85-.27,2.41,2.41,0,0,0,.46-1.73,1.39,1.39,0,0,0-.35-1.14,1.81,1.81,0,0,0-.82-.24,2.82,2.82,0,0,1-1.65-1"/><path class="cls-2" d="M133.31,96.63a1.47,1.47,0,0,0-1.42,2.07,6,6,0,0,0,2.37.15,2,2,0,0,0,1.66-1.52,3.81,3.81,0,0,1-2.7-.52"/><path class="cls-2" d="M154.85,93.64a27.26,27.26,0,0,0-6.08,2.06,4.57,4.57,0,0,1,2.92,4.59,2.39,2.39,0,0,0,0,1.13c.22.54.87.74,1.44.88a9.48,9.48,0,0,0,3.16.4,3.21,3.21,0,0,0,2.61-1.6,11.41,11.41,0,0,1,.54-1.28c1.36-2.08,5.41.43,6.88-1.57.52-.71.47-1.77,1.14-2.33a2.56,2.56,0,0,1,1.17-.45,82.3,82.3,0,0,1,8.91-1.27c1.42-.12,3.26-.63,3.27-2.05a24.67,24.67,0,0,0-15.74,2.12c-1.75.88-4.07,2.73-5.76,1.56-.63-.44-.6-1.61-1.47-2.1A4.44,4.44,0,0,0,154.85,93.64Z"/><path class="cls-2" d="M172.3,96.91l2.5.48a3.25,3.25,0,0,0-3.38,3.52c2.35.78,4.9,0,7.37.13s5.34,1.87,4.92,4.31c-.13.74-.55,1.47-.33,2.19a8.13,8.13,0,0,0,.85,1.32,3,3,0,0,1-.55,3c-.66.87-1.54,1.57-2.11,2.5-1.43,2.31-.62,5.29.23,7.87a6.94,6.94,0,0,0,1.33,2.66c1.26,1.34,3.32,1.46,5.17,1.49,1.34,0,2.88,0,3.73-1.09,1.11-1.36.33-3.47,1.06-5.07s2.35-2.07,3.88-2.51a58,58,0,0,0,8.3-2.71c3.29-1.51,6.36-3.87,10-4.06a13.7,13.7,0,0,0,3-.21,2.3,2.3,0,0,0,1.83-2.14c-.06-.87-.8-1.5-1.37-2.15s-1-1.66-.5-2.35l9.47-1.77c-.67-1.83-1.19-4.24.35-5.43.56-.43,1.3-.6,1.78-1.12a2.3,2.3,0,0,0-.53-3.16,6.09,6.09,0,0,0-3.39-1,90.94,90.94,0,0,0-12.49.11L189,93.06c-1.64.09-3.53,0-5,.51-1.27.47-2.18,1.34-3.63,1.65C177.68,95.78,174.73,95.4,172.3,96.91Z"/><path class="cls-2" d="M217.16,116.7a1,1,0,0,0-.73.17.92.92,0,0,0-.24.56,3.71,3.71,0,0,0,.54,2.66,2.6,2.6,0,0,0,2.38,1.14c1.13-.14,2-1.11,3-1.58,1.6-.72,8.38-1.85,3.69-4.39-1.62-.87-2.66-.1-3.94.47a9,9,0,0,1-4.7,1Z"/><path class="cls-2" d="M258.28,95.47a2.68,2.68,0,0,0-1.3,1.14,1.15,1.15,0,0,0,.43,1.52,1.71,1.71,0,0,0,.64.1l2.23.07c.95,0,2.13.23,2.38,1.14.19.68-.23,1.55.28,2a1.44,1.44,0,0,0,.76.3,5.16,5.16,0,0,0,2.25.07c1.62-.44.77-1.42,1.28-2.31.78-1.35.65-.53,2-1.3,1-.57,2.33-1.61,1.48-3.06C269.24,92.64,260.45,94.39,258.28,95.47Z"/><path class="cls-2" d="M302.26,94.2l-1.29.17A52.14,52.14,0,0,0,292.31,96a14.42,14.42,0,0,0,3.79.93,11.65,11.65,0,0,1,2.13.3c1.24.37,2.49,1.32,3.69.83.74-.3,1-1.08,1.6-1.49.43-.28,2-.74,2.22-1C307.2,93.28,303.38,94.05,302.26,94.2Z"/><path class="cls-2" d="M307.95,100.08a24.27,24.27,0,0,0-4.78,3.5A2.89,2.89,0,0,0,302,105.7c.07,1.11,1.25,1.75,2.27,2.18l4.14,1.75c.5-.71,0-1.68-.48-2.38s-1.14-1.5-.91-2.34,1.43-1.28,2.4-1.44c1.59-.27,5.88-.25,5.36-2.81C314.18,97.64,309.54,99.19,307.95,100.08Z"/><path class="cls-2" d="M307.11,271a4,4,0,0,0,.25,3.48A3.52,3.52,0,0,0,311,275.7a6.52,6.52,0,0,0,3.36-2.16,11.57,11.57,0,0,0,1.93-3,23.13,23.13,0,0,0,1.43-5.24L319,258.6c.29-1.51.28-6.13-2.49-4.62-.76.41-2.51,3.66-3.3,4.58-1.43,1.66-1.62,3.27-2.37,5.28C309.88,266.35,308,268.45,307.11,271Z"/><path class="cls-2" d="M453.43,305.48a20.18,20.18,0,0,1-2.63-1.25,22.19,22.19,0,0,0-1.33,7.27l6.2-3.51c.93-.53,2-1.26,2-2.33a.74.74,0,0,0-.34-.67.84.84,0,0,0-.43-.05,10.5,10.5,0,0,0-2.63.84,3.21,3.21,0,0,1-2.68,0"/><path class="cls-2" d="M486.15,307.57a13.42,13.42,0,0,0-2,.71c-1.42.72-2.39,2.1-3.67,3.05a14.56,14.56,0,0,1-4.15,1.9,1,1,0,0,0,.23,1.47,2.88,2.88,0,0,0,1.64.37,8.65,8.65,0,0,0,4.41-.68,13.89,13.89,0,0,0,2.08-1.65,22,22,0,0,1,5.22-3,6,6,0,0,0,1.82-1.09c1.15-1.13,1.23-2.88-.43-3.27C490,305.12,487.42,307.15,486.15,307.57Z"/><path class="cls-2" d="M500.61,298.12a5.17,5.17,0,0,0-1.58-4.24,8.07,8.07,0,0,1-.94,4.52c-.63.92-1.61,1.54-2.29,2.42s-1,2.27-.19,3a3,3,0,0,0,1.79.62c1.6.19,3.45.29,4.58-.86.61-.63.91-1.57,1.66-2a2,2,0,0,0,.73-.52c.31-.49-.18-1.14-.73-1.31s-1.16-.09-1.71-.26-1.06-.79-.78-1.3"/><path class="cls-2" d="M474.91,240.88a7.2,7.2,0,0,1-2.57.15c-1.43-.26-2.53-1.34-3.68-2.22a16.25,16.25,0,0,0-9.5-3.32c-3.13-.06-6.28.79-9.35.2a3.69,3.69,0,0,0,2.17,2.45c1,.5,2.14.75,3.17,1.24a7.56,7.56,0,0,1,3.66,3.81,10.75,10.75,0,0,0,1,2.28c1,1.37,3,1.68,4.66,1.56,2.23-.15,4.55-.79,6.62,0,1.58.63,2.72,2,4,3.1s3.19,1.88,4.71,1.1a7.78,7.78,0,0,1-5.38-7.48c1.49.14,5.78.08,5.55-2.45C479.85,239.19,476.19,240.64,474.91,240.88Z"/><path class="cls-2" d="M455.42,258.33c.26-1.45,1.71-2.73,1.26-4.14a2.55,2.55,0,0,0-2.46-1.47c-1,0-2,.28-3,.31a14.81,14.81,0,0,0-2,0c-2,.33-3.27,2.45-5.18,3.21a31.46,31.46,0,0,1-3.67.69c-2.74.72-4.47,3.31-6.38,5.39a22.78,22.78,0,0,1-11.56,6.74c-1.56.36-3.23.59-4.47,1.6-1.64,1.34-2,3.63-2.41,5.72a94.44,94.44,0,0,1-4.6,16.88l6.5.83a8.84,8.84,0,0,0,3.71-.05,10.77,10.77,0,0,0,2.44-1.3,24.34,24.34,0,0,1,9.51-3.43,10.1,10.1,0,0,1,5.08.36,4.73,4.73,0,0,1,3.1,3.78,4,4,0,0,1,4,1,6.94,6.94,0,0,1,1.91,3.8c.17.89.34,2,1.17,2.33.67.3,1.45,0,2.18-.08,2.5-.2,4.57,2.71,7,2.21,2.63-.54,3.28-4.48,5.85-5.27,1.48-.45,3.55.1,4.25-1.28.62-1.21-.62-2.61-.49-4,.16-1.67,2.13-2.38,3.64-3.09A11.36,11.36,0,0,0,476,274.41c-1.5-3.08-4.46-5.5-5-8.88-.42-2.6.61-5.63-1.05-7.68-.84-1-2.27-1.62-2.77-2.86a14.09,14.09,0,0,1-.36-2.5c-.17-.83-.89-1.69-1.71-1.48-2.37.62-3.12,7.94-4.39,9.72A2.94,2.94,0,0,1,455.42,258.33Z"/><path class="cls-2" d="M411.64,243.64a3.81,3.81,0,0,0-2.47-.13c-.78.32-1.23,1.46-.61,2a83.61,83.61,0,0,1,14.6.28c5.56.76,11.07,2.65,16.65,2.09a84.76,84.76,0,0,0-9.72-2.25l-5.47-1a42.34,42.34,0,0,0-4.44-.69C417.07,243.67,414.71,244.5,411.64,243.64Z"/><path class="cls-2" d="M416.52,226.68c-.4,0-.9-.06-1.11.28s0,.77-.08,1.14-.81.64-1.34.57a2.56,2.56,0,0,0-1.56,0,1.32,1.32,0,0,0-.51,1.5,3.86,3.86,0,0,0,.9,1.44,14.66,14.66,0,0,0,2.34,2.34c1.67,1.24,3.94,1.83,5,3.62a2.41,2.41,0,0,0,.67.9,1.85,1.85,0,0,0,1.71-.17l1.91-.87a2.17,2.17,0,0,0,.89-.61,2,2,0,0,0-.2-2.07,3.56,3.56,0,0,1-.76-2c.14-1.3,1.82-1.8,2.51-2.92s.24-2.57.32-3.89c.09-1.54,1.06-3.55-.5-4.7-1.33-1-2.59-.07-3.54,1C421.16,224.52,420.21,227,416.52,226.68Z"/><path class="cls-2" d="M428.11,203.63c.65,1.25,2,2,2.72,3.21s.68,3,1.52,4.3,2.58,2,3.06,3.5-.67,3.6.28,5a2.11,2.11,0,0,0,3.1.28,2.27,2.27,0,0,0-.09-3.17c-.56-.51-1.37-.73-1.84-1.33a2.8,2.8,0,0,1-.48-1.16,7.59,7.59,0,0,1,.12-3.64,1.62,1.62,0,0,0,.09-1c-.21-.61-1-.66-1.63-.94-1.33-.65-1.29-2.52-1.06-4-.15,1-3.61-.68-4-1.23-.72-1.09-.33-3.2-.47-4.4A3.43,3.43,0,0,0,428.11,203.63Z"/><path class="cls-2" d="M393.29,222.84c-.64-.71-1.6-1.46-2.45-1a1.55,1.55,0,0,0-.58,1.92,4.22,4.22,0,0,0,1.39,1.66,48.57,48.57,0,0,1,5.26,4.51c2.78,3.06,4.26,7.18,7.28,10a4.09,4.09,0,0,0,2.29,1.24,1.78,1.78,0,0,0,2-1.36,2.6,2.6,0,0,0-.92-1.91c-1.18-1.28-2.46-2.46-3.57-3.79a3.19,3.19,0,0,1-.91-1.91c0-.72.65-1.47,1.35-1.29-.85-.22-1.48-1.63-2.72-1.89-1-.22-1.29.42-2.53-.11C396.79,227.85,394.94,224.69,393.29,222.84Z"/><path class="cls-2" d="M448.75,153.3a19.55,19.55,0,0,1-2-.71c-1.75-.53-4.07.76-3.84,2.58.16,1.21,1.28,2,1.9,3.06.92,1.55.67,3.52.19,5.25a4.1,4.1,0,0,1-.66,1.5,5.07,5.07,0,0,1-1.57,1.13,21,21,0,0,0-6.15,5.22,1.5,1.5,0,0,0-.37.7c-.08.61.53,1.06.88,1.57.77,1.14.21,2.66.29,4a1.14,1.14,0,0,0,.48,1c.47.24,1-.17,1.27-.62.84-1.52.21-4,1.78-4.69.3-.14.66-.2.86-.46.31-.41,0-1,.17-1.52.24-.74,1.26-.78,2-.74a11.57,11.57,0,0,0,4-.53,2.65,2.65,0,0,0,1.32-.76,2.86,2.86,0,0,0,.33-2.17,29.38,29.38,0,0,0-3.47-10.59,6.31,6.31,0,0,0,4.08-.39c.67-.4,1.47-1.61,1.14-2.43C450.87,152.42,449.92,153.52,448.75,153.3Z"/><path class="cls-2" d="M271.61,173.76a5.32,5.32,0,0,1,0,2.67,1.83,1.83,0,0,1-2.07,1.31c-.67-.2-1.06-.88-1.53-1.39-2.65-2.86-8.62-1.2-10.25-4.74-.67-1.44-.21-3.17-.67-4.69a4.18,4.18,0,0,0-4.23-2.87,8.69,8.69,0,0,0-2.43.73,61.38,61.38,0,0,1-16.13,4,13.25,13.25,0,0,0-3.1.56c-2.27.82-3.82,2.93-4.93,5.08s-1.92,4.48-3.4,6.39-3.74,3.41-5.77,4.93a5.89,5.89,0,0,0-1.9,2,6.24,6.24,0,0,0-.38,3l.42,12.23a11,11,0,0,0,.82,4.61c.88,1.76,2.62,2.91,3.82,4.46a8.74,8.74,0,0,1,1.81,5.58c0,.81-.11,1.77.52,2.28a2.31,2.31,0,0,0,1.29.37l16.54,1.35c2.91.24,6.13.63,8,2.85.9,1,1.62,2.55,3,2.66a11.12,11.12,0,0,0,1.75-.24c1.49-.12,2.79,1,3.62,2.25a10,10,0,0,1,1.61,6.41c-.14,1.42-.57,2.8-.67,4.22-.36,5.41,4.22,10.1,4.31,15.52.05,3.19-1.46,6.16-2.94,9,2.38,3.61.43,8.41,1.38,12.62.9,4,4.23,7.13,5.06,11.14.38,1.84.4,4.1,2,5a4.61,4.61,0,0,0,2.29.46,30.18,30.18,0,0,0,13.74-3.13c2-1,4.08-2.48,4.43-4.69.28-1.78-.62-3.77.3-5.33,1.08-1.83,3.86-1.68,5.45-3.09,2.59-2.28.57-6.63,1.62-9.92.94-3,4.19-4.52,5.79-7.17a12.75,12.75,0,0,0,1.35-3.65,52,52,0,0,0,1.37-9.3,55.77,55.77,0,0,1,.42-5.7c1.73-10.77,12.38-18,15.83-28.32.33-1,.49-2.3-.39-2.86a2.52,2.52,0,0,0-1.67-.18l-7.63,1a5.25,5.25,0,0,1-2.82-.16,1.81,1.81,0,0,1-1-2.33c1.3-2.35-1.37-5.31-2.55-7.71a113.84,113.84,0,0,0-11.34-18.38,1.87,1.87,0,0,1-.5-1.08l2.16.07c-.73-2.62-1.94-5.49-4.48-6.45a11.16,11.16,0,0,0-4.56-.27A66.54,66.54,0,0,1,271.61,173.76Z"/><path class="cls-2" d="M285,114.68c1.15,1.22,2.43,2.51,4.09,2.72,2.93.38,5-2.66,6.38-5.29a2.59,2.59,0,0,0,2.7,2.39,5.32,5.32,0,0,0,2-.79,40,40,0,0,1,18.94-4.9,2,2,0,0,1,1.56-2.25c1.35-.27,2.56.9,3.21,2.11s1.05,2.61,2.09,3.52,3,.87,3.44-.44-.92-2.33-2-3.07-2.24-2.11-1.5-3.21a97.82,97.82,0,0,1,16.86-2.71,7.06,7.06,0,0,0,2.84-.49A2.21,2.21,0,0,0,347,99.93a6.42,6.42,0,0,1-6.7-2.53c7.9-.65,16.3-1.21,23.3,2.51.84,1.8-3.44,3.3-2.3,4.93a2.07,2.07,0,0,0,1.73.59,85.88,85.88,0,0,0,14.57-.56,19.52,19.52,0,0,1,5.3-.43c2.94.36,5.45,2.32,8.35,3a4.47,4.47,0,0,0,3.49-.42,2.21,2.21,0,0,0,.61-3.13c2.72-2.67,7.24-2,10.83-.73s7,3.34,10.8,3.62c2.73.2,5.49-.53,8.18-.06a50.92,50.92,0,0,1,4.92,1.51c3.13.88,6.44.69,9.69.73a67.89,67.89,0,0,1,24.19,4.81,7.19,7.19,0,0,1,2.69,1.59,2.64,2.64,0,0,1,.6,2.89l-8-1.16c.75,1.48,2.69,1.73,4.27,2.24s3.21,2.25,2.26,3.61c-1.71-.54-3.25,1.16-4.12,2.73s-1.91,3.45-3.7,3.55c-1.6.09-3.54-1.28-4.58-.06a31.25,31.25,0,0,1,3.68,5.89c1,2.15,1.77,4.86.37,6.79a1.76,1.76,0,0,1-.94.73c-1.14.29-1.88-1.1-2.7-1.95-1-1.06-2.59-1.37-4-1.86s-2.86-1.48-3-3a5.9,5.9,0,0,1,.77-2.62,10.1,10.1,0,0,0,.77-4.53,5.14,5.14,0,0,0-1.32-3.41,2.65,2.65,0,0,0-3.4-.35c-.45.37-.81,1-1.39,1-1,0-1.82-1.75-2.65-1.14a2.81,2.81,0,0,1-.38,1.88c-2.47,2.15-6.26,1.24-9.45,2a17.74,17.74,0,0,0-4.31,1.88,2.77,2.77,0,0,0-1.23,1,1.91,1.91,0,0,0,.74,2.27,5.89,5.89,0,0,0,2.44.83c3.88.73,7.82,1.87,10.88,4.37s5.07,6.61,4.1,10.44l-7.65-7.31q.44,4.61.49,9.24a4.15,4.15,0,0,1-.24,1.78c-.55,1.21-2,1.61-3.32,1.88a2.6,2.6,0,0,0-2,3.33,10.87,10.87,0,0,0,2.66,3.84,7.37,7.37,0,0,1,2.22,4.05c.14,1.56-1,3.33-2.61,3.22a3.44,3.44,0,0,1-2.57-2.22,14.12,14.12,0,0,0-1.57-3.19c-2.3-2.77-7.47-1.58-9.54-4.54a4.67,4.67,0,0,0-1,4.44,2.44,2.44,0,0,1,3,.83,20.46,20.46,0,0,1,1.63,3c.76,1.32,2,2.5,2.09,4a13.14,13.14,0,0,0,0,1.73,7,7,0,0,0,1.51,2.36,6.77,6.77,0,0,1,.39,6.3,19.43,19.43,0,0,1-3.71,5.39,65,65,0,0,1-8.09,8.15,8.49,8.49,0,0,0-2.3,2.31,2.51,2.51,0,0,0,.26,3c-.58,0-1.63.32-2.22.35a51.55,51.55,0,0,1-.13-7.05c-2.31-1.11-4.79,1.86-4.49,4.4s2.14,4.58,3.44,6.78a8,8,0,0,1,1.35,5.33c-.32,1.84-2,3.54-3.83,3.38-3-.26-4.2-4.51-7.14-5a1.2,1.2,0,0,0-.77.08c-.44.24-.51.82-.54,1.32-.12,2.44-.22,5,.73,7.22,1.39,3.29,5,6,4.23,9.54-4.06-1.89-6.17-6.44-7.13-10.82s-1.12-9-2.84-13.11c-1.31,1.67-4,.29-5.24-1.47s-1.83-3.59-2.92-5.28-2.78-3.2-4.79-3.29-3.93,1.35-5.54,2.72a12.92,12.92,0,0,0-3.45,3.84c-1.12,2.26-.83,4.92-.88,7.45-.06,2.73-.64,5.61-2.5,7.6s-5.29,2.69-7.34.89a8.27,8.27,0,0,1-2.05-3.69,180.74,180.74,0,0,1-5.55-19.82c-.34,1.53-1.69,3.5-3,2.6a2.66,2.66,0,0,1-.68-.88c-2.4-4.06-6.83-6.5-11.31-8s-9.2-2.14-13.63-3.75a34.52,34.52,0,0,1-7.07-3.52,5.56,5.56,0,0,0-.34,5.69,4.53,4.53,0,0,0,5.11,2.14c1-.31,1.82-1,2.79-1.34s2.29-.17,2.71.77-.21,2,.1,2.93c.47,1.43,2.63,1.54,3.38,2.85a2.62,2.62,0,0,1-.7,3,12.72,12.72,0,0,1-2.85,1.76c-3.18,1.77-5.44,4.78-8.22,7.13s-6.7,4.06-10,2.56c.79-4-4-6.93-4.85-10.91-.29-1.31-.14-2.7-.55-4-.6-1.85-2.23-3.12-3.58-4.52a17.73,17.73,0,0,1-4.86-12.9,18.1,18.1,0,0,0,0-4.92c-.37-1.6-1.7-3.15-3.34-3.08-3.75.17-8.48.45-10.45-2.76-.7-1.14-1-2.82,0-3.69a3.57,3.57,0,0,1,2.72-.47l8.46.83c2,.19,4.12.35,5.81-.68s2.43-3.78.86-5c-1.15-.89-3.21-.84-3.54-2.25-.28-1.18,1-2.51.32-3.5-.5-.71-1.64-.51-2.33,0a14.9,14.9,0,0,1-2,1.7c-1.35.7-3,0-4.41-.42s-3.4-.49-4.1.86c-.79,1.51.7,3.48-.08,5-1,2-4.53.86-6,2.58-1.67,2,1.13,4.91.57,7.43a4.63,4.63,0,0,1-4.56-.26,4.43,4.43,0,0,1-1.91-4.12c.14-1.13.73-2.29.33-3.36a3.94,3.94,0,0,0-2-1.83l-8.22-4.54c-.76,1.42.2,3.17,1.41,4.23s2.72,1.86,3.51,3.26a4.28,4.28,0,0,1-1.61,5.65,1,1,0,0,1-.81.14,1.14,1.14,0,0,1-.53-.71c-1.45-3.71-3.63-7.37-7.11-9.31s-8.48-1.54-10.77,1.73c-.54.78-.91,1.66-1.38,2.48-2.51,4.36-7.89,6.42-12.92,6.29a2.56,2.56,0,0,1-1.41-.33c-.81-.56-.78-1.75-.65-2.73l.53-4.16a3.3,3.3,0,0,1,.92-2.28c.93-.73,2.27-.27,3.46-.29a4.39,4.39,0,0,0,4-3.07,4.94,4.94,0,0,0-1.38-4.92c-.54-.51-1.27-1.15-1-1.84a1.52,1.52,0,0,1,1.07-.72c2.13-.62,4.38-.78,6.48-1.51s4.13-2.22,4.62-4.39c.15-.66.22-1.47.82-1.79a2.45,2.45,0,0,1,.94-.19,4.59,4.59,0,0,0,3.94-4.79c1-.7,2.41-.19,3.38.56a9.52,9.52,0,0,0,3,2.05c2.2.6,4.33-1.35,6.61-1.36a8.52,8.52,0,0,0,2.86,0c.92-.33,1.46-1.24,2.16-1.91s1.94-1.08,2.58-.36l-.55-4.09a8,8,0,0,0,6.55-1.18l-7.14-2.41a1.56,1.56,0,0,1-.67-.36c-.52-.56,0-1.43.42-2.07,1-1.52,1.18-4-.48-4.78-1.13-.52-2.43.1-3.52.71l-5.21,2.91c-.17,1,1,1.55,1.8,2.22a3,3,0,0,1-2,5.26,3.75,3.75,0,0,1,.67,3.18l-3.51.25a1.52,1.52,0,0,1-1.14-.22c-.37-.33-.32-.92-.41-1.41a3.06,3.06,0,0,0-2.57-2.24,9,9,0,0,0-3.59.33,2.14,2.14,0,0,1-1.54,0,1.54,1.54,0,0,1-.61-.77,4,4,0,0,1,.8-3.8,21.09,21.09,0,0,1,3-2.75,17.42,17.42,0,0,0,5.18-8c1.93-.81,3.93-1.91,5.86-2.72a17.93,17.93,0,0,1,9.64-1.87l6.54.13a15.67,15.67,0,0,1,5.71.82,5.33,5.33,0,0,1,3.49,4.26,1.31,1.31,0,0,1-.42,1.2,1.54,1.54,0,0,1-.83.19C287.61,114.17,286.84,114.62,285,114.68Z"/><path class="cls-2" d="M232.94,135.17a1.91,1.91,0,0,0,.52-1.92,3.58,3.58,0,0,0-3.7.7,6.24,6.24,0,0,0-1,1.31c-.86,1.4-1.62,3.07-1.12,4.64a1.32,1.32,0,0,0,.6.83,1.59,1.59,0,0,0,.7.11,23.54,23.54,0,0,0,2.83-.17c.58-.07,1.25-.23,1.47-.77.29-.71-.42-1.5-.21-2.24a2.45,2.45,0,0,1,.6-.86,1.14,1.14,0,0,0,.36-1c-.08-.34-.61-.54-.8-.24"/><path class="cls-2" d="M237.85,128.81a7.91,7.91,0,0,0-2.57-.16,1.12,1.12,0,0,0-.55.12.91.91,0,0,0-.34.49,2.42,2.42,0,0,0,1.41,3,3,3,0,0,1,.87.35c.73.56.26,1.71.4,2.62s1.14,1.88,1,2.89c-.14.8-1,1.43-.86,2.23s1.21,1.09,2.06,1.16a2.59,2.59,0,0,0,1.46-.17,2.26,2.26,0,0,0,.92-1.33,8.53,8.53,0,0,0,.43-3.21,3,3,0,0,0-.36-1.42,7.92,7.92,0,0,0-.85-1C239.21,132.49,240.92,129.67,237.85,128.81Z"/><path class="cls-3" d="M451.53,276.87s-124.46-71.44-178-57.9c0,0-113.55,12.22-126.71,39.1,0,0-36.1-112.8-49.26-116.56"/><path class="cls-3" d="M146.78,258.07c20.87-55.65,208.87-117.31,208.87-117.31-26.7,6.77-82.16,78.21-82.16,78.21s-117.31-85.35-176-77.46c0,0,258.31,8.46,354,135.36"/><path class="cls-4" d="M97.52,136.06a5.46,5.46,0,1,1-1.06.1A5.44,5.44,0,0,1,97.52,136.06Z"/><path class="cls-4" d="M146.78,252.62a5.46,5.46,0,1,1-1.06.1A5.44,5.44,0,0,1,146.78,252.62Z"/><path class="cls-4" d="M355.65,135.31a5.46,5.46,0,1,1-1.06.1A5.44,5.44,0,0,1,355.65,135.31Z"/><path class="cls-4" d="M451.53,271.42a5.46,5.46,0,1,1-1.06.1A5.44,5.44,0,0,1,451.53,271.42Z"/><path class="cls-4" d="M273.49,213.52a5.46,5.46,0,1,1-1.06.1A5.44,5.44,0,0,1,273.49,213.52Z"/></g></g></svg>