<svg xmlns="http://www.w3.org/2000/svg" viewBox="0 0 536 376"><defs><style>.cls-1{fill:#5cb892;}.cls-2{fill:#3f3d56;}.cls-3{fill:#a0616a;}.cls-4{fill:#d0cde1;}.cls-5{fill:#2f2e41;}.cls-6,.cls-9{fill:#00ade6;}.cls-7{opacity:0.1;}.cls-8{fill:#81c167;}.cls-9{opacity:0.2;}.cls-10{fill:#e6e6e6;}</style></defs><title>vcAsset 3ReplytoStory</title><g id="Layer_2" data-name="Layer 2"><g id="Layer_1-2" data-name="Layer 1"><path class="cls-1" d="M201.5,345l9.89,0,9.86.06,9.82.09,9.74.13,9.65.17,9.53.2,9.39.24,9.23.27,9,.31,8.83.34,8.61.38,8.36.41,8.09.44,7.8.47,7.49.5,7.16.52,6.82.55,6.46.58q3.14.29,6.08.6t5.69.62q2.75.32,5.29.64t4.87.66q2.33.34,4.45.68t4,.7q1.89.35,3.56.71t3.1.72q1.44.36,2.64.73t2.17.74a17.06,17.06,0,0,1,1.69.75A7.84,7.84,0,0,1,402,359a3.15,3.15,0,0,1,.73.76,1.31,1.31,0,0,1,0,1.52,3.15,3.15,0,0,1-.73.76,7.84,7.84,0,0,1-1.21.76,17.06,17.06,0,0,1-1.69.75q-1,.37-2.17.74t-2.64.73q-1.44.36-3.1.72t-3.56.71q-1.89.35-4,.7t-4.45.68q-2.33.34-4.87.66t-5.29.64q-2.75.32-5.69.62t-6.08.6l-6.46.58-6.82.55-7.16.52-7.49.5-7.8.47-8.09.44-8.36.41-8.61.38-8.83.34-9,.31-9.23.27-9.39.24-9.53.2-9.65.17-9.74.13-9.82.09-9.86.06-9.89,0-9.89,0-9.86-.06-9.82-.09-9.74-.13-9.65-.17-9.53-.2-9.39-.24-9.23-.27-9-.31-8.83-.34-8.61-.37-8.36-.41-8.09-.44-7.8-.47-7.49-.5L59,371.46l-6.82-.55-6.46-.58q-3.14-.29-6.08-.6T34,369.11q-2.75-.32-5.29-.64t-4.87-.66q-2.33-.34-4.45-.68t-4-.7q-1.89-.35-3.56-.71T8.68,365q-1.44-.36-2.64-.73t-2.17-.74a17.06,17.06,0,0,1-1.69-.75A7.84,7.84,0,0,1,1,362a3.15,3.15,0,0,1-.73-.76,1.31,1.31,0,0,1,0-1.52A3.15,3.15,0,0,1,1,359a7.84,7.84,0,0,1,1.21-.76,17.06,17.06,0,0,1,1.69-.75q1-.37,2.17-.74T8.68,356q1.44-.36,3.1-.72t3.56-.71q1.89-.35,4-.7t4.45-.68q2.33-.34,4.87-.66t5.29-.64q2.75-.32,5.69-.62t6.08-.6l6.46-.58,6.82-.55,7.16-.52,7.49-.5,7.8-.47,8.09-.44,8.36-.41,8.61-.37,8.83-.34,9-.31,9.23-.27,9.39-.24,9.53-.2,9.65-.17,9.74-.13,9.82-.09,9.86-.06Z"/><path class="cls-2" d="M75.67,349.17c-.11-.18-2.73-4.56-3.64-13.65-.83-8.34-.3-22.4,7-42,13.81-37.16-3.18-67.13-3.36-67.43l.84-.49a74.42,74.42,0,0,1,7,19.89,86.77,86.77,0,0,1-3.59,48.37c-13.79,37.09-3.54,54.65-3.43,54.82Z"/><path class="cls-1" d="M70.5,212a7,7,0,0,1,1.27.12,6.91,6.91,0,0,1,1.22.34,6.7,6.7,0,0,1,1.12.55,6.42,6.42,0,0,1,1,.75,6.11,6.11,0,0,1,.81.91,5.85,5.85,0,0,1,.6,1,5.65,5.65,0,0,1,.37,1.13,5.55,5.55,0,0,1,0,2.34,5.65,5.65,0,0,1-.37,1.13,5.85,5.85,0,0,1-.6,1,6.11,6.11,0,0,1-.81.91,6.42,6.42,0,0,1-1,.75,6.7,6.7,0,0,1-1.12.55,6.91,6.91,0,0,1-1.22.34,7,7,0,0,1-2.54,0,6.91,6.91,0,0,1-1.22-.34,6.7,6.7,0,0,1-1.12-.55,6.42,6.42,0,0,1-1-.75,6.11,6.11,0,0,1-.81-.91,5.85,5.85,0,0,1-.6-1,5.65,5.65,0,0,1-.37-1.13,5.55,5.55,0,0,1,0-2.34,5.65,5.65,0,0,1,.37-1.13,5.85,5.85,0,0,1,.6-1,6.11,6.11,0,0,1,.81-.91,6.42,6.42,0,0,1,1-.75,6.7,6.7,0,0,1,1.12-.55,6.91,6.91,0,0,1,1.22-.34A7,7,0,0,1,70.5,212Z"/><path class="cls-2" d="M90.5,235a7,7,0,0,1,1.27.12,6.91,6.91,0,0,1,1.22.34,6.7,6.7,0,0,1,1.12.55,6.42,6.42,0,0,1,1,.75,6.11,6.11,0,0,1,.81.91,5.85,5.85,0,0,1,.6,1,5.65,5.65,0,0,1,.37,1.13,5.55,5.55,0,0,1,0,2.34,5.65,5.65,0,0,1-.37,1.13,5.85,5.85,0,0,1-.6,1,6.11,6.11,0,0,1-.81.91,6.42,6.42,0,0,1-1,.75,6.7,6.7,0,0,1-1.12.55,6.91,6.91,0,0,1-1.22.34,7,7,0,0,1-2.54,0,6.91,6.91,0,0,1-1.22-.34,6.7,6.7,0,0,1-1.12-.55,6.42,6.42,0,0,1-1-.75,6.11,6.11,0,0,1-.81-.91,5.85,5.85,0,0,1-.6-1,5.65,5.65,0,0,1-.37-1.13,5.55,5.55,0,0,1,0-2.34,5.65,5.65,0,0,1,.37-1.13,5.85,5.85,0,0,1,.6-1,6.11,6.11,0,0,1,.81-.91,6.42,6.42,0,0,1,1-.75,6.7,6.7,0,0,1,1.12-.55,6.91,6.91,0,0,1,1.22-.34A7,7,0,0,1,90.5,235Z"/><path class="cls-1" d="M76.5,250a6.5,6.5,0,1,1-1.27.12A6.48,6.48,0,0,1,76.5,250Z"/><path class="cls-1" d="M93,263a6,6,0,1,1-1.17.12A6,6,0,0,1,93,263Z"/><path class="cls-2" d="M71.5,284a7,7,0,0,1,1.27.12,6.91,6.91,0,0,1,1.22.34,6.7,6.7,0,0,1,1.12.55,6.42,6.42,0,0,1,1,.75,6.11,6.11,0,0,1,.81.91,5.85,5.85,0,0,1,.6,1,5.65,5.65,0,0,1,.37,1.13,5.55,5.55,0,0,1,0,2.34,5.65,5.65,0,0,1-.37,1.13,5.85,5.85,0,0,1-.6,1,6.11,6.11,0,0,1-.81.91,6.42,6.42,0,0,1-1,.75,6.7,6.7,0,0,1-1.12.55,6.91,6.91,0,0,1-1.22.34,7,7,0,0,1-2.54,0,6.91,6.91,0,0,1-1.22-.34,6.7,6.7,0,0,1-1.12-.55,6.42,6.42,0,0,1-1-.75,6.11,6.11,0,0,1-.81-.91,5.85,5.85,0,0,1-.6-1,5.65,5.65,0,0,1-.37-1.13,5.55,5.55,0,0,1,0-2.34,5.65,5.65,0,0,1,.37-1.13,5.85,5.85,0,0,1,.6-1,6.11,6.11,0,0,1,.81-.91,6.42,6.42,0,0,1,1-.75,6.7,6.7,0,0,1,1.12-.55,6.91,6.91,0,0,1,1.22-.34A7,7,0,0,1,71.5,284Z"/><path class="cls-1" d="M79.48,349.4s-6.3-15.51,12.6-27.14Z"/><path class="cls-1" d="M71.73,349.12s-2.87-16.49-25.06-16.35Z"/><path class="cls-3" d="M179.3,75.11s.48,12.6-2.42,15.51,14.54,13.08,14.54,13.08l10.18-16s-3.88-6.78-2.91-12.6Z"/><polygon class="cls-3" points="148.05 331.23 148.05 343.34 163.07 344.31 162.1 331.23 148.05 331.23"/><polygon class="cls-3" points="230.43 331.23 230.43 343.34 215.41 344.31 216.38 331.23 230.43 331.23"/><path class="cls-4" d="M155.8,197s-7.75,28.11-2.91,50.4c0,0,0,9.69,1.94,11.63s2.42,1.94,1,2.91-4.36,3.39-2.91,4.85,1.94,3.39,1,3.88-1.94,1.45-1,3.39S148,327.84,148,327.84s-5.82,6.3,0,6.78,15.51,2.91,16.48-1S173.25,275,173.25,275s1-1.45,2.91-3.88,1-3.39,1-3.88,10.18-46.52,10.18-46.52,15,52.34,16.48,53.31,1.94,1,1.94,2.42-1,2.42,0,3.88a25.21,25.21,0,0,1,1.45,2.42S209.59,337,214.44,337s19.38-1,17.93-5.33-3.39-3.39-3.39-3.39,3.39-44.58-4.85-57.67V260c0-1,.48-1.45,0-2.42s1.45-58.64-7.75-62S155.8,197,155.8,197Z"/><path class="cls-5" d="M157.25,340s-2.42-3.88-5.82-3.88-5.82,3.88-5.82,3.88l-8.72,12.12s-12.6,7.75-7.75,12.11,17.93,1.94,17.93,1.94,10.66-7.75,12.12-8.24a30.76,30.76,0,0,0,5.82-3.39c.48-.48-1-17.93-2.42-16.72S160.16,342.86,157.25,340Z"/><path class="cls-5" d="M221.22,340s2.42-3.88,5.82-3.88,5.82,3.88,5.82,3.88l8.72,12.12s12.6,7.75,7.75,12.11-17.93,1.94-17.93,1.94-10.66-7.75-12.12-8.24a30.76,30.76,0,0,1-5.82-3.39c-.48-.48,1-17.93,2.42-16.72S218.32,342.86,221.22,340Z"/><path class="cls-3" d="M187.78,47.25q.86,0,1.71.08t1.69.25q.84.17,1.66.42t1.61.58q.79.33,1.55.73t1.47.88q.71.48,1.38,1t1.27,1.15q.61.61,1.15,1.27t1,1.38q.48.71.88,1.47T203.9,58q.33.79.58,1.61t.42,1.66q.17.84.25,1.69t.08,1.71q0,.86-.08,1.71t-.25,1.69q-.17.84-.42,1.66t-.58,1.61q-.33.79-.73,1.55t-.88,1.47q-.48.71-1,1.38T200.12,77q-.61.61-1.27,1.15t-1.38,1q-.71.48-1.47.88t-1.55.73q-.79.33-1.61.58t-1.66.42q-.84.17-1.69.25t-1.71.08q-.86,0-1.71-.08t-1.69-.25q-.84-.17-1.66-.42t-1.61-.58q-.79-.33-1.55-.73t-1.47-.88q-.71-.48-1.38-1T175.45,77q-.61-.61-1.15-1.27t-1-1.37q-.48-.71-.88-1.47t-.73-1.55q-.33-.79-.58-1.61t-.42-1.66q-.17-.84-.25-1.69t-.08-1.71q0-.86.08-1.71t.25-1.69q.17-.84.42-1.66t.58-1.61q.33-.79.73-1.55t.88-1.47q.48-.71,1-1.38t1.15-1.27q.61-.61,1.27-1.15t1.38-1q.71-.48,1.47-.88t1.55-.73q.79-.33,1.61-.58t1.66-.42q.84-.17,1.69-.25T187.78,47.25Z"/><path class="cls-6" d="M183.18,92.07s-3.26.18-4.78-4.76l-25.75,18.81,10.66,28.59s1.45,15.51,0,19.87-2.42,7.75-2.42,9.69-10.18,34.41-6.3,35.86,63,7.27,64.45-2.42-4.85-73.66-4.85-73.66l10.18-24.71L199.63,83.16S197.23,93,183.18,92.07Z"/><path class="cls-3" d="M151,136.9l-1.94,15a77.26,77.26,0,0,0-5.82,37.31l-.48,14.05s-4.85,24.23,4.85,25.2S151,201.84,151,201.84l5.33-13.08,5.46-29.11,2.78-20.32Z"/><path class="cls-6" d="M159.68,105.4l-7,.73s-4.6,34.16-3.15,34.16,17.93,3.88,18.42,2.91S159.68,105.4,159.68,105.4Z"/><path class="cls-5" d="M174.32,46.81l-3.14-1.14s6.58-6.58,15.72-6l-2.57-2.57s6.29-2.29,12,3.72c3,3.16,6.48,6.87,8.65,11h3.37L207,54.66l4.92,2.81-5-.51a14.19,14.19,0,0,1-.48,7.28L205.2,67.4s-4.57-9.15-4.57-10.29V60s-3.14-2.57-3.14-4.29l-1.72,2-.86-3.14-10.58,3.14L186,55.1l-6.58.86L182,52.82s-7.43,3.72-7.72,6.86-4,7.15-4,7.15L168.61,64S166,51.1,174.32,46.81Z"/><path class="cls-2" d="M220.13,203.29a22.79,22.79,0,0,1,3.17.22,23.47,23.47,0,0,1,3.14.66,24.82,24.82,0,0,1,3.08,1.1,26.79,26.79,0,0,1,3,1.52,29.35,29.35,0,0,1,2.87,1.93,32.54,32.54,0,0,1,2.72,2.32,36.18,36.18,0,0,1,2.55,2.69q1.23,1.43,2.35,3t2.13,3.35q1,1.75,1.89,3.63t1.63,3.88q.75,2,1.36,4.08t1.07,4.25q.46,2.16.77,4.38t.47,4.47q.16,2.25.16,4.51t-.16,4.51q-.16,2.25-.47,4.47t-.77,4.38q-.46,2.16-1.07,4.25T248.66,271q-.75,2-1.63,3.88t-1.89,3.63q-1,1.75-2.13,3.35t-2.35,3a36.18,36.18,0,0,1-2.55,2.69,32.54,32.54,0,0,1-2.72,2.32,29.35,29.35,0,0,1-2.87,1.93,26.79,26.79,0,0,1-3,1.52,24.86,24.86,0,0,1-3.08,1.1,23.46,23.46,0,0,1-3.14.66,22.79,22.79,0,0,1-6.34,0,23.47,23.47,0,0,1-3.14-.66,24.85,24.85,0,0,1-3.08-1.1,26.79,26.79,0,0,1-3-1.52,29.35,29.35,0,0,1-2.87-1.93,32.54,32.54,0,0,1-2.72-2.32,36.18,36.18,0,0,1-2.55-2.69q-1.23-1.43-2.35-3t-2.13-3.35q-1-1.75-1.89-3.63T191.6,271q-.75-2-1.36-4.08t-1.07-4.25q-.46-2.16-.77-4.38t-.47-4.47q-.16-2.25-.16-4.51t.16-4.51q.16-2.25.47-4.47t.77-4.38q.46-2.16,1.07-4.25t1.36-4.08q.75-2,1.63-3.87t1.89-3.63q1-1.75,2.13-3.35t2.35-3a36.18,36.18,0,0,1,2.55-2.69,32.54,32.54,0,0,1,2.72-2.32,29.35,29.35,0,0,1,2.87-1.93,26.79,26.79,0,0,1,3-1.52,24.82,24.82,0,0,1,3.08-1.1,23.47,23.47,0,0,1,3.14-.66A22.79,22.79,0,0,1,220.13,203.29Z"/><path class="cls-7" d="M220.13,203.29a22.79,22.79,0,0,1,3.17.22,23.47,23.47,0,0,1,3.14.66,24.82,24.82,0,0,1,3.08,1.1,26.79,26.79,0,0,1,3,1.52,29.35,29.35,0,0,1,2.87,1.93,32.54,32.54,0,0,1,2.72,2.32,36.18,36.18,0,0,1,2.55,2.69q1.23,1.43,2.35,3t2.13,3.35q1,1.75,1.89,3.63t1.63,3.88q.75,2,1.36,4.08t1.07,4.25q.46,2.16.77,4.38t.47,4.47q.16,2.25.16,4.51t-.16,4.51q-.16,2.25-.47,4.47t-.77,4.38q-.46,2.16-1.07,4.25T248.66,271q-.75,2-1.63,3.88t-1.89,3.63q-1,1.75-2.13,3.35t-2.35,3a36.18,36.18,0,0,1-2.55,2.69,32.54,32.54,0,0,1-2.72,2.32,29.35,29.35,0,0,1-2.87,1.93,26.79,26.79,0,0,1-3,1.52,24.86,24.86,0,0,1-3.08,1.1,23.46,23.46,0,0,1-3.14.66,22.79,22.79,0,0,1-6.34,0,23.47,23.47,0,0,1-3.14-.66,24.85,24.85,0,0,1-3.08-1.1,26.79,26.79,0,0,1-3-1.52,29.35,29.35,0,0,1-2.87-1.93,32.54,32.54,0,0,1-2.72-2.32,36.18,36.18,0,0,1-2.55-2.69q-1.23-1.43-2.35-3t-2.13-3.35q-1-1.75-1.89-3.63T191.6,271q-.75-2-1.36-4.08t-1.07-4.25q-.46-2.16-.77-4.38t-.47-4.47q-.16-2.25-.16-4.51t.16-4.51q.16-2.25.47-4.47t.77-4.38q.46-2.16,1.07-4.25t1.36-4.08q.75-2,1.63-3.87t1.89-3.63q1-1.75,2.13-3.35t2.35-3a36.18,36.18,0,0,1,2.55-2.69,32.54,32.54,0,0,1,2.72-2.32,29.35,29.35,0,0,1,2.87-1.93,26.79,26.79,0,0,1,3-1.52,24.82,24.82,0,0,1,3.08-1.1,23.47,23.47,0,0,1,3.14-.66A22.79,22.79,0,0,1,220.13,203.29Z"/><path class="cls-2" d="M224.49,203.29a22.79,22.79,0,0,1,3.17.22,23.47,23.47,0,0,1,3.14.66,24.82,24.82,0,0,1,3.08,1.1,26.79,26.79,0,0,1,3,1.52,29.35,29.35,0,0,1,2.87,1.93,32.54,32.54,0,0,1,2.72,2.32,36.18,36.18,0,0,1,2.55,2.69q1.23,1.43,2.35,3t2.13,3.35q1,1.75,1.89,3.63t1.63,3.88q.75,2,1.36,4.08t1.07,4.25q.46,2.16.77,4.38t.47,4.47q.16,2.25.16,4.51t-.16,4.51q-.16,2.25-.47,4.47t-.77,4.38q-.46,2.16-1.07,4.25T253,271q-.75,2-1.63,3.88t-1.89,3.63q-1,1.75-2.13,3.35t-2.35,3a36.18,36.18,0,0,1-2.55,2.69,32.54,32.54,0,0,1-2.72,2.32,29.35,29.35,0,0,1-2.87,1.93,26.79,26.79,0,0,1-3,1.52,24.86,24.86,0,0,1-3.08,1.1,23.46,23.46,0,0,1-3.14.66,22.79,22.79,0,0,1-6.34,0,23.47,23.47,0,0,1-3.14-.66,24.85,24.85,0,0,1-3.08-1.1,26.79,26.79,0,0,1-3-1.52,29.35,29.35,0,0,1-2.87-1.93,32.54,32.54,0,0,1-2.72-2.32,36.18,36.18,0,0,1-2.55-2.69q-1.23-1.43-2.35-3t-2.13-3.35q-1-1.75-1.89-3.63T196,271q-.75-2-1.36-4.08t-1.07-4.25q-.46-2.16-.77-4.38t-.47-4.47q-.16-2.25-.16-4.51t.16-4.51q.16-2.25.47-4.47t.77-4.38q.46-2.16,1.07-4.25t1.36-4.08q.75-2,1.63-3.87t1.89-3.63q1-1.75,2.13-3.35t2.35-3a36.18,36.18,0,0,1,2.55-2.69,32.54,32.54,0,0,1,2.72-2.32,29.35,29.35,0,0,1,2.87-1.93,26.79,26.79,0,0,1,3-1.52,24.82,24.82,0,0,1,3.08-1.1,23.47,23.47,0,0,1,3.14-.66A22.79,22.79,0,0,1,224.49,203.29Z"/><path class="cls-7" d="M224.49,209.84a19.57,19.57,0,0,1,2.72.19,20.15,20.15,0,0,1,2.69.57,21.3,21.3,0,0,1,2.64.94,23,23,0,0,1,2.56,1.31,25.21,25.21,0,0,1,2.46,1.66,27.91,27.91,0,0,1,2.34,2,31,31,0,0,1,2.19,2.31q1.05,1.23,2,2.6t1.83,2.87q.86,1.5,1.62,3.11t1.4,3.32q.64,1.71,1.16,3.5t.92,3.65q.4,1.86.66,3.76t.4,3.83q.13,1.93.13,3.87t-.13,3.87q-.13,1.93-.4,3.83t-.66,3.76q-.4,1.86-.92,3.65t-1.16,3.5q-.64,1.71-1.4,3.32t-1.62,3.11q-.86,1.5-1.83,2.87t-2,2.6a31,31,0,0,1-2.19,2.31,27.92,27.92,0,0,1-2.34,2,25.21,25.21,0,0,1-2.46,1.66,23,23,0,0,1-2.56,1.31,21.26,21.26,0,0,1-2.64.94,20.11,20.11,0,0,1-2.69.57,19.54,19.54,0,0,1-5.44,0,20.11,20.11,0,0,1-2.69-.57,21.26,21.26,0,0,1-2.64-.94,23,23,0,0,1-2.56-1.31,25.21,25.21,0,0,1-2.46-1.66,27.92,27.92,0,0,1-2.34-2,31.06,31.06,0,0,1-2.19-2.31q-1.05-1.23-2-2.6T203,274.38q-.86-1.5-1.62-3.11t-1.4-3.32q-.64-1.71-1.16-3.5t-.92-3.65q-.4-1.86-.66-3.76t-.4-3.83q-.13-1.93-.13-3.87t.13-3.87q.13-1.93.4-3.83t.66-3.76q.4-1.86.92-3.65t1.16-3.5q.64-1.71,1.4-3.32t1.62-3.11q.86-1.5,1.83-2.87t2-2.6a31.06,31.06,0,0,1,2.19-2.31,27.91,27.91,0,0,1,2.34-2,25.21,25.21,0,0,1,2.46-1.66,23,23,0,0,1,2.56-1.31,21.3,21.3,0,0,1,2.64-.94,20.15,20.15,0,0,1,2.69-.57A19.57,19.57,0,0,1,224.49,209.84Z"/><path class="cls-8" d="M224.25,268.35v-4.64a10.76,10.76,0,0,1-6.18-2l1-3.07a9.88,9.88,0,0,0,5.82,2,4.46,4.46,0,0,0,4.81-4.5c0-2.52-1.58-4.08-4.56-5.46-4.12-1.84-6.67-3.95-6.67-7.94a7.22,7.22,0,0,1,6.1-7.39v-4.64H227v4.45a9.83,9.83,0,0,1,5.25,1.61l-1,3a8.93,8.93,0,0,0-5.09-1.56c-3.11,0-4.28,2.11-4.28,3.95,0,2.39,1.49,3.58,5,5.23,4.16,1.93,6.26,4.31,6.26,8.4a7.68,7.68,0,0,1-6.38,7.8v4.77Z"/><path class="cls-3" d="M231.4,131.57v19.87s.48,24.23-7.75,39.25l-4.36,9.69s-8.72,28.11-14.05,19.38S211,196.51,211,196.51l6.31-36.89L213.47,135Z"/><path class="cls-6" d="M214.92,98.13l9.45,1.21s11.39,34.65,8.48,36.1S211,137.87,211,137.87Z"/><rect class="cls-9" x="286.4" y="0.36" width="242.95" height="272.48"/><path class="cls-10" d="M292.22,211.68H286.4v-1h5.82Zm11.63,0H298v-1h5.82Zm11.63,0h-5.82v-1h5.82Zm11.63,0h-5.82v-1h5.82Z"/><path class="cls-10" d="M292.22,165.74H286.4v-1h5.82Zm11.63,0H298v-1h5.82Zm11.63,0h-5.82v-1h5.82Zm11.63,0h-5.82v-1h5.82Zm11.63,0h-5.82v-1h5.82Zm11.63,0h-5.82v-1h5.82Zm11.63,0h-5.82v-1H362Zm11.63,0h-5.82v-1h5.82Zm11.63,0h-5.82v-1h5.82Zm11.63,0h-5.82v-1h5.82Zm11.63,0h-5.82v-1h5.82Z"/><path class="cls-10" d="M292.22,137.14H286.4v-1h5.82Zm11.63,0H298v-1h5.82Zm11.63,0h-5.82v-1h5.82Zm11.63,0h-5.82v-1h5.82Zm11.63,0h-5.82v-1h5.82Zm11.63,0h-5.82v-1h5.82Zm11.63,0h-5.82v-1H362Zm11.63,0h-5.82v-1h5.82Zm11.63,0h-5.82v-1h5.82Zm11.63,0h-5.82v-1h5.82Zm11.63,0h-5.82v-1h5.82Zm11.63,0h-5.82v-1h5.82Zm11.63,0H426v-1h5.82Zm11.63,0H437.6v-1h5.82Zm11.63,0h-5.82v-1H455Zm11.63,0h-5.82v-1h5.82Zm11.63,0h-5.82v-1h5.82Zm11.63,0h-5.82v-1h5.82Zm11.63,0h-5.82v-1h5.82Zm11.63,0h-5.82v-1h5.82Zm11.63,0H519v-1h5.82Z"/><rect class="cls-10" x="329.53" y="0.38" width="0.97" height="2.91"/><path class="cls-10" d="M330.5,14.72h-1V9h1Zm0,11.44h-1V20.44h1Zm0,11.44h-1V31.88h1Zm0,11.44h-1V43.31h1Zm0,11.44h-1V54.75h1Zm0,11.44h-1V66.19h1Zm0,11.44h-1V77.63h1Zm0,11.44h-1V89.06h1Zm0,11.44h-1V100.5h1Zm0,11.44h-1v-5.72h1Zm0,11.44h-1v-5.72h1Zm0,11.44h-1v-5.72h1Zm0,11.44h-1v-5.72h1Zm0,11.44h-1v-5.72h1Zm0,11.44h-1v-5.72h1Zm0,11.44h-1v-5.72h1Zm0,11.44h-1V192h1Zm0,11.44h-1v-5.72h1Zm0,11.44h-1v-5.72h1Z"/><rect class="cls-10" x="329" y="226" width="1" height="3"/><rect class="cls-10" x="413.85" y="0.38" width="0.97" height="2.91"/><path class="cls-10" d="M414.82,14.83h-1V9.06h1Zm0,11.54h-1V20.6h1Zm0,11.54h-1V32.14h1Zm0,11.54h-1V43.69h1Zm0,11.54h-1V55.23h1Zm0,11.54h-1V66.77h1Zm0,11.54h-1V78.32h1Zm0,11.54h-1V89.86h1Zm0,11.54h-1v-5.77h1Zm0,11.54h-1v-5.77h1Zm0,11.54h-1v-5.77h1Zm0,11.54h-1V136h1Zm0,11.54h-1v-5.77h1Zm0,11.54h-1v-5.77h1Zm0,11.54h-1v-5.77h1Z"/><rect class="cls-10" x="414" y="182" width="1" height="3"/><polygon class="cls-1" points="286.4 272.83 330.5 228.73 350.61 248.84 414.34 185.12 455.53 226.31 529.67 152.17 529.67 272.83 286.4 272.83"/><path class="cls-6" d="M286.89,272.35h242.3V1H286.89Zm243.27,1H285.92V0H530.16Z"/><path class="cls-2" d="M330.5,204a6.5,6.5,0,1,1-1.27.12A6.49,6.49,0,0,1,330.5,204Z"/><path class="cls-2" d="M414.5,159a7,7,0,0,1,1.27.12,6.91,6.91,0,0,1,1.22.34,6.7,6.7,0,0,1,1.12.55,6.41,6.41,0,0,1,1,.75,6.11,6.11,0,0,1,.81.91,5.85,5.85,0,0,1,.6,1,5.65,5.65,0,0,1,.37,1.13,5.55,5.55,0,0,1,0,2.34,5.65,5.65,0,0,1-.37,1.13,5.85,5.85,0,0,1-.6,1,6.11,6.11,0,0,1-.81.91,6.41,6.41,0,0,1-1,.75,6.7,6.7,0,0,1-1.12.55,6.91,6.91,0,0,1-1.22.34,7,7,0,0,1-2.54,0,6.91,6.91,0,0,1-1.22-.34,6.7,6.7,0,0,1-1.12-.55,6.42,6.42,0,0,1-1-.75,6.11,6.11,0,0,1-.81-.91,5.85,5.85,0,0,1-.6-1,5.65,5.65,0,0,1-.37-1.13,5.55,5.55,0,0,1,0-2.34,5.65,5.65,0,0,1,.37-1.13,5.85,5.85,0,0,1,.6-1,6.11,6.11,0,0,1,.81-.91,6.42,6.42,0,0,1,1-.75,6.7,6.7,0,0,1,1.12-.55,6.91,6.91,0,0,1,1.22-.34A7,7,0,0,1,414.5,159Z"/><path class="cls-2" d="M530,131a6,6,0,1,1-1.17.12A6,6,0,0,1,530,131Z"/><path class="cls-6" d="M485.58,38.77a29.27,29.27,0,0,1-9.4,1.23l3.65,2.43L307.92,169.71l.58.78L480.41,43.2l1.26,4.2A29.29,29.29,0,0,1,485.58,38.77Z"/></g></g></svg>